<svg width="253" height="29" viewBox="0 0 253 29" fill="none" xmlns="http://www.w3.org/2000/svg">
<path d="M109.792 9V9C97.7622 9 85.9378 12.1174 75.4716 18.0482L64.9722 23.9979C60.3429 26.6211 55.1129 28 49.792 28V28H-45" stroke="#565656" stroke-dasharray="2 2"/>
<path d="M139.792 9V9C151.822 9 163.646 12.1174 174.112 18.0482L184.612 23.9979C189.241 26.6211 194.471 28 199.792 28V28H297.423" stroke="#565656" stroke-dasharray="2 2"/>
<path d="M81.6822 13.2023L83.8653 13.7309L83.3367 15.914" stroke="#565656"/>
<path d="M171.147 14.8104L171.946 16.9098L169.846 17.7085" stroke="#565656"/>
<path fill-rule="evenodd" clip-rule="evenodd" d="M132.859 2.75C132.741 2.75 132.625 2.77783 132.519 2.83121L121.388 8.48062C121.388 8.48063 121.388 8.48062 121.388 8.48062C120.861 8.74838 120.249 8.79758 119.686 8.6176M119.686 8.6176L118.046 8.09407C118.046 8.09406 118.046 8.09407 118.046 8.09407C117.884 8.04224 117.709 8.04722 117.55 8.10818L116.948 8.33884L119.231 10.2851C119.46 10.4803 119.784 10.5197 120.053 10.3851L124.165 8.32918C124.535 8.14394 124.986 8.29411 125.171 8.66459C125.356 9.03508 125.206 9.48558 124.835 9.67082L120.724 11.7267C120.724 11.7267 120.724 11.7267 120.724 11.7267C119.916 12.1306 118.945 12.0124 118.258 11.4266L115.013 8.66118C114.812 8.4895 114.716 8.22437 114.761 7.96354C114.806 7.7027 114.985 7.48476 115.232 7.39006L117.013 6.70752C117.49 6.52459 118.015 6.50967 118.502 6.66513L120.142 7.1887C120.33 7.2487 120.534 7.2323 120.709 7.14308L131.841 1.49361C132.156 1.33349 132.505 1.25 132.859 1.25L135.5 1.25C135.76 1.25 136.001 1.38459 136.138 1.6057C136.275 1.82681 136.287 2.10292 136.171 2.33541L135.394 3.88821C135.177 4.32366 134.824 4.6767 134.388 4.89442L129.835 7.17082C129.465 7.35606 129.014 7.20589 128.829 6.83541C128.644 6.46493 128.794 6.01442 129.165 5.82918L133.717 3.55278C133.863 3.4802 133.98 3.36254 134.053 3.21739L134.286 2.75L132.859 2.75" fill="#063D5E"/>
<path fill-rule="evenodd" clip-rule="evenodd" d="M129.851 5.83719C130.217 6.03099 130.357 6.48487 130.163 6.85094L125.663 15.3509C125.531 15.5992 125.272 15.7532 124.991 15.75C124.71 15.7467 124.455 15.5867 124.329 15.3354L121.829 10.3354C121.74 10.1575 121.726 9.95155 121.788 9.76284C121.851 9.57413 121.987 9.41815 122.165 9.32919L124.165 8.32918C124.535 8.14394 124.986 8.29411 125.171 8.66459C125.356 9.03508 125.206 9.48558 124.835 9.67082L123.506 10.3355L125.019 13.3611L128.837 6.14911C129.031 5.78304 129.485 5.64338 129.851 5.83719Z" fill="#063D5E"/>
<path fill-rule="evenodd" clip-rule="evenodd" d="M118.905 2.0435C119.087 1.80641 119.392 1.69989 119.682 1.77237L127.682 3.77237C128.084 3.87283 128.328 4.28003 128.228 4.68187C128.127 5.08372 127.72 5.32804 127.318 5.22758L120.995 3.64683L122.656 6.63574C122.857 6.99783 122.726 7.45443 122.364 7.65559C122.002 7.85675 121.546 7.72629 121.344 7.3642L118.844 2.8642C118.699 2.603 118.723 2.28058 118.905 2.0435Z" fill="#063D5E"/>
</svg>
