<svg width="74" height="69" viewBox="0 0 74 69" fill="none" xmlns="http://www.w3.org/2000/svg">
<path d="M18.5 43.125H55.5" stroke="#374151" stroke-width="0.5625" stroke-linecap="round" stroke-linejoin="round"/>
<g clip-path="url(#clip0_1907_3352)">
<g clip-path="url(#clip1_1907_3352)">
<path d="M44.4465 31.7851C42.266 32.3817 39.9379 32.089 37.9731 30.9711C36.0082 29.8532 34.5671 28.0014 33.966 25.8222C33.7809 25.1277 33.6861 24.4122 33.6839 23.6934C31.7235 24.4433 30.1091 25.8905 29.1503 27.7576C28.1915 29.6246 27.9558 31.78 28.4885 33.8101C29.0897 35.9893 30.5308 37.8411 32.4956 38.959C34.4605 40.0769 36.7886 40.3696 38.969 39.773C42.8308 38.7382 45.3702 35.2674 45.346 31.4976C45.0525 31.6122 44.7529 31.7111 44.4488 31.7938L44.4465 31.7851Z" fill="#FBBF24" stroke="#F8F3E7" stroke-width="0.140625" stroke-linecap="round" stroke-linejoin="round"/>
<path d="M36.3582 28.7664L38.379 27.6296C38.4036 27.6165 38.4312 27.61 38.4591 27.6106C38.487 27.6113 38.5142 27.6192 38.5381 27.6335L40.5448 28.77C40.5753 28.7868 40.6104 28.7932 40.6448 28.7885C40.6793 28.7837 40.7113 28.7679 40.7361 28.7436C40.7608 28.7192 40.7771 28.6874 40.7824 28.6531C40.7878 28.6187 40.7819 28.5835 40.7656 28.5528L39.6289 26.532C39.6157 26.5074 39.6092 26.4798 39.6099 26.4519C39.6106 26.424 39.6184 26.3968 39.6327 26.3729L40.767 24.3575C40.7853 24.3262 40.7926 24.2897 40.7877 24.2538C40.7828 24.2178 40.766 24.1846 40.7399 24.1594C40.7138 24.1342 40.6801 24.1185 40.644 24.1148C40.6079 24.1111 40.5716 24.1196 40.541 24.139L38.5313 25.2821C38.5067 25.2952 38.4791 25.3018 38.4512 25.3011C38.4233 25.3004 38.3961 25.2926 38.3721 25.2782L36.3568 24.144C36.3263 24.1273 36.2912 24.1208 36.2567 24.1256C36.2223 24.1304 36.1903 24.1461 36.1655 24.1705C36.1407 24.1949 36.1245 24.2267 36.1191 24.261C36.1138 24.2954 36.1197 24.3306 36.1359 24.3613L37.2814 26.3797C37.2945 26.4043 37.301 26.4319 37.3004 26.4598C37.2997 26.4877 37.2918 26.5149 37.2775 26.5389L36.1409 28.5456C36.1242 28.5761 36.1178 28.6111 36.1225 28.6456C36.1273 28.68 36.1431 28.712 36.1674 28.7368C36.1918 28.7616 36.2236 28.7779 36.2579 28.7832C36.2923 28.7885 36.3275 28.7826 36.3582 28.7664Z" fill="#063D5E" stroke="#063D5E" stroke-width="0.0625" stroke-linecap="round" stroke-linejoin="round"/>
<path d="M40.8818 29.4056L42.2093 30.194C42.2245 30.2033 42.2372 30.2162 42.2462 30.2317C42.2553 30.2471 42.2603 30.2646 42.2609 30.2824L42.2737 31.823C42.2727 31.8472 42.2799 31.871 42.294 31.8905C42.3082 31.9101 42.3285 31.9244 42.3518 31.9311C42.375 31.9377 42.3998 31.9363 42.4222 31.9272C42.4446 31.9181 42.4632 31.9017 42.4752 31.8806L43.2636 30.5532C43.2729 30.538 43.2858 30.5253 43.3013 30.5163C43.3167 30.5072 43.3342 30.5022 43.352 30.5016L44.8926 30.4888C44.9168 30.4898 44.9406 30.4826 44.9602 30.4685C44.9797 30.4543 44.994 30.434 45.0007 30.4107C45.0073 30.3875 45.006 30.3627 44.9968 30.3403C44.9877 30.3179 44.9713 30.2993 44.9503 30.2873L43.6229 29.4989C43.6076 29.4896 43.5949 29.4767 43.5859 29.4612C43.5769 29.4458 43.5718 29.4283 43.5712 29.4105L43.5584 27.8699C43.5594 27.8457 43.5522 27.8219 43.5381 27.8023C43.5239 27.7828 43.5036 27.7685 43.4803 27.7618C43.4571 27.7552 43.4323 27.7565 43.4099 27.7657C43.3875 27.7748 43.3689 27.7912 43.3569 27.8122L42.5685 29.1396C42.5592 29.1549 42.5463 29.1676 42.5308 29.1766C42.5154 29.1856 42.4979 29.1907 42.4801 29.1913L40.9308 29.2064C40.9081 29.2081 40.8865 29.2169 40.8691 29.2316C40.8517 29.2463 40.8394 29.2661 40.834 29.2882C40.8285 29.3103 40.8303 29.3336 40.8389 29.3547C40.8475 29.3757 40.8625 29.3936 40.8818 29.4056Z" fill="url(#paint0_linear_1907_3352)" stroke="#063D5E" stroke-width="0.0625" stroke-linecap="round" stroke-linejoin="round"/>
<path d="M41.4551 26.1743L42.5315 26.1887C42.5444 26.1883 42.5572 26.1912 42.5687 26.1972C42.5802 26.2033 42.5899 26.2121 42.5969 26.223L43.1434 27.1491C43.1522 27.162 43.1648 27.1719 43.1794 27.1773C43.1941 27.1828 43.21 27.1835 43.2251 27.1795C43.2402 27.1754 43.2536 27.1668 43.2636 27.1548C43.2735 27.1427 43.2795 27.1279 43.2806 27.1123L43.295 26.036C43.2946 26.023 43.2975 26.0102 43.3035 25.9988C43.3096 25.9873 43.3184 25.9776 43.3293 25.9706L44.2554 25.424C44.2683 25.4152 44.2782 25.4027 44.2836 25.388C44.289 25.3734 44.2898 25.3574 44.2858 25.3424C44.2817 25.3273 44.2731 25.3138 44.2611 25.3039C44.249 25.2939 44.2342 25.288 44.2186 25.2868L43.1423 25.2725C43.1293 25.2729 43.1165 25.2699 43.105 25.2639C43.0936 25.2579 43.0839 25.249 43.0768 25.2381L42.5303 24.3121C42.5215 24.2992 42.509 24.2893 42.4943 24.2838C42.4797 24.2784 42.4637 24.2777 42.4486 24.2817C42.4336 24.2857 42.4201 24.2944 42.4102 24.3064C42.4002 24.3184 42.3943 24.3333 42.3931 24.3488L42.3788 25.4252C42.3792 25.4381 42.3762 25.4509 42.3702 25.4624C42.3642 25.4739 42.3553 25.4836 42.3444 25.4906L41.4184 26.0372C41.4054 26.0459 41.3956 26.0585 41.3901 26.0731C41.3847 26.0878 41.3839 26.1037 41.388 26.1188C41.392 26.1339 41.4007 26.1473 41.4127 26.1573C41.4247 26.1672 41.4396 26.1732 41.4551 26.1743Z" fill="#063D5E" stroke="#063D5E" stroke-width="0.0625" stroke-linecap="round" stroke-linejoin="round"/>
</g>
</g>
<defs>
<linearGradient id="paint0_linear_1907_3352" x1="41.584" y1="28.5198" x2="44.2482" y2="31.173" gradientUnits="userSpaceOnUse">
<stop offset="1" stop-color="#063D5E"/>
</linearGradient>
<clipPath id="clip0_1907_3352">
<rect width="46" height="46" fill="white" transform="translate(28 23)"/>
</clipPath>
<clipPath id="clip1_1907_3352">
<rect width="17.2949" height="17.2949" fill="white" transform="translate(26.0566 25.5325) rotate(-15)"/>
</clipPath>
</defs>
</svg>
