<svg width="216" height="108" viewBox="0 0 216 108" fill="none" xmlns="http://www.w3.org/2000/svg">
<rect x="0.697266" width="210.729" height="107.213" rx="10" fill="#FFE8E9"/>
<path d="M61.185 55.4843V66.3934H59.5391V55.4843H61.185ZM67.1137 66.3934H63.5821V55.4843H67.2255C68.2944 55.4843 69.2124 55.7027 69.9794 56.1395C70.7465 56.5728 71.3342 57.196 71.7426 58.0092C72.1545 58.8189 72.3605 59.7901 72.3605 60.9229C72.3605 62.0593 72.1527 63.0358 71.7372 63.8526C71.3253 64.6694 70.7287 65.2979 69.9475 65.7382C69.1662 66.175 68.2216 66.3934 67.1137 66.3934ZM65.228 64.9552H67.0231C67.8541 64.9552 68.5448 64.799 69.0952 64.4865C69.6456 64.1704 70.0576 63.7141 70.331 63.1175C70.6044 62.5174 70.7411 61.7858 70.7411 60.9229C70.7411 60.0671 70.6044 59.3409 70.331 58.7443C70.0611 58.1477 69.658 57.6949 69.1218 57.386C68.5856 57.077 67.9198 56.9226 67.1243 56.9226H65.228V64.9552ZM74.4072 66.3934V55.4843H81.1722V56.9012H76.0532V60.2251H80.6874V61.6367H76.0532V66.3934H74.4072ZM92.257 59.0319H90.5951C90.5312 58.6768 90.4122 58.3643 90.2382 58.0944C90.0642 57.8245 89.8511 57.5955 89.599 57.4073C89.3469 57.2191 89.0646 57.077 88.7521 56.9811C88.4431 56.8853 88.1146 56.8373 87.7666 56.8373C87.1381 56.8373 86.5752 56.9954 86.0781 57.3114C85.5845 57.6275 85.1938 58.0909 84.9062 58.7017C84.6221 59.3125 84.48 60.0582 84.48 60.9389C84.48 61.8267 84.6221 62.576 84.9062 63.1868C85.1938 63.7976 85.5862 64.2592 86.0834 64.5717C86.5805 64.8842 87.1398 65.0404 87.7613 65.0404C88.1058 65.0404 88.4325 64.9943 88.7414 64.902C89.0539 64.8061 89.3362 64.6658 89.5884 64.4811C89.8405 64.2965 90.0536 64.071 90.2276 63.8047C90.4051 63.5348 90.5276 63.2258 90.5951 62.8778L92.257 62.8831C92.1683 63.4194 91.996 63.913 91.7403 64.364C91.4882 64.8114 91.1633 65.1985 90.7656 65.5252C90.3714 65.8483 89.9204 66.0987 89.4126 66.2762C88.9048 66.4538 88.3508 66.5426 87.7506 66.5426C86.806 66.5426 85.9644 66.3189 85.2258 65.8714C84.4871 65.4204 83.9048 64.7759 83.4786 63.9378C83.056 63.0998 82.8447 62.1001 82.8447 60.9389C82.8447 59.7741 83.0578 58.7745 83.484 57.94C83.9101 57.1019 84.4925 56.4591 85.2311 56.0117C85.9697 55.5607 86.8096 55.3352 87.7506 55.3352C88.3295 55.3352 88.8693 55.4186 89.37 55.5855C89.8742 55.7489 90.327 55.9904 90.7283 56.31C91.1296 56.626 91.4616 57.0131 91.7244 57.4712C91.9871 57.9257 92.1647 58.446 92.257 59.0319ZM94.2266 66.3934V55.4843H101.066V56.9012H95.8725V60.2251H100.709V61.6367H95.8725V64.9765H101.13V66.3934H94.2266ZM103.265 55.4843H105.262L108.735 63.9645H108.863L112.336 55.4843H114.334V66.3934H112.768V58.4993H112.666L109.449 66.3775H108.149L104.932 58.4939H104.831V66.3934H103.265V55.4843ZM118.373 55.4843V66.3934H116.727V55.4843H118.373Z" fill="black"/>
<path d="M60.5437 82.1558L58.7156 76.1558H59.6843L60.9812 80.7495H61.0437L62.325 76.1558H63.3093L64.575 80.7339H64.6375L65.9343 76.1558H66.9031L65.075 82.1558H64.1687L62.8562 77.5464H62.7625L61.45 82.1558H60.5437ZM68.1218 82.1558V76.1558H69.0437V82.1558H68.1218ZM68.5906 75.1558C68.4109 75.1558 68.2559 75.0946 68.1257 74.9722C67.9981 74.8498 67.9343 74.7026 67.9343 74.5308C67.9343 74.3589 67.9981 74.2118 68.1257 74.0894C68.2559 73.967 68.4109 73.9058 68.5906 73.9058C68.7703 73.9058 68.9239 73.967 69.0515 74.0894C69.1817 74.2118 69.2468 74.3589 69.2468 74.5308C69.2468 74.7026 69.1817 74.8498 69.0515 74.9722C68.9239 75.0946 68.7703 75.1558 68.5906 75.1558ZM73.3416 76.1558V76.937H70.2322V76.1558H73.3416ZM71.1384 74.7183H72.0603V80.437C72.0603 80.6974 72.0981 80.8927 72.1736 81.0229C72.2517 81.1506 72.3507 81.2365 72.4705 81.2808C72.5929 81.3224 72.7218 81.3433 72.8572 81.3433C72.9587 81.3433 73.0421 81.3381 73.1072 81.3276C73.1723 81.3146 73.2244 81.3042 73.2634 81.2964L73.4509 82.1245C73.3884 82.1479 73.3012 82.1714 73.1892 82.1948C73.0772 82.2209 72.9353 82.2339 72.7634 82.2339C72.503 82.2339 72.2478 82.1779 71.9978 82.0659C71.7504 81.9539 71.5447 81.7834 71.3806 81.5542C71.2192 81.325 71.1384 81.036 71.1384 80.687V74.7183ZM75.7791 78.5464V82.1558H74.8572V74.1558H75.7791V77.0933H75.8572C75.9978 76.7834 76.2087 76.5373 76.49 76.355C76.7738 76.1701 77.1514 76.0776 77.6228 76.0776C78.0317 76.0776 78.3897 76.1597 78.697 76.3237C79.0043 76.4852 79.2426 76.7339 79.4119 77.0698C79.5837 77.4032 79.6697 77.8276 79.6697 78.3433V82.1558H78.7478V78.4058C78.7478 77.9292 78.6241 77.5607 78.3767 77.3003C78.1319 77.0373 77.7921 76.9058 77.3572 76.9058C77.0551 76.9058 76.7843 76.9696 76.5447 77.0972C76.3077 77.2248 76.1202 77.411 75.9822 77.6558C75.8468 77.9006 75.7791 78.1974 75.7791 78.5464ZM85.5437 74.1558V82.1558H84.575V74.1558H85.5437ZM89.9548 82.1558H87.4861V74.1558H90.0642C90.8403 74.1558 91.5043 74.3159 92.0564 74.6362C92.6085 74.9539 93.0317 75.411 93.3259 76.0073C93.6202 76.6011 93.7673 77.312 93.7673 78.1401C93.7673 78.9735 93.6189 79.6909 93.322 80.2925C93.0251 80.8914 92.5929 81.3524 92.0251 81.6753C91.4574 81.9956 90.7673 82.1558 89.9548 82.1558ZM88.4548 81.2964H89.8923C90.5538 81.2964 91.102 81.1688 91.5369 80.9136C91.9718 80.6584 92.296 80.2951 92.5095 79.8237C92.7231 79.3524 92.8298 78.7912 92.8298 78.1401C92.8298 77.4943 92.7244 76.9383 92.5134 76.4722C92.3025 76.0034 91.9874 75.644 91.5681 75.394C91.1488 75.1414 90.6267 75.0151 90.0017 75.0151H88.4548V81.2964ZM95.3923 82.1558V74.1558H100.189V75.0151H96.3611V77.7183H99.8298V78.5776H96.3611V82.1558H95.3923ZM108.286 76.6558H107.317C107.26 76.3771 107.16 76.1323 107.016 75.9214C106.876 75.7104 106.704 75.5334 106.501 75.3901C106.3 75.2443 106.078 75.1349 105.833 75.062C105.588 74.9891 105.333 74.9526 105.067 74.9526C104.583 74.9526 104.144 75.075 103.751 75.3198C103.36 75.5646 103.049 75.9253 102.817 76.4019C102.588 76.8784 102.473 77.4631 102.473 78.1558C102.473 78.8485 102.588 79.4331 102.817 79.9097C103.049 80.3862 103.36 80.7469 103.751 80.9917C104.144 81.2365 104.583 81.3589 105.067 81.3589C105.333 81.3589 105.588 81.3224 105.833 81.2495C106.078 81.1766 106.3 81.0685 106.501 80.9253C106.704 80.7795 106.876 80.6011 107.016 80.3901C107.16 80.1766 107.26 79.9318 107.317 79.6558H108.286C108.213 80.0646 108.08 80.4305 107.887 80.7534C107.695 81.0763 107.455 81.3511 107.169 81.5776C106.882 81.8016 106.561 81.9722 106.204 82.0894C105.85 82.2065 105.471 82.2651 105.067 82.2651C104.385 82.2651 103.778 82.0985 103.247 81.7651C102.716 81.4318 102.298 80.9578 101.993 80.3433C101.688 79.7287 101.536 78.9995 101.536 78.1558C101.536 77.312 101.688 76.5828 101.993 75.9683C102.298 75.3537 102.716 74.8797 103.247 74.5464C103.778 74.2131 104.385 74.0464 105.067 74.0464C105.471 74.0464 105.85 74.105 106.204 74.2222C106.561 74.3394 106.882 74.5112 107.169 74.7378C107.455 74.9618 107.695 75.2352 107.887 75.5581C108.08 75.8784 108.213 76.2443 108.286 76.6558ZM112.945 82.1558V74.1558H117.742V75.0151H113.914V77.7183H117.383V78.5776H113.914V82.1558H112.945ZM120.37 74.1558V82.1558H119.401V74.1558H120.37ZM122.312 82.1558V74.1558H125.015C125.64 74.1558 126.153 74.2625 126.554 74.4761C126.955 74.687 127.252 74.9774 127.445 75.3472C127.638 75.717 127.734 76.1375 127.734 76.6089C127.734 77.0802 127.638 77.4982 127.445 77.8628C127.252 78.2274 126.957 78.5138 126.558 78.7222C126.16 78.9279 125.651 79.0308 125.031 79.0308H122.844V78.1558H125C125.427 78.1558 125.771 78.0933 126.031 77.9683C126.294 77.8433 126.484 77.6662 126.601 77.437C126.721 77.2052 126.781 76.9292 126.781 76.6089C126.781 76.2886 126.721 76.0086 126.601 75.769C126.482 75.5295 126.29 75.3446 126.027 75.2144C125.764 75.0815 125.416 75.0151 124.984 75.0151H123.281V82.1558H122.312ZM126.078 78.562L128.047 82.1558H126.922L124.984 78.562H126.078ZM133.723 76.1558C133.677 75.7599 133.486 75.4526 133.153 75.2339C132.82 75.0151 132.411 74.9058 131.927 74.9058C131.572 74.9058 131.262 74.9631 130.997 75.0776C130.734 75.1922 130.528 75.3498 130.38 75.5503C130.234 75.7508 130.161 75.9787 130.161 76.2339C130.161 76.4474 130.212 76.631 130.313 76.7847C130.417 76.9357 130.55 77.062 130.712 77.1636C130.873 77.2625 131.042 77.3446 131.219 77.4097C131.397 77.4722 131.559 77.5229 131.708 77.562L132.52 77.7808C132.729 77.8354 132.96 77.911 133.216 78.0073C133.473 78.1037 133.719 78.2352 133.954 78.4019C134.191 78.5659 134.386 78.7769 134.54 79.0347C134.693 79.2925 134.77 79.6089 134.77 79.9839C134.77 80.4162 134.657 80.8068 134.43 81.1558C134.206 81.5047 133.878 81.7821 133.446 81.9878C133.016 82.1935 132.494 82.2964 131.88 82.2964C131.307 82.2964 130.811 82.2039 130.391 82.019C129.975 81.8341 129.647 81.5763 129.407 81.2456C129.17 80.9149 129.036 80.5308 129.005 80.0933H130.005C130.031 80.3953 130.132 80.6453 130.309 80.8433C130.489 81.0386 130.716 81.1844 130.989 81.2808C131.265 81.3745 131.562 81.4214 131.88 81.4214C132.249 81.4214 132.581 81.3615 132.876 81.2417C133.17 81.1193 133.403 80.95 133.575 80.7339C133.747 80.5151 133.833 80.2599 133.833 79.9683C133.833 79.7026 133.759 79.4865 133.61 79.3198C133.462 79.1532 133.266 79.0177 133.024 78.9136C132.782 78.8094 132.52 78.7183 132.239 78.6401L131.255 78.3589C130.63 78.1792 130.135 77.9227 129.77 77.5894C129.406 77.256 129.223 76.8198 129.223 76.2808C129.223 75.8328 129.344 75.4422 129.587 75.1089C129.831 74.7729 130.16 74.5125 130.571 74.3276C130.985 74.1401 131.447 74.0464 131.958 74.0464C132.473 74.0464 132.932 74.1388 133.333 74.3237C133.734 74.506 134.052 74.756 134.286 75.0737C134.523 75.3914 134.648 75.7521 134.661 76.1558H133.723ZM135.926 75.0151V74.1558H141.926V75.0151H139.41V82.1558H138.441V75.0151H135.926ZM146.514 82.1558V74.1558H149.311C149.869 74.1558 150.328 74.2521 150.69 74.4448C151.052 74.6349 151.322 74.8914 151.499 75.2144C151.676 75.5347 151.764 75.8901 151.764 76.2808C151.764 76.6245 151.703 76.9084 151.581 77.1323C151.461 77.3563 151.302 77.5334 151.104 77.6636C150.909 77.7938 150.697 77.8901 150.468 77.9526V78.0308C150.712 78.0464 150.958 78.1323 151.206 78.2886C151.453 78.4448 151.66 78.6688 151.827 78.9604C151.994 79.2521 152.077 79.6089 152.077 80.0308C152.077 80.4318 151.986 80.7925 151.803 81.1128C151.621 81.4331 151.333 81.687 150.94 81.8745C150.547 82.062 150.035 82.1558 149.405 82.1558H146.514ZM147.483 81.2964H149.405C150.038 81.2964 150.487 81.174 150.753 80.9292C151.021 80.6818 151.155 80.3823 151.155 80.0308C151.155 79.7599 151.086 79.5099 150.948 79.2808C150.81 79.049 150.613 78.8641 150.358 78.7261C150.103 78.5854 149.801 78.5151 149.452 78.5151H147.483V81.2964ZM147.483 77.6714H149.28C149.572 77.6714 149.835 77.6141 150.069 77.4995C150.306 77.3849 150.494 77.2235 150.632 77.0151C150.772 76.8068 150.843 76.562 150.843 76.2808C150.843 75.9292 150.72 75.631 150.475 75.3862C150.231 75.1388 149.843 75.0151 149.311 75.0151H147.483V77.6714ZM155.309 82.2964C154.929 82.2964 154.584 82.2248 154.274 82.0815C153.964 81.9357 153.718 81.7261 153.536 81.4526C153.354 81.1766 153.262 80.8433 153.262 80.4526C153.262 80.1089 153.33 79.8302 153.466 79.6167C153.601 79.4006 153.782 79.2313 154.009 79.1089C154.235 78.9865 154.485 78.8953 154.759 78.8354C155.035 78.7729 155.312 78.7235 155.591 78.687C155.955 78.6401 156.251 78.605 156.477 78.5815C156.706 78.5555 156.873 78.5125 156.977 78.4526C157.084 78.3927 157.137 78.2886 157.137 78.1401V78.1089C157.137 77.7235 157.032 77.424 156.821 77.2104C156.613 76.9969 156.296 76.8901 155.872 76.8901C155.432 76.8901 155.087 76.9865 154.837 77.1792C154.587 77.3719 154.411 77.5776 154.309 77.7964L153.434 77.4839C153.591 77.1193 153.799 76.8354 154.059 76.6323C154.322 76.4266 154.609 76.2834 154.919 76.2026C155.231 76.1193 155.538 76.0776 155.841 76.0776C156.033 76.0776 156.255 76.1011 156.505 76.1479C156.757 76.1922 157.001 76.2847 157.235 76.4253C157.472 76.5659 157.669 76.7782 157.825 77.062C157.981 77.3459 158.059 77.7261 158.059 78.2026V82.1558H157.137V81.3433H157.091C157.028 81.4735 156.924 81.6128 156.778 81.7612C156.632 81.9097 156.438 82.036 156.196 82.1401C155.954 82.2443 155.658 82.2964 155.309 82.2964ZM155.45 81.4683C155.815 81.4683 156.122 81.3966 156.372 81.2534C156.624 81.1102 156.815 80.9253 156.942 80.6987C157.072 80.4722 157.137 80.2339 157.137 79.9839V79.1401C157.098 79.187 157.012 79.23 156.88 79.269C156.749 79.3055 156.598 79.3381 156.427 79.3667C156.257 79.3927 156.092 79.4162 155.93 79.437C155.772 79.4552 155.643 79.4709 155.544 79.4839C155.304 79.5151 155.08 79.5659 154.872 79.6362C154.666 79.7039 154.499 79.8068 154.372 79.9448C154.247 80.0802 154.184 80.2651 154.184 80.4995C154.184 80.8198 154.303 81.062 154.54 81.2261C154.779 81.3875 155.083 81.4683 155.45 81.4683ZM160.664 78.5464V82.1558H159.742V76.1558H160.633V77.0933H160.711C160.851 76.7886 161.065 76.5438 161.351 76.3589C161.638 76.1714 162.008 76.0776 162.461 76.0776C162.867 76.0776 163.222 76.161 163.527 76.3276C163.832 76.4917 164.069 76.7417 164.238 77.0776C164.407 77.411 164.492 77.8328 164.492 78.3433V82.1558H163.57V78.4058C163.57 77.9344 163.448 77.5672 163.203 77.3042C162.958 77.0386 162.622 76.9058 162.195 76.9058C161.901 76.9058 161.638 76.9696 161.406 77.0972C161.177 77.2248 160.996 77.411 160.863 77.6558C160.73 77.9006 160.664 78.1974 160.664 78.5464ZM167.036 79.9683L167.02 78.8276H167.208L169.833 76.1558H170.973L168.177 78.9839H168.098L167.036 79.9683ZM166.177 82.1558V74.1558H167.098V82.1558H166.177ZM169.989 82.1558L167.645 79.187L168.302 78.5464L171.161 82.1558H169.989ZM181.816 76.6558H180.847C180.79 76.3771 180.69 76.1323 180.547 75.9214C180.406 75.7104 180.234 75.5334 180.031 75.3901C179.83 75.2443 179.608 75.1349 179.363 75.062C179.118 74.9891 178.863 74.9526 178.597 74.9526C178.113 74.9526 177.674 75.075 177.281 75.3198C176.89 75.5646 176.579 75.9253 176.347 76.4019C176.118 76.8784 176.004 77.4631 176.004 78.1558C176.004 78.8485 176.118 79.4331 176.347 79.9097C176.579 80.3862 176.89 80.7469 177.281 80.9917C177.674 81.2365 178.113 81.3589 178.597 81.3589C178.863 81.3589 179.118 81.3224 179.363 81.2495C179.608 81.1766 179.83 81.0685 180.031 80.9253C180.234 80.7795 180.406 80.6011 180.547 80.3901C180.69 80.1766 180.79 79.9318 180.847 79.6558H181.816C181.743 80.0646 181.61 80.4305 181.418 80.7534C181.225 81.0763 180.985 81.3511 180.699 81.5776C180.413 81.8016 180.091 81.9722 179.734 82.0894C179.38 82.2065 179.001 82.2651 178.597 82.2651C177.915 82.2651 177.308 82.0985 176.777 81.7651C176.246 81.4318 175.828 80.9578 175.523 80.3433C175.219 79.7287 175.066 78.9995 175.066 78.1558C175.066 77.312 175.219 76.5828 175.523 75.9683C175.828 75.3537 176.246 74.8797 176.777 74.5464C177.308 74.2131 177.915 74.0464 178.597 74.0464C179.001 74.0464 179.38 74.105 179.734 74.2222C180.091 74.3394 180.413 74.5112 180.699 74.7378C180.985 74.9618 181.225 75.2352 181.418 75.5581C181.61 75.8784 181.743 76.2443 181.816 76.6558ZM183.257 82.1558V76.1558H184.147V77.062H184.21C184.319 76.7651 184.517 76.5243 184.803 76.3394C185.09 76.1545 185.413 76.062 185.772 76.062C185.84 76.062 185.925 76.0633 186.026 76.0659C186.128 76.0685 186.205 76.0724 186.257 76.0776V77.0151C186.225 77.0073 186.154 76.9956 186.042 76.98C185.932 76.9618 185.816 76.9526 185.694 76.9526C185.402 76.9526 185.142 77.0138 184.913 77.1362C184.686 77.256 184.507 77.4227 184.374 77.6362C184.244 77.8472 184.178 78.0881 184.178 78.3589V82.1558H183.257ZM189.682 82.2808C189.104 82.2808 188.606 82.1532 188.186 81.8979C187.77 81.6401 187.448 81.2808 187.221 80.8198C186.997 80.3563 186.885 79.8172 186.885 79.2026C186.885 78.5881 186.997 78.0464 187.221 77.5776C187.448 77.1063 187.763 76.7391 188.167 76.4761C188.573 76.2104 189.047 76.0776 189.589 76.0776C189.901 76.0776 190.21 76.1297 190.514 76.2339C190.819 76.3381 191.096 76.5073 191.346 76.7417C191.596 76.9735 191.796 77.2808 191.944 77.6636C192.093 78.0464 192.167 78.5177 192.167 79.0776V79.4683H187.542V78.6714H191.229C191.229 78.3328 191.162 78.0308 191.026 77.7651C190.893 77.4995 190.703 77.2899 190.456 77.1362C190.211 76.9826 189.922 76.9058 189.589 76.9058C189.221 76.9058 188.904 76.9969 188.635 77.1792C188.37 77.3589 188.165 77.5933 188.022 77.8823C187.879 78.1714 187.807 78.4813 187.807 78.812V79.3433C187.807 79.7964 187.885 80.1805 188.042 80.4956C188.201 80.8081 188.421 81.0464 188.702 81.2104C188.983 81.3719 189.31 81.4526 189.682 81.4526C189.925 81.4526 190.143 81.4188 190.339 81.3511C190.537 81.2808 190.707 81.1766 190.85 81.0386C190.994 80.8979 191.104 80.7235 191.182 80.5151L192.073 80.7651C191.979 81.0672 191.822 81.3328 191.6 81.562C191.379 81.7886 191.106 81.9657 190.78 82.0933C190.455 82.2183 190.089 82.2808 189.682 82.2808ZM195.835 82.2808C195.335 82.2808 194.893 82.1545 194.51 81.9019C194.128 81.6466 193.828 81.2873 193.612 80.8237C193.396 80.3576 193.288 79.8068 193.288 79.1714C193.288 78.5412 193.396 77.9943 193.612 77.5308C193.828 77.0672 194.129 76.7091 194.514 76.4565C194.9 76.2039 195.345 76.0776 195.85 76.0776C196.241 76.0776 196.55 76.1427 196.776 76.2729C197.005 76.4006 197.18 76.5464 197.3 76.7104C197.422 76.8719 197.517 77.0047 197.585 77.1089H197.663V74.1558H198.585V82.1558H197.694V81.2339H197.585C197.517 81.3433 197.421 81.4813 197.296 81.6479C197.171 81.812 196.992 81.9591 196.76 82.0894C196.529 82.217 196.22 82.2808 195.835 82.2808ZM195.96 81.4526C196.33 81.4526 196.642 81.3563 196.897 81.1636C197.152 80.9683 197.346 80.6987 197.479 80.355C197.612 80.0086 197.678 79.6089 197.678 79.1558C197.678 78.7078 197.613 78.3159 197.483 77.98C197.353 77.6414 197.16 77.3784 196.905 77.1909C196.65 77.0008 196.335 76.9058 195.96 76.9058C195.569 76.9058 195.244 77.006 194.983 77.2065C194.725 77.4045 194.531 77.674 194.401 78.0151C194.274 78.3537 194.21 78.7339 194.21 79.1558C194.21 79.5828 194.275 79.9709 194.405 80.3198C194.538 80.6662 194.733 80.9422 194.991 81.1479C195.251 81.3511 195.574 81.4526 195.96 81.4526ZM200.401 82.1558V76.1558H201.323V82.1558H200.401ZM200.87 75.1558C200.69 75.1558 200.535 75.0946 200.405 74.9722C200.277 74.8498 200.214 74.7026 200.214 74.5308C200.214 74.3589 200.277 74.2118 200.405 74.0894C200.535 73.967 200.69 73.9058 200.87 73.9058C201.05 73.9058 201.203 73.967 201.331 74.0894C201.461 74.2118 201.526 74.3589 201.526 74.5308C201.526 74.7026 201.461 74.8498 201.331 74.9722C201.203 75.0946 201.05 75.1558 200.87 75.1558ZM205.621 76.1558V76.937H202.511V76.1558H205.621ZM203.418 74.7183H204.34V80.437C204.34 80.6974 204.377 80.8927 204.453 81.0229C204.531 81.1506 204.63 81.2365 204.75 81.2808C204.872 81.3224 205.001 81.3433 205.136 81.3433C205.238 81.3433 205.321 81.3381 205.386 81.3276C205.452 81.3146 205.504 81.3042 205.543 81.2964L205.73 82.1245C205.668 82.1479 205.58 82.1714 205.469 82.1948C205.357 82.2209 205.215 82.2339 205.043 82.2339C204.782 82.2339 204.527 82.1779 204.277 82.0659C204.03 81.9539 203.824 81.7834 203.66 81.5542C203.498 81.325 203.418 81.036 203.418 80.687V74.7183ZM65.7468 93.6558H64.7781C64.7208 93.3771 64.6205 93.1323 64.4773 92.9214C64.3367 92.7104 64.1648 92.5334 63.9617 92.3901C63.7611 92.2443 63.5385 92.1349 63.2937 92.062C63.0489 91.9891 62.7937 91.9526 62.5281 91.9526C62.0437 91.9526 61.6049 92.075 61.2117 92.3198C60.821 92.5646 60.5098 92.9253 60.2781 93.4019C60.0489 93.8784 59.9343 94.4631 59.9343 95.1558C59.9343 95.8485 60.0489 96.4331 60.2781 96.9097C60.5098 97.3862 60.821 97.7469 61.2117 97.9917C61.6049 98.2365 62.0437 98.3589 62.5281 98.3589C62.7937 98.3589 63.0489 98.3224 63.2937 98.2495C63.5385 98.1766 63.7611 98.0685 63.9617 97.9253C64.1648 97.7795 64.3367 97.6011 64.4773 97.3901C64.6205 97.1766 64.7208 96.9318 64.7781 96.6558H65.7468C65.6739 97.0646 65.5411 97.4305 65.3484 97.7534C65.1557 98.0763 64.9161 98.3511 64.6296 98.5776C64.3432 98.8016 64.0216 98.9722 63.6648 99.0894C63.3106 99.2065 62.9317 99.2651 62.5281 99.2651C61.8458 99.2651 61.239 99.0985 60.7078 98.7651C60.1765 98.4318 59.7585 97.9578 59.4539 97.3433C59.1492 96.7287 58.9968 95.9995 58.9968 95.1558C58.9968 94.312 59.1492 93.5828 59.4539 92.9683C59.7585 92.3537 60.1765 91.8797 60.7078 91.5464C61.239 91.2131 61.8458 91.0464 62.5281 91.0464C62.9317 91.0464 63.3106 91.105 63.6648 91.2222C64.0216 91.3394 64.3432 91.5112 64.6296 91.7378C64.9161 91.9618 65.1557 92.2352 65.3484 92.5581C65.5411 92.8784 65.6739 93.2443 65.7468 93.6558ZM68.9529 99.2964C68.5727 99.2964 68.2276 99.2248 67.9177 99.0815C67.6078 98.9357 67.3617 98.7261 67.1794 98.4526C66.9972 98.1766 66.906 97.8433 66.906 97.4526C66.906 97.1089 66.9737 96.8302 67.1091 96.6167C67.2445 96.4006 67.4255 96.2313 67.6521 96.1089C67.8787 95.9865 68.1287 95.8953 68.4021 95.8354C68.6781 95.7729 68.9555 95.7235 69.2341 95.687C69.5987 95.6401 69.8943 95.605 70.1208 95.5815C70.35 95.5555 70.5167 95.5125 70.6208 95.4526C70.7276 95.3927 70.781 95.2886 70.781 95.1401V95.1089C70.781 94.7235 70.6755 94.424 70.4646 94.2104C70.2563 93.9969 69.9399 93.8901 69.5154 93.8901C69.0753 93.8901 68.7302 93.9865 68.4802 94.1792C68.2302 94.3719 68.0544 94.5776 67.9529 94.7964L67.0779 94.4839C67.2341 94.1193 67.4425 93.8354 67.7029 93.6323C67.9659 93.4266 68.2524 93.2834 68.5623 93.2026C68.8748 93.1193 69.182 93.0776 69.4841 93.0776C69.6768 93.0776 69.8982 93.1011 70.1482 93.1479C70.4008 93.1922 70.6443 93.2847 70.8787 93.4253C71.1156 93.5659 71.3123 93.7782 71.4685 94.062C71.6248 94.3459 71.7029 94.7261 71.7029 95.2026V99.1558H70.781V98.3433H70.7341C70.6716 98.4735 70.5675 98.6128 70.4216 98.7612C70.2758 98.9097 70.0818 99.036 69.8396 99.1401C69.5974 99.2443 69.3018 99.2964 68.9529 99.2964ZM69.0935 98.4683C69.4581 98.4683 69.7654 98.3966 70.0154 98.2534C70.268 98.1102 70.4581 97.9253 70.5857 97.6987C70.7159 97.4722 70.781 97.2339 70.781 96.9839V96.1401C70.7419 96.187 70.656 96.23 70.5232 96.269C70.393 96.3055 70.2419 96.3381 70.0701 96.3667C69.9008 96.3927 69.7354 96.4162 69.574 96.437C69.4151 96.4552 69.2862 96.4709 69.1873 96.4839C68.9477 96.5151 68.7237 96.5659 68.5154 96.6362C68.3097 96.7039 68.143 96.8068 68.0154 96.9448C67.8904 97.0802 67.8279 97.2651 67.8279 97.4995C67.8279 97.8198 67.9464 98.062 68.1833 98.2261C68.4229 98.3875 68.7263 98.4683 69.0935 98.4683ZM73.3855 99.1558V93.1558H74.2761V94.062H74.3386C74.448 93.7651 74.6459 93.5243 74.9324 93.3394C75.2188 93.1545 75.5417 93.062 75.9011 93.062C75.9688 93.062 76.0535 93.0633 76.155 93.0659C76.2566 93.0685 76.3334 93.0724 76.3855 93.0776V94.0151C76.3542 94.0073 76.2826 93.9956 76.1707 93.98C76.0613 93.9618 75.9454 93.9526 75.823 93.9526C75.5313 93.9526 75.2709 94.0138 75.0417 94.1362C74.8152 94.256 74.6355 94.4227 74.5027 94.6362C74.3725 94.8472 74.3074 95.0881 74.3074 95.3589V99.1558H73.3855ZM79.5613 99.2808C79.0613 99.2808 78.6199 99.1545 78.2371 98.9019C77.8542 98.6466 77.5548 98.2873 77.3386 97.8237C77.1225 97.3576 77.0144 96.8068 77.0144 96.1714C77.0144 95.5412 77.1225 94.9943 77.3386 94.5308C77.5548 94.0672 77.8556 93.7091 78.241 93.4565C78.6264 93.2039 79.0717 93.0776 79.5769 93.0776C79.9675 93.0776 80.2761 93.1427 80.5027 93.2729C80.7319 93.4006 80.9063 93.5464 81.0261 93.7104C81.1485 93.8719 81.2436 94.0047 81.3113 94.1089H81.3894V91.1558H82.3113V99.1558H81.4207V98.2339H81.3113C81.2436 98.3433 81.1472 98.4813 81.0222 98.6479C80.8972 98.812 80.7188 98.9591 80.4871 99.0894C80.2553 99.217 79.9467 99.2808 79.5613 99.2808ZM79.6863 98.4526C80.0561 98.4526 80.3686 98.3563 80.6238 98.1636C80.879 97.9683 81.073 97.6987 81.2058 97.355C81.3386 97.0086 81.405 96.6089 81.405 96.1558C81.405 95.7078 81.3399 95.3159 81.2097 94.98C81.0795 94.6414 80.8868 94.3784 80.6316 94.1909C80.3764 94.0008 80.0613 93.9058 79.6863 93.9058C79.2957 93.9058 78.9701 94.006 78.7097 94.2065C78.4519 94.4045 78.2579 94.674 78.1277 95.0151C78.0001 95.3537 77.9363 95.7339 77.9363 96.1558C77.9363 96.5828 78.0014 96.9709 78.1316 97.3198C78.2644 97.6662 78.4597 97.9422 78.7175 98.1479C78.9779 98.3511 79.3009 98.4526 79.6863 98.4526ZM87.3464 99.1558V91.1558H92.1746V92.0151H88.3152V94.7183H91.9246V95.5776H88.3152V98.2964H92.2371V99.1558H87.3464ZM93.9207 91.1558H95.0769L97.7957 97.7964H97.8894L100.608 91.1558H101.764V99.1558H100.858V93.0776H100.78L98.28 99.1558H97.405L94.905 93.0776H94.8269V99.1558H93.9207V91.1558ZM104.676 91.1558V99.1558H103.707V91.1558H104.676Z" fill="black"/>
<path d="M22.2076 60.6245H51.1583V89.5803H22.2059L22.2076 60.6245ZM53.5949 58.187H19.769V92.0161H53.5949V58.187Z" fill="#9B1A26"/>
<path d="M25.406 63.8258H47.9579V69.4645H25.406V63.8258ZM25.406 80.7407H31.043V86.379H25.406V80.7407Z" fill="#9B1A26"/>
<path d="M25.406 72.2655H39.479V77.9204H25.406V72.2655Z" fill="#9B1A26"/>
<path d="M22.2076 60.6245H51.1583V89.5803H22.2059L22.2076 60.6245ZM53.5949 58.187H19.769V92.0161H53.5949V58.187Z" fill="#9B1A26"/>
<path d="M25.406 63.8258H47.9579V69.4645H25.406V63.8258ZM25.406 80.7407H31.043V86.379H25.406V80.7407Z" fill="#9B1A26"/>
<path d="M25.406 72.2655H39.479V77.9204H25.406V72.2655Z" fill="#9B1A26"/>
<path d="M18.5917 21.6147V11.4329H25.3332V13.2078H20.7444V15.6339H24.8858V17.4088H20.7444V21.6147H18.5917ZM28.8593 11.4329V21.6147H26.7414V11.4329H28.8593ZM32.7334 21.7589C32.2462 21.7589 31.812 21.6744 31.4309 21.5054C31.0497 21.333 30.7481 21.0795 30.526 20.7447C30.3073 20.4066 30.1979 19.9857 30.1979 19.4819C30.1979 19.0577 30.2758 18.7014 30.4316 18.413C30.5874 18.1247 30.7995 17.8927 31.0679 17.717C31.3364 17.5414 31.6413 17.4088 31.9827 17.3193C32.3274 17.2298 32.6887 17.1668 33.0665 17.1304C33.5106 17.084 33.8686 17.0409 34.1404 17.0011C34.4122 16.958 34.6094 16.895 34.732 16.8122C34.8546 16.7293 34.9159 16.6067 34.9159 16.4443V16.4145C34.9159 16.0996 34.8165 15.856 34.6177 15.6836C34.4221 15.5113 34.1437 15.4251 33.7824 15.4251C33.4013 15.4251 33.098 15.5096 32.8726 15.6787C32.6472 15.8444 32.4981 16.0532 32.4252 16.3051L30.4664 16.146C30.5658 15.682 30.7614 15.2809 31.053 14.9429C31.3447 14.6015 31.7209 14.3397 32.1816 14.1574C32.6456 13.9718 33.1825 13.879 33.7924 13.879C34.2166 13.879 34.6226 13.9287 35.0104 14.0281C35.4015 14.1275 35.7479 14.2816 36.0495 14.4905C36.3544 14.6993 36.5947 14.9677 36.7704 15.2959C36.946 15.6207 37.0338 16.0101 37.0338 16.4642V21.6147H35.0253V20.5558H34.9657C34.843 20.7944 34.679 21.0049 34.4735 21.1872C34.268 21.3662 34.0211 21.507 33.7327 21.6098C33.4444 21.7092 33.1113 21.7589 32.7334 21.7589ZM33.34 20.2973C33.6515 20.2973 33.9266 20.236 34.1652 20.1133C34.4039 19.9874 34.5911 19.8183 34.727 19.6062C34.8629 19.3941 34.9309 19.1538 34.9309 18.8853V18.075C34.8646 18.1181 34.7734 18.1578 34.6574 18.1943C34.5447 18.2274 34.4171 18.2589 34.2746 18.2888C34.1321 18.3153 33.9896 18.3401 33.8471 18.3633C33.7045 18.3832 33.5753 18.4014 33.4593 18.418C33.2107 18.4545 32.9936 18.5125 32.808 18.592C32.6224 18.6716 32.4782 18.7793 32.3755 18.9152C32.2727 19.0477 32.2213 19.2135 32.2213 19.4123C32.2213 19.7007 32.3258 19.9211 32.5346 20.0736C32.7467 20.2227 33.0151 20.2973 33.34 20.2973ZM42.7387 13.9784V15.5693H38.14V13.9784H42.7387ZM39.1841 12.1488H41.302V19.2682C41.302 19.4637 41.3318 19.6162 41.3914 19.7255C41.4511 19.8316 41.534 19.9062 41.64 19.9493C41.7494 19.9924 41.8753 20.0139 42.0179 20.0139C42.1173 20.0139 42.2167 20.0056 42.3162 19.989C42.4156 19.9691 42.4918 19.9542 42.5449 19.9443L42.878 21.5203C42.7719 21.5534 42.6227 21.5915 42.4305 21.6346C42.2383 21.681 42.0046 21.7092 41.7295 21.7191C41.2191 21.739 40.7717 21.6711 40.3872 21.5153C40.006 21.3595 39.7094 21.1176 39.4973 20.7895C39.2851 20.4613 39.1807 20.047 39.1841 19.5466V12.1488ZM51.7684 11.4329V21.6147H49.6157V13.4763H49.556L47.2244 14.9379V13.0288L49.745 11.4329H51.7684ZM58.1805 21.8385C57.3254 21.8352 56.5896 21.6247 55.9731 21.2071C55.36 20.7895 54.8877 20.1846 54.5562 19.3924C54.2281 18.6003 54.0657 17.6474 54.069 16.5338C54.069 15.4235 54.2331 14.4772 54.5612 13.695C54.8926 12.9128 55.3649 12.3179 55.9781 11.9102C56.5946 11.4992 57.3287 11.2937 58.1805 11.2937C59.0323 11.2937 59.7648 11.4992 60.378 11.9102C60.9944 12.3212 61.4684 12.9178 61.7998 13.7C62.1313 14.4789 62.2953 15.4235 62.292 16.5338C62.292 17.6507 62.1263 18.6053 61.7949 19.3974C61.4667 20.1896 60.9961 20.7944 60.3829 21.212C59.7698 21.6297 59.0356 21.8385 58.1805 21.8385ZM58.1805 20.0537C58.7638 20.0537 59.2295 19.7603 59.5775 19.1737C59.9255 18.587 60.0979 17.7071 60.0946 16.5338C60.0946 15.7615 60.015 15.1185 59.8559 14.6048C59.7002 14.0911 59.4781 13.7049 59.1897 13.4464C58.9047 13.1879 58.5683 13.0586 58.1805 13.0586C57.6005 13.0586 57.1365 13.3486 56.7885 13.9287C56.4405 14.5087 56.2648 15.3771 56.2615 16.5338C56.2615 17.316 56.3394 17.9689 56.4951 18.4926C56.6542 19.0129 56.878 19.404 57.1663 19.6659C57.4547 19.9244 57.7927 20.0537 58.1805 20.0537ZM69.4001 19.7057V19.1687C69.4001 18.7611 69.4863 18.3865 69.6587 18.0451C69.8343 17.7004 70.0879 17.4254 70.4193 17.2199C70.7541 17.0111 71.1617 16.9066 71.6423 16.9066C72.1296 16.9066 72.5389 17.0094 72.8703 17.2149C73.2051 17.4204 73.457 17.6955 73.626 18.0402C73.7983 18.3816 73.8845 18.7577 73.8845 19.1687V19.7057C73.8845 20.1133 73.7983 20.4895 73.626 20.8342C73.4537 21.1756 73.2001 21.449 72.8653 21.6545C72.5306 21.8633 72.1229 21.9677 71.6423 21.9677C71.1551 21.9677 70.7458 21.8633 70.4144 21.6545C70.0829 21.449 69.831 21.1756 69.6587 20.8342C69.4863 20.4895 69.4001 20.1133 69.4001 19.7057ZM70.8469 19.1687V19.7057C70.8469 19.941 70.9032 20.163 71.0159 20.3718C71.1319 20.5807 71.3407 20.6851 71.6423 20.6851C71.9439 20.6851 72.1494 20.5823 72.2588 20.3768C72.3715 20.1713 72.4278 19.9476 72.4278 19.7057V19.1687C72.4278 18.9268 72.3748 18.7014 72.2688 18.4926C72.1627 18.2838 71.9539 18.1794 71.6423 18.1794C71.344 18.1794 71.1369 18.2838 71.0209 18.4926C70.9049 18.7014 70.8469 18.9268 70.8469 19.1687ZM64.175 13.879V13.342C64.175 12.931 64.2628 12.5548 64.4385 12.2135C64.6142 11.8688 64.8677 11.5937 65.1992 11.3882C65.5339 11.1827 65.9383 11.0799 66.4122 11.0799C66.9028 11.0799 67.3137 11.1827 67.6452 11.3882C67.9766 11.5937 68.2285 11.8688 68.4009 12.2135C68.5732 12.5548 68.6594 12.931 68.6594 13.342V13.879C68.6594 14.2899 68.5715 14.6661 68.3959 15.0075C68.2235 15.3489 67.97 15.6223 67.6352 15.8278C67.3038 16.03 66.8961 16.1311 66.4122 16.1311C65.9283 16.1311 65.519 16.0283 65.1842 15.8228C64.8528 15.614 64.6009 15.3406 64.4286 15.0025C64.2595 14.6611 64.175 14.2866 64.175 13.879ZM65.6317 13.342V13.879C65.6317 14.1209 65.688 14.3446 65.8007 14.5501C65.9167 14.7556 66.1206 14.8584 66.4122 14.8584C66.7171 14.8584 66.9243 14.7556 67.0337 14.5501C67.1464 14.3446 67.2027 14.1209 67.2027 13.879V13.342C67.2027 13.1001 67.1497 12.8747 67.0436 12.6659C66.9376 12.4571 66.7271 12.3527 66.4122 12.3527C66.1172 12.3527 65.9134 12.4587 65.8007 12.6709C65.688 12.883 65.6317 13.1067 65.6317 13.342ZM64.8313 21.6147L71.8313 11.4329H73.1338L66.1338 21.6147H64.8313ZM82.5686 21.7639C81.7964 21.7639 81.1285 21.5998 80.5651 21.2717C80.005 20.9403 79.5724 20.4796 79.2675 19.8896C78.9626 19.2963 78.8101 18.6086 78.8101 17.8264C78.8101 17.0376 78.9626 16.3482 79.2675 15.7582C79.5724 15.1649 80.005 14.7042 80.5651 14.3761C81.1285 14.0447 81.7964 13.879 82.5686 13.879C83.3409 13.879 84.0071 14.0447 84.5672 14.3761C85.1307 14.7042 85.5649 15.1649 85.8698 15.7582C86.1747 16.3482 86.3272 17.0376 86.3272 17.8264C86.3272 18.6086 86.1747 19.2963 85.8698 19.8896C85.5649 20.4796 85.1307 20.9403 84.5672 21.2717C84.0071 21.5998 83.3409 21.7639 82.5686 21.7639ZM82.5786 20.1233C82.9299 20.1233 83.2232 20.0238 83.4586 19.825C83.6939 19.6228 83.8712 19.3477 83.9905 18.9997C84.1132 18.6517 84.1745 18.2556 84.1745 17.8115C84.1745 17.3674 84.1132 16.9713 83.9905 16.6233C83.8712 16.2753 83.6939 16.0002 83.4586 15.798C83.2232 15.5958 82.9299 15.4947 82.5786 15.4947C82.224 15.4947 81.9257 15.5958 81.6837 15.798C81.4451 16.0002 81.2644 16.2753 81.1418 16.6233C81.0225 16.9713 80.9628 17.3674 80.9628 17.8115C80.9628 18.2556 81.0225 18.6517 81.1418 18.9997C81.2644 19.3477 81.4451 19.6228 81.6837 19.825C81.9257 20.0238 82.224 20.1233 82.5786 20.1233ZM91.8108 13.9784V15.5693H87.0978V13.9784H91.8108ZM88.1766 21.6147V13.4265C88.1766 12.873 88.2843 12.414 88.4998 12.0494C88.7185 11.6848 89.0168 11.4114 89.3946 11.2291C89.7725 11.0468 90.2017 10.9557 90.6823 10.9557C91.0071 10.9557 91.3037 10.9805 91.5722 11.0302C91.844 11.0799 92.0462 11.1247 92.1787 11.1645L91.8009 12.7554C91.718 12.7289 91.6153 12.704 91.4927 12.6808C91.3733 12.6576 91.2507 12.646 91.1248 12.646C90.8132 12.646 90.5961 12.7189 90.4735 12.8647C90.3508 13.0073 90.2895 13.2078 90.2895 13.4663V21.6147H88.1766ZM97.2112 13.9784V15.5693H92.4982V13.9784H97.2112ZM93.577 21.6147V13.4265C93.577 12.873 93.6847 12.414 93.9001 12.0494C94.1189 11.6848 94.4172 11.4114 94.795 11.2291C95.1729 11.0468 95.6021 10.9557 96.0827 10.9557C96.4075 10.9557 96.7041 10.9805 96.9726 11.0302C97.2444 11.0799 97.4465 11.1247 97.5791 11.1645L97.2013 12.7554C97.1184 12.7289 97.0157 12.704 96.893 12.6808C96.7737 12.6576 96.6511 12.646 96.5251 12.646C96.2136 12.646 95.9965 12.7189 95.8739 12.8647C95.7512 13.0073 95.6899 13.2078 95.6899 13.4663V21.6147H93.577ZM104.768 20.0636V13.0238H106.548V20.0636H104.768ZM102.138 17.4336V15.6538H109.178V17.4336H102.138ZM118.245 21.754C117.502 21.754 116.841 21.6263 116.261 21.3711C115.684 21.1126 115.229 20.758 114.894 20.3072C114.562 19.8531 114.392 19.3295 114.382 18.7362H116.549C116.563 18.9848 116.644 19.2035 116.793 19.3924C116.946 19.5781 117.148 19.7222 117.4 19.825C117.652 19.9277 117.935 19.9791 118.25 19.9791C118.578 19.9791 118.868 19.9211 119.12 19.8051C119.372 19.6891 119.569 19.5283 119.711 19.3228C119.854 19.1174 119.925 18.8804 119.925 18.6119C119.925 18.3401 119.849 18.0998 119.696 17.891C119.547 17.6789 119.332 17.5132 119.05 17.3939C118.772 17.2745 118.44 17.2149 118.056 17.2149H117.106V15.6339H118.056C118.381 15.6339 118.667 15.5776 118.916 15.4649C119.168 15.3522 119.363 15.1964 119.503 14.9976C119.642 14.7954 119.711 14.5601 119.711 14.2916C119.711 14.0364 119.65 13.8127 119.527 13.6204C119.408 13.4249 119.239 13.2724 119.02 13.163C118.805 13.0537 118.553 12.999 118.265 12.999C117.973 12.999 117.706 13.052 117.464 13.1581C117.222 13.2608 117.028 13.4083 116.883 13.6005C116.737 13.7928 116.659 14.0182 116.649 14.2767H114.586C114.596 13.69 114.763 13.173 115.088 12.7255C115.413 12.2781 115.85 11.9284 116.4 11.6765C116.954 11.4213 117.579 11.2937 118.275 11.2937C118.977 11.2937 119.592 11.4213 120.119 11.6765C120.646 11.9317 121.055 12.2764 121.347 12.7106C121.642 13.1415 121.788 13.6254 121.785 14.1623C121.788 14.7324 121.611 15.208 121.253 15.5892C120.898 15.9703 120.436 16.2123 119.866 16.315V16.3946C120.615 16.4907 121.185 16.7509 121.576 17.1751C121.97 17.596 122.166 18.123 122.162 18.7561C122.166 19.3361 121.998 19.8515 121.66 20.3022C121.326 20.753 120.863 21.1076 120.273 21.3662C119.683 21.6247 119.007 21.754 118.245 21.754ZM126.97 21.6147V13.9784H128.988V15.3257H129.078C129.237 14.8782 129.502 14.5253 129.873 14.2667C130.245 14.0082 130.689 13.879 131.206 13.879C131.729 13.879 132.175 14.0099 132.543 14.2717C132.911 14.5302 133.156 14.8816 133.279 15.3257H133.358C133.514 14.8882 133.796 14.5385 134.204 14.2767C134.615 14.0115 135.1 13.879 135.66 13.879C136.373 13.879 136.951 14.106 137.395 14.5601C137.843 15.0108 138.067 15.6505 138.067 16.4791V21.6147H135.954V16.8967C135.954 16.4725 135.841 16.1543 135.616 15.9422C135.39 15.73 135.108 15.624 134.77 15.624C134.386 15.624 134.086 15.7466 133.87 15.9919C133.655 16.2338 133.547 16.5537 133.547 16.9514V21.6147H131.494V16.852C131.494 16.4774 131.386 16.1791 131.171 15.9571C130.959 15.735 130.679 15.624 130.331 15.624C130.095 15.624 129.883 15.6836 129.694 15.803C129.509 15.919 129.361 16.083 129.252 16.2951C129.143 16.504 129.088 16.7492 129.088 17.0309V21.6147H126.97ZM143.19 21.7639C142.417 21.7639 141.75 21.5998 141.186 21.2717C140.626 20.9403 140.194 20.4796 139.889 19.8896C139.584 19.2963 139.431 18.6086 139.431 17.8264C139.431 17.0376 139.584 16.3482 139.889 15.7582C140.194 15.1649 140.626 14.7042 141.186 14.3761C141.75 14.0447 142.417 13.879 143.19 13.879C143.962 13.879 144.628 14.0447 145.188 14.3761C145.752 14.7042 146.186 15.1649 146.491 15.7582C146.796 16.3482 146.948 17.0376 146.948 17.8264C146.948 18.6086 146.796 19.2963 146.491 19.8896C146.186 20.4796 145.752 20.9403 145.188 21.2717C144.628 21.5998 143.962 21.7639 143.19 21.7639ZM143.2 20.1233C143.551 20.1233 143.844 20.0238 144.08 19.825C144.315 19.6228 144.492 19.3477 144.612 18.9997C144.734 18.6517 144.796 18.2556 144.796 17.8115C144.796 17.3674 144.734 16.9713 144.612 16.6233C144.492 16.2753 144.315 16.0002 144.08 15.798C143.844 15.5958 143.551 15.4947 143.2 15.4947C142.845 15.4947 142.547 15.5958 142.305 15.798C142.066 16.0002 141.886 16.2753 141.763 16.6233C141.644 16.9713 141.584 17.3674 141.584 17.8115C141.584 18.2556 141.644 18.6517 141.763 18.9997C141.886 19.3477 142.066 19.6228 142.305 19.825C142.547 20.0238 142.845 20.1233 143.2 20.1233ZM150.443 17.2V21.6147H148.325V13.9784H150.344V15.3257H150.433C150.602 14.8816 150.886 14.5302 151.283 14.2717C151.681 14.0099 152.163 13.879 152.73 13.879C153.261 13.879 153.723 13.995 154.117 14.227C154.512 14.459 154.818 14.7904 155.037 15.2213C155.256 15.6488 155.365 16.1593 155.365 16.7525V21.6147H153.247V17.1304C153.251 16.663 153.131 16.2985 152.889 16.0366C152.647 15.7715 152.314 15.6389 151.89 15.6389C151.605 15.6389 151.353 15.7002 151.134 15.8228C150.919 15.9455 150.75 16.1245 150.627 16.3598C150.508 16.5918 150.447 16.8718 150.443 17.2ZM161.096 13.9784V15.5693H156.497V13.9784H161.096ZM157.541 12.1488H159.659V19.2682C159.659 19.4637 159.689 19.6162 159.749 19.7255C159.809 19.8316 159.891 19.9062 159.997 19.9493C160.107 19.9924 160.233 20.0139 160.375 20.0139C160.475 20.0139 160.574 20.0056 160.674 19.989C160.773 19.9691 160.849 19.9542 160.902 19.9443L161.235 21.5203C161.129 21.5534 160.98 21.5915 160.788 21.6346C160.596 21.681 160.362 21.7092 160.087 21.7191C159.577 21.739 159.129 21.6711 158.745 21.5153C158.363 21.3595 158.067 21.1176 157.855 20.7895C157.643 20.4613 157.538 20.047 157.541 19.5466V12.1488ZM164.758 17.2V21.6147H162.64V11.4329H164.698V15.3257H164.788C164.96 14.8749 165.238 14.5219 165.623 14.2667C166.007 14.0082 166.49 13.879 167.07 13.879C167.6 13.879 168.062 13.995 168.457 14.227C168.854 14.4557 169.163 14.7854 169.381 15.2163C169.603 15.6439 169.713 16.1559 169.709 16.7525V21.6147H167.592V17.1304C167.595 16.6597 167.476 16.2935 167.234 16.0316C166.995 15.7698 166.66 15.6389 166.229 15.6389C165.941 15.6389 165.686 15.7002 165.464 15.8228C165.245 15.9455 165.073 16.1245 164.947 16.3598C164.824 16.5918 164.761 16.8718 164.758 17.2ZM177.73 16.1559L175.791 16.2753C175.758 16.1095 175.687 15.9604 175.577 15.8278C175.468 15.6919 175.324 15.5842 175.145 15.5047C174.969 15.4218 174.759 15.3804 174.513 15.3804C174.185 15.3804 173.908 15.45 173.683 15.5892C173.458 15.7251 173.345 15.9074 173.345 16.1361C173.345 16.3183 173.418 16.4725 173.564 16.5984C173.71 16.7244 173.96 16.8254 174.314 16.9017L175.696 17.1801C176.439 17.3325 176.992 17.5778 177.357 17.9159C177.722 18.254 177.904 18.6981 177.904 19.2483C177.904 19.7487 177.756 20.1879 177.461 20.5657C177.17 20.9436 176.769 21.2386 176.258 21.4507C175.751 21.6595 175.166 21.7639 174.503 21.7639C173.492 21.7639 172.687 21.5534 172.087 21.1325C171.491 20.7083 171.141 20.1316 171.038 19.4024L173.121 19.293C173.184 19.6013 173.337 19.8366 173.579 19.999C173.821 20.1581 174.13 20.2376 174.508 20.2376C174.879 20.2376 175.178 20.1664 175.403 20.0238C175.632 19.878 175.748 19.6907 175.751 19.462C175.748 19.2698 175.667 19.1124 175.508 18.9897C175.348 18.8638 175.103 18.7677 174.772 18.7014L173.449 18.4379C172.704 18.2888 172.148 18.0302 171.784 17.6623C171.423 17.2944 171.242 16.8254 171.242 16.2554C171.242 15.7648 171.375 15.3423 171.64 14.9876C171.908 14.633 172.284 14.3595 172.768 14.1673C173.255 13.9751 173.826 13.879 174.478 13.879C175.443 13.879 176.202 14.0828 176.755 14.4905C177.312 14.8981 177.637 15.4533 177.73 16.1559ZM191.034 11.4329V21.6147H189.174L184.745 15.2064H184.67V21.6147H182.518V11.4329H184.407L188.802 17.8363H188.891V11.4329H191.034ZM196.223 21.7639C195.451 21.7639 194.783 21.5998 194.219 21.2717C193.659 20.9403 193.227 20.4796 192.922 19.8896C192.617 19.2963 192.464 18.6086 192.464 17.8264C192.464 17.0376 192.617 16.3482 192.922 15.7582C193.227 15.1649 193.659 14.7042 194.219 14.3761C194.783 14.0447 195.451 13.879 196.223 13.879C196.995 13.879 197.661 14.0447 198.222 14.3761C198.785 14.7042 199.219 15.1649 199.524 15.7582C199.829 16.3482 199.981 17.0376 199.981 17.8264C199.981 18.6086 199.829 19.2963 199.524 19.8896C199.219 20.4796 198.785 20.9403 198.222 21.2717C197.661 21.5998 196.995 21.7639 196.223 21.7639ZM196.233 20.1233C196.584 20.1233 196.878 20.0238 197.113 19.825C197.348 19.6228 197.526 19.3477 197.645 18.9997C197.767 18.6517 197.829 18.2556 197.829 17.8115C197.829 17.3674 197.767 16.9713 197.645 16.6233C197.526 16.2753 197.348 16.0002 197.113 15.798C196.878 15.5958 196.584 15.4947 196.233 15.4947C195.878 15.4947 195.58 15.5958 195.338 15.798C195.099 16.0002 194.919 16.2753 194.796 16.6233C194.677 16.9713 194.617 17.3674 194.617 17.8115C194.617 18.2556 194.677 18.6517 194.796 18.9997C194.919 19.3477 195.099 19.6228 195.338 19.825C195.58 20.0238 195.878 20.1233 196.233 20.1233ZM27.5754 35.9976H25.3978C25.3581 35.7158 25.2769 35.4656 25.1542 35.2468C25.0316 35.0248 24.8742 34.8359 24.6819 34.6801C24.4897 34.5243 24.2676 34.405 24.0157 34.3221C23.7672 34.2393 23.497 34.1978 23.2054 34.1978C22.6784 34.1978 22.2193 34.3288 21.8282 34.5906C21.4371 34.8491 21.1339 35.227 20.9184 35.7241C20.703 36.218 20.5953 36.8179 20.5953 37.5238C20.5953 38.2497 20.703 38.8595 20.9184 39.3534C21.1372 39.8472 21.4421 40.2201 21.8332 40.472C22.2243 40.7239 22.6767 40.8498 23.1905 40.8498C23.4788 40.8498 23.7456 40.8117 23.9909 40.7355C24.2395 40.6593 24.4599 40.5482 24.6521 40.4024C24.8443 40.2532 25.0034 40.0726 25.1294 39.8605C25.2586 39.6484 25.3481 39.4064 25.3978 39.1346L27.5754 39.1446C27.5191 39.6119 27.3782 40.0627 27.1528 40.4968C26.9307 40.9277 26.6308 41.3138 26.253 41.6552C25.8784 41.9933 25.431 42.2618 24.9106 42.4606C24.3936 42.6562 23.8086 42.754 23.1557 42.754C22.2475 42.754 21.4355 42.5485 20.7196 42.1375C20.007 41.7265 19.4435 41.1316 19.0292 40.3527C18.6182 39.5738 18.4128 38.6308 18.4128 37.5238C18.4128 36.4135 18.6216 35.4689 19.0392 34.69C19.4568 33.9111 20.0235 33.3179 20.7395 32.9102C21.4554 32.4992 22.2608 32.2937 23.1557 32.2937C23.7456 32.2937 24.2925 32.3766 24.7963 32.5423C25.3034 32.708 25.7525 32.95 26.1436 33.2682C26.5347 33.583 26.8529 33.9691 27.0981 34.4265C27.3467 34.8839 27.5058 35.4076 27.5754 35.9976ZM32.5296 42.7639C31.7573 42.7639 31.0895 42.5998 30.526 42.2717C29.9659 41.9403 29.5334 41.4796 29.2284 40.8896C28.9235 40.2963 28.7711 39.6086 28.7711 38.8264C28.7711 38.0376 28.9235 37.3482 29.2284 36.7582C29.5334 36.1649 29.9659 35.7042 30.526 35.3761C31.0895 35.0447 31.7573 34.879 32.5296 34.879C33.3018 34.879 33.968 35.0447 34.5282 35.3761C35.0916 35.7042 35.5258 36.1649 35.8307 36.7582C36.1356 37.3482 36.2881 38.0376 36.2881 38.8264C36.2881 39.6086 36.1356 40.2963 35.8307 40.8896C35.5258 41.4796 35.0916 41.9403 34.5282 42.2717C33.968 42.5998 33.3018 42.7639 32.5296 42.7639ZM32.5395 41.1233C32.8909 41.1233 33.1842 41.0238 33.4195 40.825C33.6548 40.6228 33.8321 40.3477 33.9515 39.9997C34.0741 39.6517 34.1354 39.2556 34.1354 38.8115C34.1354 38.3674 34.0741 37.9713 33.9515 37.6233C33.8321 37.2753 33.6548 37.0002 33.4195 36.798C33.1842 36.5958 32.8909 36.4947 32.5395 36.4947C32.1849 36.4947 31.8866 36.5958 31.6446 36.798C31.406 37.0002 31.2254 37.2753 31.1027 37.6233C30.9834 37.9713 30.9238 38.3674 30.9238 38.8115C30.9238 39.2556 30.9834 39.6517 31.1027 39.9997C31.2254 40.3477 31.406 40.6228 31.6446 40.825C31.8866 41.0238 32.1849 41.1233 32.5395 41.1233ZM44.0189 37.1559L42.08 37.2753C42.0469 37.1095 41.9756 36.9604 41.8662 36.8278C41.7569 36.6919 41.6127 36.5842 41.4337 36.5047C41.258 36.4218 41.0476 36.3804 40.8023 36.3804C40.4742 36.3804 40.1974 36.45 39.9721 36.5892C39.7467 36.7251 39.634 36.9074 39.634 37.1361C39.634 37.3183 39.7069 37.4725 39.8527 37.5984C39.9986 37.7244 40.2488 37.8254 40.6034 37.9017L41.9856 38.1801C42.728 38.3325 43.2815 38.5778 43.6461 38.9159C44.0106 39.254 44.1929 39.6981 44.1929 40.2483C44.1929 40.7487 44.0454 41.1879 43.7505 41.5657C43.4588 41.9436 43.0578 42.2386 42.5473 42.4507C42.0402 42.6595 41.4552 42.7639 40.7924 42.7639C39.7815 42.7639 38.9761 42.5534 38.3762 42.1325C37.7796 41.7083 37.4299 41.1316 37.3272 40.4024L39.4103 40.293C39.4732 40.6013 39.6257 40.8366 39.8677 40.999C40.1096 41.1581 40.4195 41.2376 40.7973 41.2376C41.1686 41.2376 41.4668 41.1664 41.6922 41.0238C41.9209 40.878 42.0369 40.6907 42.0402 40.462C42.0369 40.2698 41.9557 40.1124 41.7966 39.9897C41.6375 39.8638 41.3923 39.7677 41.0608 39.7014L39.7384 39.4379C38.9927 39.2888 38.4375 39.0302 38.0729 38.6623C37.7116 38.2944 37.531 37.8254 37.531 37.2554C37.531 36.7648 37.6636 36.3423 37.9287 35.9876C38.1972 35.633 38.5734 35.3595 39.0573 35.1673C39.5445 34.9751 40.1146 34.879 40.7675 34.879C41.732 34.879 42.491 35.0828 43.0445 35.4905C43.6013 35.8981 43.9261 36.4533 44.0189 37.1559ZM49.5884 34.9784V36.5693H44.9896V34.9784H49.5884ZM46.0337 33.1488H48.1516V40.2682C48.1516 40.4637 48.1814 40.6162 48.2411 40.7255C48.3007 40.8316 48.3836 40.9062 48.4896 40.9493C48.599 40.9924 48.725 41.0139 48.8675 41.0139C48.9669 41.0139 49.0663 41.0056 49.1658 40.989C49.2652 40.9691 49.3414 40.9542 49.3945 40.9443L49.7276 42.5203C49.6215 42.5534 49.4724 42.5915 49.2801 42.6346C49.0879 42.681 48.8542 42.7092 48.5791 42.7191C48.0687 42.739 47.6213 42.6711 47.2368 42.5153C46.8556 42.3595 46.559 42.1176 46.3469 41.7895C46.1348 41.4613 46.0304 41.047 46.0337 40.5466V33.1488ZM54.248 42.6147V32.4329H61.1088V34.2078H56.4007V36.6339H60.7558V38.4088H56.4007V40.8399H61.1287V42.6147H54.248ZM62.8202 32.4329H65.4751L68.2791 39.2738H68.3984L71.2023 32.4329H73.8572V42.6147H71.7691V35.9876H71.6846L69.0496 42.565H67.6278L64.9928 35.9628H64.9083V42.6147H62.8202V32.4329ZM77.7835 32.4329V42.6147H75.6308V32.4329H77.7835Z" fill="black"/>
</svg>
