<svg width="215" height="108" viewBox="0 0 215 108" fill="none" xmlns="http://www.w3.org/2000/svg">
<rect x="0.490967" width="210.729" height="107.213" rx="10" fill="#DEF4FF"/>
<path d="M68.2592 58.6385H66.5973C66.5334 58.2834 66.4144 57.9709 66.2404 57.701C66.0664 57.4311 65.8533 57.2021 65.6012 57.0138C65.3491 56.8256 65.0668 56.6836 64.7543 56.5877C64.4453 56.4918 64.1168 56.4439 63.7688 56.4439C63.1403 56.4439 62.5774 56.6019 62.0803 56.918C61.5866 57.234 61.196 57.6974 60.9084 58.3082C60.6243 58.919 60.4822 59.6648 60.4822 60.5455C60.4822 61.4332 60.6243 62.1825 60.9084 62.7933C61.196 63.4041 61.5884 63.8658 62.0856 64.1783C62.5827 64.4908 63.142 64.647 63.7635 64.647C64.108 64.647 64.4347 64.6009 64.7436 64.5085C65.0561 64.4126 65.3384 64.2724 65.5906 64.0877C65.8427 63.9031 66.0558 63.6776 66.2298 63.4112C66.4073 63.1413 66.5298 62.8324 66.5973 62.4844L68.2592 62.4897C68.1705 63.0259 67.9982 63.5195 67.7425 63.9705C67.4904 64.418 67.1655 64.805 66.7678 65.1317C66.3736 65.4549 65.9226 65.7053 65.4148 65.8828C64.907 66.0604 64.353 66.1491 63.7528 66.1491C62.8082 66.1491 61.9666 65.9254 61.228 65.478C60.4893 65.027 59.907 64.3825 59.4808 63.5444C59.0582 62.7063 58.8469 61.7067 58.8469 60.5455C58.8469 59.3807 59.06 58.381 59.4862 57.5465C59.9123 56.7085 60.4947 56.0657 61.2333 55.6183C61.9719 55.1673 62.8118 54.9418 63.7528 54.9418C64.3317 54.9418 64.8714 55.0252 65.3722 55.1921C65.8764 55.3555 66.3292 55.5969 66.7305 55.9165C67.1317 56.2326 67.4638 56.6197 67.7266 57.0778C67.9893 57.5323 68.1669 58.0526 68.2592 58.6385ZM69.6908 56.5078V55.0909H78.1336V56.5078H74.7298V66H73.0892V56.5078H69.6908ZM79.9993 66V55.0909H86.7642V56.5078H81.6452V59.8317H86.2795V61.2433H81.6452V66H79.9993ZM88.7884 66V55.0909H90.4343V60.3004H90.5675L95.1431 55.0909H97.2152L92.8153 60.0021L97.2312 66H95.2496L91.7234 61.1261L90.4343 62.6069V66H88.7884ZM99.6708 66H97.9237L101.849 55.0909H103.751L107.677 66H105.93L102.846 57.0724H102.76L99.6708 66ZM99.9638 61.728H105.631V63.1129H99.9638V61.728ZM110.397 55.0909L113.008 59.3576H113.093L115.703 55.0909H117.61L114.211 60.5455L117.631 66H115.714L113.093 61.7919H113.008L110.387 66H108.469L111.948 60.5455L108.491 55.0909H110.397ZM120.888 55.0909V66H119.242V55.0909H120.888ZM129.235 57.9567C129.179 57.4524 128.944 57.0618 128.532 56.7848C128.12 56.5043 127.602 56.364 126.977 56.364C126.529 56.364 126.142 56.435 125.816 56.5771C125.489 56.7156 125.235 56.9073 125.054 57.1523C124.876 57.3938 124.788 57.669 124.788 57.978C124.788 58.2372 124.848 58.4609 124.969 58.6491C125.093 58.8374 125.255 58.9954 125.453 59.1232C125.656 59.2475 125.872 59.3523 126.103 59.4375C126.334 59.5192 126.556 59.5866 126.769 59.6399L127.834 59.9169C128.182 60.0021 128.539 60.1175 128.905 60.2631C129.271 60.4087 129.61 60.6005 129.922 60.8384C130.235 61.0763 130.487 61.3711 130.679 61.7227C130.874 62.0742 130.972 62.495 130.972 62.9851C130.972 63.603 130.812 64.1516 130.492 64.631C130.176 65.1104 129.717 65.4886 129.113 65.7656C128.513 66.0426 127.786 66.1811 126.934 66.1811C126.117 66.1811 125.411 66.0515 124.814 65.7923C124.218 65.533 123.751 65.1655 123.413 64.6896C123.076 64.2102 122.889 63.642 122.854 62.9851H124.505C124.537 63.3793 124.665 63.7077 124.889 63.9705C125.116 64.2298 125.405 64.4233 125.757 64.5511C126.112 64.6754 126.501 64.7376 126.924 64.7376C127.389 64.7376 127.802 64.6648 128.165 64.5192C128.53 64.37 128.818 64.1641 129.028 63.9013C129.237 63.6349 129.342 63.3242 129.342 62.9691C129.342 62.646 129.25 62.3814 129.065 62.1754C128.884 61.9695 128.637 61.799 128.324 61.6641C128.016 61.5291 127.666 61.4102 127.275 61.3072L125.986 60.9556C125.112 60.7177 124.42 60.3679 123.909 59.9062C123.401 59.4446 123.147 58.8338 123.147 58.0739C123.147 57.4453 123.317 56.8967 123.658 56.4279C123.999 55.9592 124.461 55.5952 125.043 55.3359C125.626 55.0732 126.283 54.9418 127.014 54.9418C127.753 54.9418 128.404 55.0714 128.969 55.3306C129.537 55.5898 129.985 55.9467 130.311 56.4013C130.638 56.8523 130.809 57.3707 130.823 57.9567H129.235Z" fill="black"/>
<path d="M60.3374 82.1558L58.5093 76.1558H59.478L60.7749 80.7495H60.8374L62.1187 76.1558H63.103L64.3687 80.7339H64.4312L65.728 76.1558H66.6968L64.8687 82.1558H63.9624L62.6499 77.5464H62.5562L61.2437 82.1558H60.3374ZM67.9155 82.1558V76.1558H68.8374V82.1558H67.9155ZM68.3843 75.1558C68.2046 75.1558 68.0496 75.0946 67.9194 74.9722C67.7918 74.8498 67.728 74.7026 67.728 74.5308C67.728 74.3589 67.7918 74.2118 67.9194 74.0894C68.0496 73.967 68.2046 73.9058 68.3843 73.9058C68.564 73.9058 68.7176 73.967 68.8452 74.0894C68.9754 74.2118 69.0405 74.3589 69.0405 74.5308C69.0405 74.7026 68.9754 74.8498 68.8452 74.9722C68.7176 75.0946 68.564 75.1558 68.3843 75.1558ZM73.1353 76.1558V76.937H70.0259V76.1558H73.1353ZM70.9321 74.7183H71.854V80.437C71.854 80.6974 71.8918 80.8927 71.9673 81.0229C72.0454 81.1506 72.1444 81.2365 72.2642 81.2808C72.3866 81.3224 72.5155 81.3433 72.6509 81.3433C72.7524 81.3433 72.8358 81.3381 72.9009 81.3276C72.966 81.3146 73.0181 81.3042 73.0571 81.2964L73.2446 82.1245C73.1821 82.1479 73.0949 82.1714 72.9829 82.1948C72.8709 82.2209 72.729 82.2339 72.5571 82.2339C72.2967 82.2339 72.0415 82.1779 71.7915 82.0659C71.5441 81.9539 71.3384 81.7834 71.1743 81.5542C71.0129 81.325 70.9321 81.036 70.9321 80.687V74.7183ZM75.5728 78.5464V82.1558H74.6509V74.1558H75.5728V77.0933H75.6509C75.7915 76.7834 76.0024 76.5373 76.2837 76.355C76.5675 76.1701 76.9451 76.0776 77.4165 76.0776C77.8254 76.0776 78.1834 76.1597 78.4907 76.3237C78.798 76.4852 79.0363 76.7339 79.2056 77.0698C79.3774 77.4032 79.4634 77.8276 79.4634 78.3433V82.1558H78.5415V78.4058C78.5415 77.9292 78.4178 77.5607 78.1704 77.3003C77.9256 77.0373 77.5858 76.9058 77.1509 76.9058C76.8488 76.9058 76.578 76.9696 76.3384 77.0972C76.1014 77.2248 75.9139 77.411 75.7759 77.6558C75.6405 77.9006 75.5728 78.1974 75.5728 78.5464ZM85.3374 74.1558V82.1558H84.3687V74.1558H85.3374ZM89.7485 82.1558H87.2798V74.1558H89.8579C90.634 74.1558 91.298 74.3159 91.8501 74.6362C92.4022 74.9539 92.8254 75.411 93.1196 76.0073C93.4139 76.6011 93.561 77.312 93.561 78.1401C93.561 78.9735 93.4126 79.6909 93.1157 80.2925C92.8188 80.8914 92.3866 81.3524 91.8188 81.6753C91.2511 81.9956 90.561 82.1558 89.7485 82.1558ZM88.2485 81.2964H89.686C90.3475 81.2964 90.8957 81.1688 91.3306 80.9136C91.7655 80.6584 92.0897 80.2951 92.3032 79.8237C92.5168 79.3524 92.6235 78.7912 92.6235 78.1401C92.6235 77.4943 92.5181 76.9383 92.3071 76.4722C92.0962 76.0034 91.7811 75.644 91.3618 75.394C90.9425 75.1414 90.4204 75.0151 89.7954 75.0151H88.2485V81.2964ZM95.186 82.1558V74.1558H99.9829V75.0151H96.1548V77.7183H99.6235V78.5776H96.1548V82.1558H95.186ZM108.08 76.6558H107.111C107.054 76.3771 106.953 76.1323 106.81 75.9214C106.669 75.7104 106.498 75.5334 106.294 75.3901C106.094 75.2443 105.871 75.1349 105.626 75.062C105.382 74.9891 105.126 74.9526 104.861 74.9526C104.376 74.9526 103.938 75.075 103.544 75.3198C103.154 75.5646 102.843 75.9253 102.611 76.4019C102.382 76.8784 102.267 77.4631 102.267 78.1558C102.267 78.8485 102.382 79.4331 102.611 79.9097C102.843 80.3862 103.154 80.7469 103.544 80.9917C103.938 81.2365 104.376 81.3589 104.861 81.3589C105.126 81.3589 105.382 81.3224 105.626 81.2495C105.871 81.1766 106.094 81.0685 106.294 80.9253C106.498 80.7795 106.669 80.6011 106.81 80.3901C106.953 80.1766 107.054 79.9318 107.111 79.6558H108.08C108.007 80.0646 107.874 80.4305 107.681 80.7534C107.488 81.0763 107.249 81.3511 106.962 81.5776C106.676 81.8016 106.354 81.9722 105.998 82.0894C105.643 82.2065 105.264 82.2651 104.861 82.2651C104.179 82.2651 103.572 82.0985 103.041 81.7651C102.509 81.4318 102.091 80.9578 101.787 80.3433C101.482 79.7287 101.33 78.9995 101.33 78.1558C101.33 77.312 101.482 76.5828 101.787 75.9683C102.091 75.3537 102.509 74.8797 103.041 74.5464C103.572 74.2131 104.179 74.0464 104.861 74.0464C105.264 74.0464 105.643 74.105 105.998 74.2222C106.354 74.3394 106.676 74.5112 106.962 74.7378C107.249 74.9618 107.488 75.2352 107.681 75.5581C107.874 75.8784 108.007 76.2443 108.08 76.6558ZM112.739 82.1558V74.1558H117.536V75.0151H113.708V77.7183H117.176V78.5776H113.708V82.1558H112.739ZM120.164 74.1558V82.1558H119.195V74.1558H120.164ZM122.106 82.1558V74.1558H124.809C125.434 74.1558 125.947 74.2625 126.348 74.4761C126.749 74.687 127.046 74.9774 127.239 75.3472C127.431 75.717 127.528 76.1375 127.528 76.6089C127.528 77.0802 127.431 77.4982 127.239 77.8628C127.046 78.2274 126.75 78.5138 126.352 78.7222C125.954 78.9279 125.444 79.0308 124.825 79.0308H122.637V78.1558H124.793C125.221 78.1558 125.564 78.0933 125.825 77.9683C126.088 77.8433 126.278 77.6662 126.395 77.437C126.515 77.2052 126.575 76.9292 126.575 76.6089C126.575 76.2886 126.515 76.0086 126.395 75.769C126.275 75.5295 126.084 75.3446 125.821 75.2144C125.558 75.0815 125.21 75.0151 124.778 75.0151H123.075V82.1558H122.106ZM125.872 78.562L127.84 82.1558H126.715L124.778 78.562H125.872ZM133.517 76.1558C133.47 75.7599 133.28 75.4526 132.947 75.2339C132.613 75.0151 132.205 74.9058 131.72 74.9058C131.366 74.9058 131.056 74.9631 130.791 75.0776C130.528 75.1922 130.322 75.3498 130.173 75.5503C130.028 75.7508 129.955 75.9787 129.955 76.2339C129.955 76.4474 130.005 76.631 130.107 76.7847C130.211 76.9357 130.344 77.062 130.505 77.1636C130.667 77.2625 130.836 77.3446 131.013 77.4097C131.19 77.4722 131.353 77.5229 131.501 77.562L132.314 77.7808C132.522 77.8354 132.754 77.911 133.009 78.0073C133.267 78.1037 133.513 78.2352 133.748 78.4019C133.985 78.5659 134.18 78.7769 134.333 79.0347C134.487 79.2925 134.564 79.6089 134.564 79.9839C134.564 80.4162 134.451 80.8068 134.224 81.1558C134 81.5047 133.672 81.7821 133.24 81.9878C132.81 82.1935 132.288 82.2964 131.673 82.2964C131.1 82.2964 130.604 82.2039 130.185 82.019C129.768 81.8341 129.44 81.5763 129.201 81.2456C128.964 80.9149 128.83 80.5308 128.798 80.0933H129.798C129.824 80.3953 129.926 80.6453 130.103 80.8433C130.283 81.0386 130.509 81.1844 130.783 81.2808C131.059 81.3745 131.356 81.4214 131.673 81.4214C132.043 81.4214 132.375 81.3615 132.669 81.2417C132.964 81.1193 133.197 80.95 133.369 80.7339C133.541 80.5151 133.626 80.2599 133.626 79.9683C133.626 79.7026 133.552 79.4865 133.404 79.3198C133.255 79.1532 133.06 79.0177 132.818 78.9136C132.576 78.8094 132.314 78.7183 132.033 78.6401L131.048 78.3589C130.423 78.1792 129.929 77.9227 129.564 77.5894C129.199 77.256 129.017 76.8198 129.017 76.2808C129.017 75.8328 129.138 75.4422 129.38 75.1089C129.625 74.7729 129.953 74.5125 130.365 74.3276C130.779 74.1401 131.241 74.0464 131.751 74.0464C132.267 74.0464 132.725 74.1388 133.126 74.3237C133.528 74.506 133.845 74.756 134.08 75.0737C134.317 75.3914 134.442 75.7521 134.455 76.1558H133.517ZM135.719 75.0151V74.1558H141.719V75.0151H139.204V82.1558H138.235V75.0151H135.719ZM146.308 82.1558V74.1558H149.105C149.662 74.1558 150.122 74.2521 150.484 74.4448C150.846 74.6349 151.115 74.8914 151.292 75.2144C151.47 75.5347 151.558 75.8901 151.558 76.2808C151.558 76.6245 151.497 76.9084 151.375 77.1323C151.255 77.3563 151.096 77.5334 150.898 77.6636C150.703 77.7938 150.49 77.8901 150.261 77.9526V78.0308C150.506 78.0464 150.752 78.1323 151 78.2886C151.247 78.4448 151.454 78.6688 151.621 78.9604C151.787 79.2521 151.871 79.6089 151.871 80.0308C151.871 80.4318 151.779 80.7925 151.597 81.1128C151.415 81.4331 151.127 81.687 150.734 81.8745C150.341 82.062 149.829 82.1558 149.199 82.1558H146.308ZM147.277 81.2964H149.199C149.832 81.2964 150.281 81.174 150.546 80.9292C150.815 80.6818 150.949 80.3823 150.949 80.0308C150.949 79.7599 150.88 79.5099 150.742 79.2808C150.604 79.049 150.407 78.8641 150.152 78.7261C149.897 78.5854 149.595 78.5151 149.246 78.5151H147.277V81.2964ZM147.277 77.6714H149.074C149.365 77.6714 149.628 77.6141 149.863 77.4995C150.1 77.3849 150.287 77.2235 150.425 77.0151C150.566 76.8068 150.636 76.562 150.636 76.2808C150.636 75.9292 150.514 75.631 150.269 75.3862C150.024 75.1388 149.636 75.0151 149.105 75.0151H147.277V77.6714ZM155.103 82.2964C154.723 82.2964 154.378 82.2248 154.068 82.0815C153.758 81.9357 153.512 81.7261 153.33 81.4526C153.147 81.1766 153.056 80.8433 153.056 80.4526C153.056 80.1089 153.124 79.8302 153.259 79.6167C153.395 79.4006 153.576 79.2313 153.802 79.1089C154.029 78.9865 154.279 78.8953 154.552 78.8354C154.828 78.7729 155.106 78.7235 155.384 78.687C155.749 78.6401 156.044 78.605 156.271 78.5815C156.5 78.5555 156.667 78.5125 156.771 78.4526C156.878 78.3927 156.931 78.2886 156.931 78.1401V78.1089C156.931 77.7235 156.826 77.424 156.615 77.2104C156.406 76.9969 156.09 76.8901 155.666 76.8901C155.225 76.8901 154.88 76.9865 154.63 77.1792C154.38 77.3719 154.205 77.5776 154.103 77.7964L153.228 77.4839C153.384 77.1193 153.593 76.8354 153.853 76.6323C154.116 76.4266 154.403 76.2834 154.712 76.2026C155.025 76.1193 155.332 76.0776 155.634 76.0776C155.827 76.0776 156.048 76.1011 156.298 76.1479C156.551 76.1922 156.794 76.2847 157.029 76.4253C157.266 76.5659 157.462 76.7782 157.619 77.062C157.775 77.3459 157.853 77.7261 157.853 78.2026V82.1558H156.931V81.3433H156.884C156.822 81.4735 156.718 81.6128 156.572 81.7612C156.426 81.9097 156.232 82.036 155.99 82.1401C155.748 82.2443 155.452 82.2964 155.103 82.2964ZM155.244 81.4683C155.608 81.4683 155.916 81.3966 156.166 81.2534C156.418 81.1102 156.608 80.9253 156.736 80.6987C156.866 80.4722 156.931 80.2339 156.931 79.9839V79.1401C156.892 79.187 156.806 79.23 156.673 79.269C156.543 79.3055 156.392 79.3381 156.22 79.3667C156.051 79.3927 155.886 79.4162 155.724 79.437C155.565 79.4552 155.436 79.4709 155.337 79.4839C155.098 79.5151 154.874 79.5659 154.666 79.6362C154.46 79.7039 154.293 79.8068 154.166 79.9448C154.041 80.0802 153.978 80.2651 153.978 80.4995C153.978 80.8198 154.097 81.062 154.333 81.2261C154.573 81.3875 154.876 81.4683 155.244 81.4683ZM160.458 78.5464V82.1558H159.536V76.1558H160.426V77.0933H160.504C160.645 76.7886 160.859 76.5438 161.145 76.3589C161.431 76.1714 161.801 76.0776 162.254 76.0776C162.661 76.0776 163.016 76.161 163.321 76.3276C163.625 76.4917 163.862 76.7417 164.032 77.0776C164.201 77.411 164.286 77.8328 164.286 78.3433V82.1558H163.364V78.4058C163.364 77.9344 163.241 77.5672 162.997 77.3042C162.752 77.0386 162.416 76.9058 161.989 76.9058C161.694 76.9058 161.431 76.9696 161.2 77.0972C160.971 77.2248 160.79 77.411 160.657 77.6558C160.524 77.9006 160.458 78.1974 160.458 78.5464ZM166.83 79.9683L166.814 78.8276H167.001L169.626 76.1558H170.767L167.97 78.9839H167.892L166.83 79.9683ZM165.97 82.1558V74.1558H166.892V82.1558H165.97ZM169.783 82.1558L167.439 79.187L168.095 78.5464L170.955 82.1558H169.783ZM181.61 76.6558H180.641C180.584 76.3771 180.484 76.1323 180.34 75.9214C180.2 75.7104 180.028 75.5334 179.825 75.3901C179.624 75.2443 179.402 75.1349 179.157 75.062C178.912 74.9891 178.657 74.9526 178.391 74.9526C177.907 74.9526 177.468 75.075 177.075 75.3198C176.684 75.5646 176.373 75.9253 176.141 76.4019C175.912 76.8784 175.797 77.4631 175.797 78.1558C175.797 78.8485 175.912 79.4331 176.141 79.9097C176.373 80.3862 176.684 80.7469 177.075 80.9917C177.468 81.2365 177.907 81.3589 178.391 81.3589C178.657 81.3589 178.912 81.3224 179.157 81.2495C179.402 81.1766 179.624 81.0685 179.825 80.9253C180.028 80.7795 180.2 80.6011 180.34 80.3901C180.484 80.1766 180.584 79.9318 180.641 79.6558H181.61C181.537 80.0646 181.404 80.4305 181.211 80.7534C181.019 81.0763 180.779 81.3511 180.493 81.5776C180.206 81.8016 179.885 81.9722 179.528 82.0894C179.174 82.2065 178.795 82.2651 178.391 82.2651C177.709 82.2651 177.102 82.0985 176.571 81.7651C176.04 81.4318 175.622 80.9578 175.317 80.3433C175.012 79.7287 174.86 78.9995 174.86 78.1558C174.86 77.312 175.012 76.5828 175.317 75.9683C175.622 75.3537 176.04 74.8797 176.571 74.5464C177.102 74.2131 177.709 74.0464 178.391 74.0464C178.795 74.0464 179.174 74.105 179.528 74.2222C179.885 74.3394 180.206 74.5112 180.493 74.7378C180.779 74.9618 181.019 75.2352 181.211 75.5581C181.404 75.8784 181.537 76.2443 181.61 76.6558ZM183.05 82.1558V76.1558H183.941V77.062H184.003C184.113 76.7651 184.311 76.5243 184.597 76.3394C184.884 76.1545 185.207 76.062 185.566 76.062C185.634 76.062 185.718 76.0633 185.82 76.0659C185.921 76.0685 185.998 76.0724 186.05 76.0776V77.0151C186.019 77.0073 185.947 76.9956 185.835 76.98C185.726 76.9618 185.61 76.9526 185.488 76.9526C185.196 76.9526 184.936 77.0138 184.707 77.1362C184.48 77.256 184.3 77.4227 184.167 77.6362C184.037 77.8472 183.972 78.0881 183.972 78.3589V82.1558H183.05ZM189.476 82.2808C188.898 82.2808 188.399 82.1532 187.98 81.8979C187.563 81.6401 187.242 81.2808 187.015 80.8198C186.791 80.3563 186.679 79.8172 186.679 79.2026C186.679 78.5881 186.791 78.0464 187.015 77.5776C187.242 77.1063 187.557 76.7391 187.96 76.4761C188.367 76.2104 188.841 76.0776 189.382 76.0776C189.695 76.0776 190.003 76.1297 190.308 76.2339C190.613 76.3381 190.89 76.5073 191.14 76.7417C191.39 76.9735 191.589 77.2808 191.738 77.6636C191.886 78.0464 191.96 78.5177 191.96 79.0776V79.4683H187.335V78.6714H191.023C191.023 78.3328 190.955 78.0308 190.82 77.7651C190.687 77.4995 190.497 77.2899 190.25 77.1362C190.005 76.9826 189.716 76.9058 189.382 76.9058C189.015 76.9058 188.697 76.9969 188.429 77.1792C188.164 77.3589 187.959 77.5933 187.816 77.8823C187.673 78.1714 187.601 78.4813 187.601 78.812V79.3433C187.601 79.7964 187.679 80.1805 187.835 80.4956C187.994 80.8081 188.214 81.0464 188.496 81.2104C188.777 81.3719 189.104 81.4526 189.476 81.4526C189.718 81.4526 189.937 81.4188 190.132 81.3511C190.33 81.2808 190.501 81.1766 190.644 81.0386C190.787 80.8979 190.898 80.7235 190.976 80.5151L191.867 80.7651C191.773 81.0672 191.615 81.3328 191.394 81.562C191.173 81.7886 190.899 81.9657 190.574 82.0933C190.248 82.2183 189.882 82.2808 189.476 82.2808ZM195.628 82.2808C195.128 82.2808 194.687 82.1545 194.304 81.9019C193.921 81.6466 193.622 81.2873 193.406 80.8237C193.19 80.3576 193.082 79.8068 193.082 79.1714C193.082 78.5412 193.19 77.9943 193.406 77.5308C193.622 77.0672 193.923 76.7091 194.308 76.4565C194.694 76.2039 195.139 76.0776 195.644 76.0776C196.035 76.0776 196.343 76.1427 196.57 76.2729C196.799 76.4006 196.973 76.5464 197.093 76.7104C197.216 76.8719 197.311 77.0047 197.378 77.1089H197.457V74.1558H198.378V82.1558H197.488V81.2339H197.378C197.311 81.3433 197.214 81.4813 197.089 81.6479C196.964 81.812 196.786 81.9591 196.554 82.0894C196.322 82.217 196.014 82.2808 195.628 82.2808ZM195.753 81.4526C196.123 81.4526 196.436 81.3563 196.691 81.1636C196.946 80.9683 197.14 80.6987 197.273 80.355C197.406 80.0086 197.472 79.6089 197.472 79.1558C197.472 78.7078 197.407 78.3159 197.277 77.98C197.147 77.6414 196.954 77.3784 196.699 77.1909C196.444 77.0008 196.128 76.9058 195.753 76.9058C195.363 76.9058 195.037 77.006 194.777 77.2065C194.519 77.4045 194.325 77.674 194.195 78.0151C194.067 78.3537 194.003 78.7339 194.003 79.1558C194.003 79.5828 194.069 79.9709 194.199 80.3198C194.332 80.6662 194.527 80.9422 194.785 81.1479C195.045 81.3511 195.368 81.4526 195.753 81.4526ZM200.195 82.1558V76.1558H201.117V82.1558H200.195ZM200.664 75.1558C200.484 75.1558 200.329 75.0946 200.199 74.9722C200.071 74.8498 200.007 74.7026 200.007 74.5308C200.007 74.3589 200.071 74.2118 200.199 74.0894C200.329 73.967 200.484 73.9058 200.664 73.9058C200.843 73.9058 200.997 73.967 201.125 74.0894C201.255 74.2118 201.32 74.3589 201.32 74.5308C201.32 74.7026 201.255 74.8498 201.125 74.9722C200.997 75.0946 200.843 75.1558 200.664 75.1558ZM205.415 76.1558V76.937H202.305V76.1558H205.415ZM203.211 74.7183H204.133V80.437C204.133 80.6974 204.171 80.8927 204.247 81.0229C204.325 81.1506 204.424 81.2365 204.543 81.2808C204.666 81.3224 204.795 81.3433 204.93 81.3433C205.032 81.3433 205.115 81.3381 205.18 81.3276C205.245 81.3146 205.297 81.3042 205.336 81.2964L205.524 82.1245C205.461 82.1479 205.374 82.1714 205.262 82.1948C205.15 82.2209 205.008 82.2339 204.836 82.2339C204.576 82.2339 204.321 82.1779 204.071 82.0659C203.823 81.9539 203.618 81.7834 203.454 81.5542C203.292 81.325 203.211 81.036 203.211 80.687V74.7183ZM65.5405 93.6558H64.5718C64.5145 93.3771 64.4142 93.1323 64.271 92.9214C64.1304 92.7104 63.9585 92.5334 63.7554 92.3901C63.5549 92.2443 63.3322 92.1349 63.0874 92.062C62.8426 91.9891 62.5874 91.9526 62.3218 91.9526C61.8374 91.9526 61.3986 92.075 61.0054 92.3198C60.6147 92.5646 60.3035 92.9253 60.0718 93.4019C59.8426 93.8784 59.728 94.4631 59.728 95.1558C59.728 95.8485 59.8426 96.4331 60.0718 96.9097C60.3035 97.3862 60.6147 97.7469 61.0054 97.9917C61.3986 98.2365 61.8374 98.3589 62.3218 98.3589C62.5874 98.3589 62.8426 98.3224 63.0874 98.2495C63.3322 98.1766 63.5549 98.0685 63.7554 97.9253C63.9585 97.7795 64.1304 97.6011 64.271 97.3901C64.4142 97.1766 64.5145 96.9318 64.5718 96.6558H65.5405C65.4676 97.0646 65.3348 97.4305 65.1421 97.7534C64.9494 98.0763 64.7098 98.3511 64.4233 98.5776C64.1369 98.8016 63.8153 98.9722 63.4585 99.0894C63.1043 99.2065 62.7254 99.2651 62.3218 99.2651C61.6395 99.2651 61.0327 99.0985 60.5015 98.7651C59.9702 98.4318 59.5522 97.9578 59.2476 97.3433C58.9429 96.7287 58.7905 95.9995 58.7905 95.1558C58.7905 94.312 58.9429 93.5828 59.2476 92.9683C59.5522 92.3537 59.9702 91.8797 60.5015 91.5464C61.0327 91.2131 61.6395 91.0464 62.3218 91.0464C62.7254 91.0464 63.1043 91.105 63.4585 91.2222C63.8153 91.3394 64.1369 91.5112 64.4233 91.7378C64.7098 91.9618 64.9494 92.2352 65.1421 92.5581C65.3348 92.8784 65.4676 93.2443 65.5405 93.6558ZM68.7466 99.2964C68.3664 99.2964 68.0213 99.2248 67.7114 99.0815C67.4015 98.9357 67.1554 98.7261 66.9731 98.4526C66.7909 98.1766 66.6997 97.8433 66.6997 97.4526C66.6997 97.1089 66.7674 96.8302 66.9028 96.6167C67.0382 96.4006 67.2192 96.2313 67.4458 96.1089C67.6724 95.9865 67.9224 95.8953 68.1958 95.8354C68.4718 95.7729 68.7492 95.7235 69.0278 95.687C69.3924 95.6401 69.688 95.605 69.9146 95.5815C70.1437 95.5555 70.3104 95.5125 70.4146 95.4526C70.5213 95.3927 70.5747 95.2886 70.5747 95.1401V95.1089C70.5747 94.7235 70.4692 94.424 70.2583 94.2104C70.05 93.9969 69.7336 93.8901 69.3091 93.8901C68.869 93.8901 68.5239 93.9865 68.2739 94.1792C68.0239 94.3719 67.8481 94.5776 67.7466 94.7964L66.8716 94.4839C67.0278 94.1193 67.2362 93.8354 67.4966 93.6323C67.7596 93.4266 68.0461 93.2834 68.356 93.2026C68.6685 93.1193 68.9757 93.0776 69.2778 93.0776C69.4705 93.0776 69.6919 93.1011 69.9419 93.1479C70.1945 93.1922 70.438 93.2847 70.6724 93.4253C70.9093 93.5659 71.106 93.7782 71.2622 94.062C71.4185 94.3459 71.4966 94.7261 71.4966 95.2026V99.1558H70.5747V98.3433H70.5278C70.4653 98.4735 70.3612 98.6128 70.2153 98.7612C70.0695 98.9097 69.8755 99.036 69.6333 99.1401C69.3911 99.2443 69.0955 99.2964 68.7466 99.2964ZM68.8872 98.4683C69.2518 98.4683 69.5591 98.3966 69.8091 98.2534C70.0617 98.1102 70.2518 97.9253 70.3794 97.6987C70.5096 97.4722 70.5747 97.2339 70.5747 96.9839V96.1401C70.5356 96.187 70.4497 96.23 70.3169 96.269C70.1867 96.3055 70.0356 96.3381 69.8638 96.3667C69.6945 96.3927 69.5291 96.4162 69.3677 96.437C69.2088 96.4552 69.0799 96.4709 68.981 96.4839C68.7414 96.5151 68.5174 96.5659 68.3091 96.6362C68.1034 96.7039 67.9367 96.8068 67.8091 96.9448C67.6841 97.0802 67.6216 97.2651 67.6216 97.4995C67.6216 97.8198 67.7401 98.062 67.9771 98.2261C68.2166 98.3875 68.52 98.4683 68.8872 98.4683ZM73.1792 99.1558V93.1558H74.0698V94.062H74.1323C74.2417 93.7651 74.4396 93.5243 74.7261 93.3394C75.0125 93.1545 75.3354 93.062 75.6948 93.062C75.7625 93.062 75.8472 93.0633 75.9487 93.0659C76.0503 93.0685 76.1271 93.0724 76.1792 93.0776V94.0151C76.1479 94.0073 76.0763 93.9956 75.9644 93.98C75.855 93.9618 75.7391 93.9526 75.6167 93.9526C75.325 93.9526 75.0646 94.0138 74.8354 94.1362C74.6089 94.256 74.4292 94.4227 74.2964 94.6362C74.1662 94.8472 74.1011 95.0881 74.1011 95.3589V99.1558H73.1792ZM79.355 99.2808C78.855 99.2808 78.4136 99.1545 78.0308 98.9019C77.6479 98.6466 77.3485 98.2873 77.1323 97.8237C76.9162 97.3576 76.8081 96.8068 76.8081 96.1714C76.8081 95.5412 76.9162 94.9943 77.1323 94.5308C77.3485 94.0672 77.6493 93.7091 78.0347 93.4565C78.4201 93.2039 78.8654 93.0776 79.3706 93.0776C79.7612 93.0776 80.0698 93.1427 80.2964 93.2729C80.5256 93.4006 80.7 93.5464 80.8198 93.7104C80.9422 93.8719 81.0373 94.0047 81.105 94.1089H81.1831V91.1558H82.105V99.1558H81.2144V98.2339H81.105C81.0373 98.3433 80.9409 98.4813 80.8159 98.6479C80.6909 98.812 80.5125 98.9591 80.2808 99.0894C80.049 99.217 79.7404 99.2808 79.355 99.2808ZM79.48 98.4526C79.8498 98.4526 80.1623 98.3563 80.4175 98.1636C80.6727 97.9683 80.8667 97.6987 80.9995 97.355C81.1323 97.0086 81.1987 96.6089 81.1987 96.1558C81.1987 95.7078 81.1336 95.3159 81.0034 94.98C80.8732 94.6414 80.6805 94.3784 80.4253 94.1909C80.1701 94.0008 79.855 93.9058 79.48 93.9058C79.0894 93.9058 78.7638 94.006 78.5034 94.2065C78.2456 94.4045 78.0516 94.674 77.9214 95.0151C77.7938 95.3537 77.73 95.7339 77.73 96.1558C77.73 96.5828 77.7951 96.9709 77.9253 97.3198C78.0581 97.6662 78.2534 97.9422 78.5112 98.1479C78.7716 98.3511 79.0946 98.4526 79.48 98.4526ZM87.1401 99.1558V91.1558H91.9683V92.0151H88.1089V94.7183H91.7183V95.5776H88.1089V98.2964H92.0308V99.1558H87.1401ZM93.7144 91.1558H94.8706L97.5894 97.7964H97.6831L100.402 91.1558H101.558V99.1558H100.652V93.0776H100.574L98.0737 99.1558H97.1987L94.6987 93.0776H94.6206V99.1558H93.7144V91.1558ZM104.469 91.1558V99.1558H103.5V91.1558H104.469Z" fill="black"/>
<path d="M33.0116 56.2563C34.8821 59.4697 36.7687 62.6736 38.6191 65.8991C35.6284 71.1746 32.6809 76.4756 29.589 81.6931C28.4027 83.696 27.2488 85.7176 26.0761 87.7271C22.273 87.7501 18.4698 87.7488 14.6667 87.7433C14.7828 87.4828 14.8975 87.221 15.0379 86.9728C21.0259 76.7321 27.037 66.505 33.0116 56.2563Z" fill="#AE285D"/>
<path d="M33.0129 75.8468C36.8294 75.8455 40.6461 75.8185 44.4628 75.882C46.7354 79.8443 49.0809 83.7635 51.3334 87.7366C47.5168 87.7555 43.7016 87.7406 39.8849 87.738C37.6136 83.7621 35.2411 79.847 33.0129 75.8468Z" fill="#AE285D"/>
<path d="M18.3854 21.6147V11.4329H25.1269V13.2078H20.5381V15.6339H24.6795V17.4088H20.5381V21.6147H18.3854ZM28.653 11.4329V21.6147H26.5351V11.4329H28.653ZM32.5271 21.7589C32.0399 21.7589 31.6057 21.6744 31.2246 21.5054C30.8434 21.333 30.5418 21.0795 30.3197 20.7447C30.101 20.4066 29.9916 19.9857 29.9916 19.4819C29.9916 19.0577 30.0695 18.7014 30.2253 18.413C30.3811 18.1247 30.5932 17.8927 30.8616 17.717C31.1301 17.5414 31.435 17.4088 31.7764 17.3193C32.1211 17.2298 32.4824 17.1668 32.8602 17.1304C33.3043 17.084 33.6623 17.0409 33.9341 17.0011C34.2059 16.958 34.4031 16.895 34.5257 16.8122C34.6483 16.7293 34.7097 16.6067 34.7097 16.4443V16.4145C34.7097 16.0996 34.6102 15.856 34.4114 15.6836C34.2158 15.5113 33.9374 15.4251 33.5761 15.4251C33.195 15.4251 32.8917 15.5096 32.6663 15.6787C32.4409 15.8444 32.2918 16.0532 32.2189 16.3051L30.2601 16.146C30.3595 15.682 30.5551 15.2809 30.8467 14.9429C31.1384 14.6015 31.5146 14.3397 31.9753 14.1574C32.4393 13.9718 32.9762 13.879 33.5861 13.879C34.0103 13.879 34.4163 13.9287 34.8041 14.0281C35.1952 14.1275 35.5416 14.2816 35.8432 14.4905C36.1481 14.6993 36.3884 14.9677 36.5641 15.2959C36.7397 15.6207 36.8275 16.0101 36.8275 16.4642V21.6147H34.819V20.5558H34.7594C34.6367 20.7944 34.4727 21.0049 34.2672 21.1872C34.0617 21.3662 33.8148 21.507 33.5264 21.6098C33.2381 21.7092 32.905 21.7589 32.5271 21.7589ZM33.1337 20.2973C33.4452 20.2973 33.7203 20.236 33.9589 20.1133C34.1976 19.9874 34.3848 19.8183 34.5207 19.6062C34.6566 19.3941 34.7246 19.1538 34.7246 18.8853V18.075C34.6583 18.1181 34.5671 18.1578 34.4511 18.1943C34.3384 18.2274 34.2108 18.2589 34.0683 18.2888C33.9258 18.3153 33.7833 18.3401 33.6408 18.3633C33.4982 18.3832 33.369 18.4014 33.253 18.418C33.0044 18.4545 32.7873 18.5125 32.6017 18.592C32.4161 18.6716 32.2719 18.7793 32.1692 18.9152C32.0664 19.0477 32.015 19.2135 32.015 19.4123C32.015 19.7007 32.1195 19.9211 32.3283 20.0736C32.5404 20.2227 32.8088 20.2973 33.1337 20.2973ZM42.5324 13.9784V15.5693H37.9337V13.9784H42.5324ZM38.9778 12.1488H41.0957V19.2682C41.0957 19.4637 41.1255 19.6162 41.1851 19.7255C41.2448 19.8316 41.3277 19.9062 41.4337 19.9493C41.5431 19.9924 41.669 20.0139 41.8116 20.0139C41.911 20.0139 42.0104 20.0056 42.1099 19.989C42.2093 19.9691 42.2855 19.9542 42.3386 19.9443L42.6717 21.5203C42.5656 21.5534 42.4164 21.5915 42.2242 21.6346C42.032 21.681 41.7983 21.7092 41.5232 21.7191C41.0128 21.739 40.5654 21.6711 40.1809 21.5153C39.7997 21.3595 39.5031 21.1176 39.291 20.7895C39.0789 20.4613 38.9744 20.047 38.9778 19.5466V12.1488ZM50.8959 21.754C50.1535 21.754 49.4923 21.6263 48.9122 21.3711C48.3355 21.1126 47.8798 20.758 47.5451 20.3072C47.2136 19.8531 47.0429 19.3295 47.033 18.7362H49.2006C49.2139 18.9848 49.2951 19.2035 49.4442 19.3924C49.5967 19.5781 49.7988 19.7222 50.0507 19.825C50.3026 19.9277 50.586 19.9791 50.9009 19.9791C51.229 19.9791 51.519 19.9211 51.7709 19.8051C52.0228 19.6891 52.22 19.5283 52.3625 19.3228C52.505 19.1174 52.5763 18.8804 52.5763 18.6119C52.5763 18.3401 52.5001 18.0998 52.3476 17.891C52.1985 17.6789 51.983 17.5132 51.7013 17.3939C51.4229 17.2745 51.0915 17.2149 50.707 17.2149H49.7574V15.6339H50.707C51.0318 15.6339 51.3185 15.5776 51.5671 15.4649C51.819 15.3522 52.0145 15.1964 52.1537 14.9976C52.2929 14.7954 52.3625 14.5601 52.3625 14.2916C52.3625 14.0364 52.3012 13.8127 52.1786 13.6204C52.0593 13.4249 51.8902 13.2724 51.6715 13.163C51.456 13.0537 51.2041 12.999 50.9158 12.999C50.6241 12.999 50.3573 13.052 50.1154 13.1581C49.8734 13.2608 49.6795 13.4083 49.5337 13.6005C49.3879 13.7928 49.31 14.0182 49.3 14.2767H47.2368C47.2468 13.69 47.4141 13.173 47.7389 12.7255C48.0638 12.2781 48.5013 11.9284 49.0514 11.6765C49.605 11.4213 50.2297 11.2937 50.9257 11.2937C51.6284 11.2937 52.2432 11.4213 52.7702 11.6765C53.2972 11.9317 53.7065 12.2764 53.9982 12.7106C54.2932 13.1415 54.439 13.6254 54.4357 14.1623C54.439 14.7324 54.2617 15.208 53.9037 15.5892C53.5491 15.9703 53.0867 16.2123 52.5166 16.315V16.3946C53.2657 16.4907 53.8358 16.7509 54.2269 17.1751C54.6213 17.596 54.8168 18.123 54.8135 18.7561C54.8168 19.3361 54.6495 19.8515 54.3114 20.3022C53.9766 20.753 53.5143 21.1076 52.9243 21.3662C52.3344 21.6247 51.6582 21.754 50.8959 21.754ZM61.9341 19.7057V19.1687C61.9341 18.7611 62.0203 18.3865 62.1926 18.0451C62.3683 17.7004 62.6218 17.4254 62.9533 17.2199C63.288 17.0111 63.6957 16.9066 64.1763 16.9066C64.6635 16.9066 65.0728 17.0094 65.4043 17.2149C65.739 17.4204 65.9909 17.6955 66.1599 18.0402C66.3323 18.3816 66.4185 18.7577 66.4185 19.1687V19.7057C66.4185 20.1133 66.3323 20.4895 66.1599 20.8342C65.9876 21.1756 65.734 21.449 65.3993 21.6545C65.0645 21.8633 64.6569 21.9677 64.1763 21.9677C63.6891 21.9677 63.2797 21.8633 62.9483 21.6545C62.6168 21.449 62.365 21.1756 62.1926 20.8342C62.0203 20.4895 61.9341 20.1133 61.9341 19.7057ZM63.3808 19.1687V19.7057C63.3808 19.941 63.4372 20.163 63.5498 20.3718C63.6659 20.5807 63.8747 20.6851 64.1763 20.6851C64.4779 20.6851 64.6834 20.5823 64.7927 20.3768C64.9054 20.1713 64.9618 19.9476 64.9618 19.7057V19.1687C64.9618 18.9268 64.9088 18.7014 64.8027 18.4926C64.6966 18.2838 64.4878 18.1794 64.1763 18.1794C63.878 18.1794 63.6708 18.2838 63.5548 18.4926C63.4388 18.7014 63.3808 18.9268 63.3808 19.1687ZM56.7089 13.879V13.342C56.7089 12.931 56.7968 12.5548 56.9724 12.2135C57.1481 11.8688 57.4016 11.5937 57.7331 11.3882C58.0678 11.1827 58.4722 11.0799 58.9462 11.0799C59.4367 11.0799 59.8477 11.1827 60.1791 11.3882C60.5105 11.5937 60.7624 11.8688 60.9348 12.2135C61.1071 12.5548 61.1933 12.931 61.1933 13.342V13.879C61.1933 14.2899 61.1055 14.6661 60.9298 15.0075C60.7575 15.3489 60.5039 15.6223 60.1692 15.8278C59.8377 16.03 59.4301 16.1311 58.9462 16.1311C58.4623 16.1311 58.0529 16.0283 57.7182 15.8228C57.3867 15.614 57.1348 15.3406 56.9625 15.0025C56.7935 14.6611 56.7089 14.2866 56.7089 13.879ZM58.1656 13.342V13.879C58.1656 14.1209 58.222 14.3446 58.3347 14.5501C58.4507 14.7556 58.6545 14.8584 58.9462 14.8584C59.2511 14.8584 59.4582 14.7556 59.5676 14.5501C59.6803 14.3446 59.7366 14.1209 59.7366 13.879V13.342C59.7366 13.1001 59.6836 12.8747 59.5775 12.6659C59.4715 12.4571 59.261 12.3527 58.9462 12.3527C58.6512 12.3527 58.4473 12.4587 58.3347 12.6709C58.222 12.883 58.1656 13.1067 58.1656 13.342ZM57.3652 21.6147L64.3652 11.4329H65.6677L58.6677 21.6147H57.3652ZM75.1026 21.7639C74.3303 21.7639 73.6625 21.5998 73.099 21.2717C72.5389 20.9403 72.1064 20.4796 71.8014 19.8896C71.4965 19.2963 71.3441 18.6086 71.3441 17.8264C71.3441 17.0376 71.4965 16.3482 71.8014 15.7582C72.1064 15.1649 72.5389 14.7042 73.099 14.3761C73.6625 14.0447 74.3303 13.879 75.1026 13.879C75.8748 13.879 76.541 14.0447 77.1012 14.3761C77.6646 14.7042 78.0988 15.1649 78.4037 15.7582C78.7086 16.3482 78.8611 17.0376 78.8611 17.8264C78.8611 18.6086 78.7086 19.2963 78.4037 19.8896C78.0988 20.4796 77.6646 20.9403 77.1012 21.2717C76.541 21.5998 75.8748 21.7639 75.1026 21.7639ZM75.1125 20.1233C75.4639 20.1233 75.7572 20.0238 75.9925 19.825C76.2278 19.6228 76.4051 19.3477 76.5245 18.9997C76.6471 18.6517 76.7084 18.2556 76.7084 17.8115C76.7084 17.3674 76.6471 16.9713 76.5245 16.6233C76.4051 16.2753 76.2278 16.0002 75.9925 15.798C75.7572 15.5958 75.4639 15.4947 75.1125 15.4947C74.7579 15.4947 74.4596 15.5958 74.2176 15.798C73.979 16.0002 73.7984 16.2753 73.6757 16.6233C73.5564 16.9713 73.4968 17.3674 73.4968 17.8115C73.4968 18.2556 73.5564 18.6517 73.6757 18.9997C73.7984 19.3477 73.979 19.6228 74.2176 19.825C74.4596 20.0238 74.7579 20.1233 75.1125 20.1233ZM84.3448 13.9784V15.5693H79.6317V13.9784H84.3448ZM80.7105 21.6147V13.4265C80.7105 12.873 80.8183 12.414 81.0337 12.0494C81.2524 11.6848 81.5507 11.4114 81.9286 11.2291C82.3064 11.0468 82.7356 10.9557 83.2162 10.9557C83.541 10.9557 83.8377 10.9805 84.1061 11.0302C84.3779 11.0799 84.5801 11.1247 84.7127 11.1645L84.3348 12.7554C84.252 12.7289 84.1492 12.704 84.0266 12.6808C83.9073 12.6576 83.7846 12.646 83.6587 12.646C83.3471 12.646 83.13 12.7189 83.0074 12.8647C82.8848 13.0073 82.8235 13.2078 82.8235 13.4663V21.6147H80.7105ZM89.7452 13.9784V15.5693H85.0321V13.9784H89.7452ZM86.1109 21.6147V13.4265C86.1109 12.873 86.2186 12.414 86.4341 12.0494C86.6528 11.6848 86.9511 11.4114 87.329 11.2291C87.7068 11.0468 88.136 10.9557 88.6166 10.9557C88.9414 10.9557 89.2381 10.9805 89.5065 11.0302C89.7783 11.0799 89.9805 11.1247 90.1131 11.1645L89.7352 12.7554C89.6524 12.7289 89.5496 12.704 89.427 12.6808C89.3077 12.6576 89.185 12.646 89.0591 12.646C88.7475 12.646 88.5304 12.7189 88.4078 12.8647C88.2852 13.0073 88.2239 13.2078 88.2239 13.4663V21.6147H86.1109ZM97.302 20.0636V13.0238H99.0818V20.0636H97.302ZM94.672 17.4336V15.6538H101.712V17.4336H94.672ZM110.734 21.754C110.031 21.754 109.405 21.6247 108.855 21.3662C108.308 21.1076 107.874 20.7513 107.552 20.2973C107.231 19.8432 107.063 19.3228 107.05 18.7362H109.138C109.161 19.1306 109.327 19.4504 109.635 19.6957C109.943 19.941 110.31 20.0636 110.734 20.0636C111.072 20.0636 111.37 19.989 111.629 19.8399C111.891 19.6874 112.095 19.477 112.24 19.2085C112.39 18.9367 112.464 18.6252 112.464 18.2738C112.464 17.9159 112.388 17.601 112.235 17.3292C112.086 17.0575 111.879 16.8453 111.614 16.6929C111.349 16.5404 111.046 16.4625 110.704 16.4592C110.406 16.4592 110.116 16.5205 109.834 16.6432C109.556 16.7658 109.339 16.9332 109.183 17.1453L107.269 16.8022L107.751 11.4329H113.975V13.1929H109.526L109.262 15.7433H109.322C109.501 15.4914 109.771 15.2826 110.132 15.1169C110.494 14.9512 110.898 14.8683 111.345 14.8683C111.959 14.8683 112.506 15.0125 112.986 15.3008C113.467 15.5892 113.846 15.9852 114.125 16.489C114.403 16.9895 114.541 17.5662 114.537 18.2191C114.541 18.9052 114.381 19.5151 114.06 20.0487C113.742 20.579 113.296 20.9966 112.723 21.3015C112.153 21.6031 111.49 21.754 110.734 21.754ZM121.612 19.7057V19.1687C121.612 18.7611 121.698 18.3865 121.87 18.0451C122.046 17.7004 122.3 17.4254 122.631 17.2199C122.966 17.0111 123.373 16.9066 123.854 16.9066C124.341 16.9066 124.751 17.0094 125.082 17.2149C125.417 17.4204 125.669 17.6955 125.838 18.0402C126.01 18.3816 126.096 18.7577 126.096 19.1687V19.7057C126.096 20.1133 126.01 20.4895 125.838 20.8342C125.665 21.1756 125.412 21.449 125.077 21.6545C124.742 21.8633 124.335 21.9677 123.854 21.9677C123.367 21.9677 122.957 21.8633 122.626 21.6545C122.295 21.449 122.043 21.1756 121.87 20.8342C121.698 20.4895 121.612 20.1133 121.612 19.7057ZM123.059 19.1687V19.7057C123.059 19.941 123.115 20.163 123.228 20.3718C123.344 20.5807 123.552 20.6851 123.854 20.6851C124.156 20.6851 124.361 20.5823 124.47 20.3768C124.583 20.1713 124.64 19.9476 124.64 19.7057V19.1687C124.64 18.9268 124.586 18.7014 124.48 18.4926C124.374 18.2838 124.166 18.1794 123.854 18.1794C123.556 18.1794 123.349 18.2838 123.233 18.4926C123.117 18.7014 123.059 18.9268 123.059 19.1687ZM116.387 13.879V13.342C116.387 12.931 116.475 12.5548 116.65 12.2135C116.826 11.8688 117.079 11.5937 117.411 11.3882C117.746 11.1827 118.15 11.0799 118.624 11.0799C119.114 11.0799 119.525 11.1827 119.857 11.3882C120.188 11.5937 120.44 11.8688 120.613 12.2135C120.785 12.5548 120.871 12.931 120.871 13.342V13.879C120.871 14.2899 120.783 14.6661 120.608 15.0075C120.435 15.3489 120.182 15.6223 119.847 15.8278C119.515 16.03 119.108 16.1311 118.624 16.1311C118.14 16.1311 117.731 16.0283 117.396 15.8228C117.064 15.614 116.813 15.3406 116.64 15.0025C116.471 14.6611 116.387 14.2866 116.387 13.879ZM117.843 13.342V13.879C117.843 14.1209 117.9 14.3446 118.012 14.5501C118.128 14.7556 118.332 14.8584 118.624 14.8584C118.929 14.8584 119.136 14.7556 119.245 14.5501C119.358 14.3446 119.414 14.1209 119.414 13.879V13.342C119.414 13.1001 119.361 12.8747 119.255 12.6659C119.149 12.4571 118.939 12.3527 118.624 12.3527C118.329 12.3527 118.125 12.4587 118.012 12.6709C117.9 12.883 117.843 13.1067 117.843 13.342ZM117.043 21.6147L124.043 11.4329H125.345L118.345 21.6147H117.043ZM136.227 18.3633V13.9784H138.345V21.6147H136.312V20.2277H136.232C136.06 20.6751 135.773 21.0347 135.372 21.3065C134.974 21.5783 134.489 21.7142 133.915 21.7142C133.405 21.7142 132.956 21.5982 132.568 21.3662C132.18 21.1342 131.877 20.8044 131.658 20.3768C131.443 19.9493 131.333 19.4372 131.33 18.8406V13.9784H133.448V18.4628C133.451 18.9135 133.572 19.2698 133.811 19.5316C134.049 19.7935 134.369 19.9244 134.77 19.9244C135.026 19.9244 135.264 19.8664 135.486 19.7504C135.708 19.6311 135.887 19.4554 136.023 19.2234C136.162 18.9914 136.23 18.7047 136.227 18.3633ZM142.157 17.2V21.6147H140.039V13.9784H142.057V15.3257H142.147C142.316 14.8816 142.599 14.5302 142.997 14.2717C143.395 14.0099 143.877 13.879 144.444 13.879C144.974 13.879 145.437 13.995 145.831 14.227C146.225 14.459 146.532 14.7904 146.751 15.2213C146.969 15.6488 147.079 16.1593 147.079 16.7525V21.6147H144.961V17.1304C144.964 16.663 144.845 16.2985 144.603 16.0366C144.361 15.7715 144.028 15.6389 143.604 15.6389C143.319 15.6389 143.067 15.7002 142.848 15.8228C142.633 15.9455 142.463 16.1245 142.341 16.3598C142.222 16.5918 142.16 16.8718 142.157 17.2ZM150.866 11.4329V21.6147H148.748V11.4329H150.866ZM152.562 21.6147V13.9784H154.68V21.6147H152.562ZM153.626 12.994C153.312 12.994 153.041 12.8896 152.816 12.6808C152.594 12.4687 152.483 12.2151 152.483 11.9201C152.483 11.6285 152.594 11.3782 152.816 11.1694C153.041 10.9573 153.312 10.8513 153.626 10.8513C153.941 10.8513 154.21 10.9573 154.432 11.1694C154.657 11.3782 154.77 11.6285 154.77 11.9201C154.77 12.2151 154.657 12.4687 154.432 12.6808C154.21 12.8896 153.941 12.994 153.626 12.994ZM156.377 21.6147V13.9784H158.395V15.3257H158.485C158.644 14.8782 158.909 14.5253 159.28 14.2667C159.652 14.0082 160.096 13.879 160.613 13.879C161.136 13.879 161.582 14.0099 161.95 14.2717C162.318 14.5302 162.563 14.8816 162.686 15.3257H162.765C162.921 14.8882 163.203 14.5385 163.611 14.2767C164.022 14.0115 164.507 13.879 165.067 13.879C165.78 13.879 166.358 14.106 166.802 14.5601C167.25 15.0108 167.474 15.6505 167.474 16.4791V21.6147H165.361V16.8967C165.361 16.4725 165.248 16.1543 165.023 15.9422C164.797 15.73 164.515 15.624 164.177 15.624C163.793 15.624 163.493 15.7466 163.277 15.9919C163.062 16.2338 162.954 16.5537 162.954 16.9514V21.6147H160.901V16.852C160.901 16.4774 160.793 16.1791 160.578 15.9571C160.366 15.735 160.086 15.624 159.738 15.624C159.502 15.624 159.29 15.6836 159.101 15.803C158.916 15.919 158.768 16.083 158.659 16.2951C158.549 16.504 158.495 16.7492 158.495 17.0309V21.6147H156.377ZM169.146 21.6147V13.9784H171.264V21.6147H169.146ZM170.21 12.994C169.895 12.994 169.625 12.8896 169.4 12.6808C169.178 12.4687 169.067 12.2151 169.067 11.9201C169.067 11.6285 169.178 11.3782 169.4 11.1694C169.625 10.9573 169.895 10.8513 170.21 10.8513C170.525 10.8513 170.794 10.9573 171.016 11.1694C171.241 11.3782 171.354 11.6285 171.354 11.9201C171.354 12.2151 171.241 12.4687 171.016 12.6808C170.794 12.8896 170.525 12.994 170.21 12.994ZM177.023 13.9784V15.5693H172.424V13.9784H177.023ZM173.468 12.1488H175.586V19.2682C175.586 19.4637 175.616 19.6162 175.675 19.7255C175.735 19.8316 175.818 19.9062 175.924 19.9493C176.033 19.9924 176.159 20.0139 176.302 20.0139C176.401 20.0139 176.501 20.0056 176.6 19.989C176.7 19.9691 176.776 19.9542 176.829 19.9443L177.162 21.5203C177.056 21.5534 176.907 21.5915 176.714 21.6346C176.522 21.681 176.289 21.7092 176.013 21.7191C175.503 21.739 175.056 21.6711 174.671 21.5153C174.29 21.3595 173.993 21.1176 173.781 20.7895C173.569 20.4613 173.465 20.047 173.468 19.5466V12.1488ZM181.8 21.7639C181.015 21.7639 180.339 21.6048 179.772 21.2866C179.209 20.9651 178.774 20.5111 178.469 19.9244C178.164 19.3344 178.012 18.6368 178.012 17.8314C178.012 17.0459 178.164 16.3565 178.469 15.7632C178.774 15.1699 179.204 14.7075 179.757 14.3761C180.314 14.0447 180.967 13.879 181.716 13.879C182.22 13.879 182.689 13.9602 183.123 14.1226C183.56 14.2816 183.941 14.5219 184.266 14.8434C184.594 15.1649 184.85 15.5693 185.032 16.0565C185.214 16.5404 185.305 17.1072 185.305 17.7568V18.3385H178.857V17.026H183.312C183.312 16.721 183.245 16.4509 183.113 16.2156C182.98 15.9803 182.796 15.7963 182.561 15.6638C182.329 15.5279 182.059 15.4599 181.751 15.4599C181.429 15.4599 181.144 15.5345 180.896 15.6836C180.65 15.8295 180.458 16.0267 180.319 16.2753C180.18 16.5205 180.108 16.794 180.105 17.0956V18.3434C180.105 18.7213 180.175 19.0477 180.314 19.3228C180.456 19.5979 180.657 19.8101 180.915 19.9592C181.174 20.1084 181.481 20.1829 181.835 20.1829C182.071 20.1829 182.286 20.1498 182.481 20.0835C182.677 20.0172 182.844 19.9178 182.984 19.7852C183.123 19.6526 183.229 19.4902 183.302 19.298L185.261 19.4272C185.161 19.8979 184.957 20.3089 184.649 20.6602C184.344 21.0082 183.95 21.28 183.466 21.4755C182.985 21.6678 182.43 21.7639 181.8 21.7639ZM189.501 21.739C188.921 21.739 188.396 21.5899 187.925 21.2916C187.458 20.99 187.087 20.5475 186.812 19.9642C186.54 19.3775 186.404 18.6583 186.404 17.8065C186.404 16.9315 186.545 16.204 186.827 15.624C187.108 15.0406 187.483 14.6048 187.95 14.3165C188.421 14.0248 188.936 13.879 189.496 13.879C189.924 13.879 190.28 13.9519 190.565 14.0977C190.854 14.2402 191.086 14.4192 191.261 14.6346C191.44 14.8468 191.576 15.0556 191.669 15.2611H191.734V11.4329H193.847V21.6147H191.758V20.3917H191.669C191.57 20.6039 191.429 20.8143 191.246 21.0231C191.067 21.2286 190.834 21.3993 190.545 21.5352C190.26 21.6711 189.912 21.739 189.501 21.739ZM190.173 20.0537C190.514 20.0537 190.802 19.9609 191.038 19.7753C191.276 19.5863 191.459 19.3228 191.584 18.9848C191.714 18.6467 191.778 18.2506 191.778 17.7966C191.778 17.3425 191.715 16.9481 191.589 16.6133C191.463 16.2786 191.281 16.02 191.043 15.8378C190.804 15.6555 190.514 15.5643 190.173 15.5643C189.825 15.5643 189.531 15.6588 189.293 15.8477C189.054 16.0366 188.873 16.2985 188.751 16.6332C188.628 16.968 188.567 17.3557 188.567 17.7966C188.567 18.2407 188.628 18.6334 188.751 18.9748C188.877 19.3129 189.057 19.5781 189.293 19.7703C189.531 19.9592 189.825 20.0537 190.173 20.0537ZM21.7959 42.7639C21.0137 42.7639 20.3409 42.5982 19.7775 42.2667C19.2173 41.932 18.7865 41.468 18.4849 40.8747C18.1866 40.2814 18.0374 39.5986 18.0374 38.8264C18.0374 38.0442 18.1882 37.3581 18.4898 36.7682C18.7948 36.1749 19.2273 35.7125 19.7874 35.3811C20.3476 35.0463 21.0137 34.879 21.786 34.879C22.4522 34.879 23.0355 34.9999 23.536 35.2419C24.0365 35.4838 24.4325 35.8236 24.7242 36.2611C25.0159 36.6986 25.1766 37.2123 25.2065 37.8022H23.2079C23.1515 37.4211 23.0024 37.1145 22.7604 36.8825C22.5218 36.6472 22.2086 36.5295 21.8208 36.5295C21.4927 36.5295 21.206 36.619 20.9607 36.798C20.7188 36.9736 20.5298 37.2305 20.394 37.5686C20.2581 37.9066 20.1901 38.316 20.1901 38.7966C20.1901 39.2838 20.2564 39.6981 20.389 40.0395C20.5249 40.3808 20.7155 40.641 20.9607 40.82C21.206 40.999 21.4927 41.0885 21.8208 41.0885C22.0628 41.0885 22.2798 41.0388 22.4721 40.9393C22.6676 40.8399 22.8284 40.6957 22.9543 40.5068C23.0836 40.3146 23.1681 40.0842 23.2079 39.8157H25.2065C25.1733 40.3991 25.0142 40.9128 24.7292 41.3569C24.4475 41.7977 24.058 42.1424 23.5609 42.391C23.0637 42.6396 22.4754 42.7639 21.7959 42.7639ZM28.74 42.7589C28.2528 42.7589 27.8186 42.6744 27.4375 42.5054C27.0563 42.333 26.7547 42.0795 26.5326 41.7447C26.3139 41.4066 26.2045 40.9857 26.2045 40.4819C26.2045 40.0577 26.2824 39.7014 26.4382 39.413C26.5939 39.1247 26.8061 38.8927 27.0745 38.717C27.343 38.5414 27.6479 38.4088 27.9893 38.3193C28.334 38.2298 28.6953 38.1668 29.0731 38.1304C29.5172 38.084 29.8752 38.0409 30.147 38.0011C30.4188 37.958 30.616 37.895 30.7386 37.8122C30.8612 37.7293 30.9225 37.6067 30.9225 37.4443V37.4145C30.9225 37.0996 30.8231 36.856 30.6242 36.6836C30.4287 36.5113 30.1503 36.4251 29.789 36.4251C29.4079 36.4251 29.1046 36.5096 28.8792 36.6787C28.6538 36.8444 28.5047 37.0532 28.4318 37.3051L26.473 37.146C26.5724 36.682 26.7679 36.2809 27.0596 35.9429C27.3513 35.6015 27.7275 35.3397 28.1882 35.1574C28.6522 34.9718 29.1891 34.879 29.799 34.879C30.2232 34.879 30.6292 34.9287 31.017 35.0281C31.4081 35.1275 31.7545 35.2816 32.0561 35.4905C32.361 35.6993 32.6013 35.9677 32.7769 36.2959C32.9526 36.6207 33.0404 37.0101 33.0404 37.4642V42.6147H31.0319V41.5558H30.9723C30.8496 41.7944 30.6856 42.0049 30.4801 42.1872C30.2746 42.3662 30.0277 42.507 29.7393 42.6098C29.451 42.7092 29.1179 42.7589 28.74 42.7589ZM29.3465 41.2973C29.6581 41.2973 29.9332 41.236 30.1718 41.1133C30.4105 40.9874 30.5977 40.8183 30.7336 40.6062C30.8695 40.3941 30.9375 40.1538 30.9375 39.8853V39.075C30.8712 39.1181 30.78 39.1578 30.664 39.1943C30.5513 39.2274 30.4237 39.2589 30.2812 39.2888C30.1387 39.3153 29.9962 39.3401 29.8536 39.3633C29.7111 39.3832 29.5819 39.4014 29.4659 39.418C29.2173 39.4545 29.0002 39.5125 28.8146 39.592C28.629 39.6716 28.4848 39.7793 28.3821 39.9152C28.2793 40.0477 28.2279 40.2135 28.2279 40.4123C28.2279 40.7007 28.3323 40.9211 28.5411 41.0736C28.7533 41.2227 29.0217 41.2973 29.3465 41.2973ZM41.0372 37.1559L39.0983 37.2753C39.0652 37.1095 38.9939 36.9604 38.8845 36.8278C38.7752 36.6919 38.631 36.5842 38.452 36.5047C38.2764 36.4218 38.0659 36.3804 37.8206 36.3804C37.4925 36.3804 37.2157 36.45 36.9904 36.5892C36.765 36.7251 36.6523 36.9074 36.6523 37.1361C36.6523 37.3183 36.7252 37.4725 36.871 37.5984C37.0169 37.7244 37.2671 37.8254 37.6218 37.9017L39.0039 38.1801C39.7463 38.3325 40.2998 38.5778 40.6644 38.9159C41.029 39.254 41.2112 39.6981 41.2112 40.2483C41.2112 40.7487 41.0638 41.1879 40.7688 41.5657C40.4771 41.9436 40.0761 42.2386 39.5657 42.4507C39.0585 42.6595 38.4736 42.7639 37.8107 42.7639C36.7998 42.7639 35.9944 42.5534 35.3945 42.1325C34.7979 41.7083 34.4482 41.1316 34.3455 40.4024L36.4286 40.293C36.4916 40.6013 36.644 40.8366 36.886 40.999C37.1279 41.1581 37.4378 41.2376 37.8157 41.2376C38.1869 41.2376 38.4852 41.1664 38.7105 41.0238C38.9392 40.878 39.0552 40.6907 39.0585 40.462C39.0552 40.2698 38.974 40.1124 38.8149 39.9897C38.6559 39.8638 38.4106 39.7677 38.0791 39.7014L36.7567 39.4379C36.011 39.2888 35.4558 39.0302 35.0912 38.6623C34.73 38.2944 34.5493 37.8254 34.5493 37.2554C34.5493 36.7648 34.6819 36.3423 34.947 35.9876C35.2155 35.633 35.5917 35.3595 36.0756 35.1673C36.5628 34.9751 37.1329 34.879 37.7858 34.879C38.7503 34.879 39.5093 35.0828 40.0628 35.4905C40.6196 35.8981 40.9444 36.4533 41.0372 37.1559ZM44.6628 38.2V42.6147H42.5449V32.4329H44.6031V36.3257H44.6926C44.865 35.8749 45.1434 35.5219 45.5278 35.2667C45.9123 35.0082 46.3945 34.879 46.9746 34.879C47.5049 34.879 47.9672 34.995 48.3616 35.227C48.7594 35.4557 49.0676 35.7854 49.2864 36.2163C49.5084 36.6439 49.6178 37.1559 49.6145 37.7525V42.6147H47.4966V38.1304C47.4999 37.6597 47.3806 37.2935 47.1386 37.0316C46.9 36.7698 46.5652 36.6389 46.1344 36.6389C45.846 36.6389 45.5908 36.7002 45.3687 36.8228C45.15 36.9455 44.9776 37.1245 44.8517 37.3598C44.7291 37.5918 44.6661 37.8718 44.6628 38.2ZM51.321 42.6147V32.4329H53.4389V36.2611H53.5035C53.5963 36.0556 53.7305 35.8468 53.9062 35.6346C54.0852 35.4192 54.3172 35.2402 54.6022 35.0977C54.8906 34.9519 55.2485 34.879 55.6761 34.879C56.2329 34.879 56.7466 35.0248 57.2173 35.3165C57.6879 35.6048 58.0641 36.0406 58.3458 36.624C58.6276 37.204 58.7684 37.9315 58.7684 38.8065C58.7684 39.6583 58.6309 40.3775 58.3558 40.9642C58.084 41.5475 57.7128 41.99 57.2421 42.2916C56.7748 42.5899 56.2511 42.739 55.6711 42.739C55.2601 42.739 54.9105 42.6711 54.6221 42.5352C54.3371 42.3993 54.1034 42.2286 53.9211 42.0231C53.7388 41.8143 53.5996 41.6039 53.5035 41.3917H53.409V42.6147H51.321ZM53.3941 38.7966C53.3941 39.2506 53.4571 39.6467 53.5831 39.9848C53.709 40.3228 53.8913 40.5863 54.1299 40.7753C54.3686 40.9609 54.6586 41.0537 55 41.0537C55.3447 41.0537 55.6363 40.9592 55.875 40.7703C56.1136 40.5781 56.2942 40.3129 56.4169 39.9748C56.5428 39.6334 56.6058 39.2407 56.6058 38.7966C56.6058 38.3557 56.5445 37.968 56.4218 37.6332C56.2992 37.2985 56.1186 37.0366 55.8799 36.8477C55.6413 36.6588 55.348 36.5643 55 36.5643C54.6553 36.5643 54.3636 36.6555 54.125 36.8378C53.8896 37.02 53.709 37.2786 53.5831 37.6133C53.4571 37.9481 53.3941 38.3425 53.3941 38.7966ZM62.3592 42.7589C61.8719 42.7589 61.4378 42.6744 61.0566 42.5054C60.6754 42.333 60.3738 42.0795 60.1518 41.7447C59.933 41.4066 59.8236 40.9857 59.8236 40.4819C59.8236 40.0577 59.9015 39.7014 60.0573 39.413C60.2131 39.1247 60.4252 38.8927 60.6937 38.717C60.9621 38.5414 61.2671 38.4088 61.6084 38.3193C61.9531 38.2298 62.3144 38.1668 62.6922 38.1304C63.1364 38.084 63.4943 38.0409 63.7661 38.0011C64.0379 37.958 64.2351 37.895 64.3577 37.8122C64.4804 37.7293 64.5417 37.6067 64.5417 37.4443V37.4145C64.5417 37.0996 64.4422 36.856 64.2434 36.6836C64.0478 36.5113 63.7694 36.4251 63.4082 36.4251C63.027 36.4251 62.7237 36.5096 62.4984 36.6787C62.273 36.8444 62.1238 37.0532 62.0509 37.3051L60.0921 37.146C60.1915 36.682 60.3871 36.2809 60.6788 35.9429C60.9704 35.6015 61.3466 35.3397 61.8073 35.1574C62.2713 34.9718 62.8083 34.879 63.4181 34.879C63.8423 34.879 64.2484 34.9287 64.6361 35.0281C65.0272 35.1275 65.3736 35.2816 65.6752 35.4905C65.9801 35.6993 66.2204 35.9677 66.3961 36.2959C66.5717 36.6207 66.6596 37.0101 66.6596 37.4642V42.6147H64.6511V41.5558H64.5914C64.4688 41.7944 64.3047 42.0049 64.0992 42.1872C63.8937 42.3662 63.6468 42.507 63.3584 42.6098C63.0701 42.7092 62.737 42.7589 62.3592 42.7589ZM62.9657 41.2973C63.2772 41.2973 63.5523 41.236 63.791 41.1133C64.0296 40.9874 64.2169 40.8183 64.3528 40.6062C64.4887 40.3941 64.5566 40.1538 64.5566 39.8853V39.075C64.4903 39.1181 64.3992 39.1578 64.2832 39.1943C64.1705 39.2274 64.0429 39.2589 63.9003 39.2888C63.7578 39.3153 63.6153 39.3401 63.4728 39.3633C63.3303 39.3832 63.201 39.4014 63.085 39.418C62.8364 39.4545 62.6193 39.5125 62.4337 39.592C62.2481 39.6716 62.1039 39.7793 62.0012 39.9152C61.8985 40.0477 61.8471 40.2135 61.8471 40.4123C61.8471 40.7007 61.9515 40.9211 62.1603 41.0736C62.3724 41.2227 62.6409 41.2973 62.9657 41.2973ZM71.753 42.7639C70.9708 42.7639 70.298 42.5982 69.7345 42.2667C69.1744 41.932 68.7435 41.468 68.4419 40.8747C68.1436 40.2814 67.9945 39.5986 67.9945 38.8264C67.9945 38.0442 68.1453 37.3581 68.4469 36.7682C68.7518 36.1749 69.1843 35.7125 69.7445 35.3811C70.3046 35.0463 70.9708 34.879 71.743 34.879C72.4092 34.879 72.9926 34.9999 73.493 35.2419C73.9935 35.4838 74.3896 35.8236 74.6812 36.2611C74.9729 36.6986 75.1337 37.2123 75.1635 37.8022H73.1649C73.1086 37.4211 72.9594 37.1145 72.7175 36.8825C72.4788 36.6472 72.1656 36.5295 71.7778 36.5295C71.4497 36.5295 71.163 36.619 70.9177 36.798C70.6758 36.9736 70.4869 37.2305 70.351 37.5686C70.2151 37.9066 70.1472 38.316 70.1472 38.7966C70.1472 39.2838 70.2134 39.6981 70.346 40.0395C70.4819 40.3808 70.6725 40.641 70.9177 40.82C71.163 40.999 71.4497 41.0885 71.7778 41.0885C72.0198 41.0885 72.2369 41.0388 72.4291 40.9393C72.6247 40.8399 72.7854 40.6957 72.9114 40.5068C73.0406 40.3146 73.1251 40.0842 73.1649 39.8157H75.1635C75.1303 40.3991 74.9713 40.9128 74.6862 41.3569C74.4045 41.7977 74.015 42.1424 73.5179 42.391C73.0207 42.6396 72.4324 42.7639 71.753 42.7639ZM78.4385 40.4173L78.4435 37.8768H78.7517L81.1978 34.9784H83.6289L80.3426 38.8165H79.8405L78.4385 40.4173ZM76.5195 42.6147V32.4329H78.6374V42.6147H76.5195ZM81.2922 42.6147L79.0451 39.2888L80.457 37.7923L83.773 42.6147H81.2922Z" fill="black"/>
</svg>
