<svg width="221" height="108" viewBox="0 0 221 108" fill="none" xmlns="http://www.w3.org/2000/svg">
<rect y="0.786865" width="210.729" height="107.213" rx="10" fill="#FFF5D4"/>
<path d="M18.3064 79.3688H17.2908L20.2283 71.3688H21.2283L24.1658 79.3688H23.1501L20.7595 72.6344H20.697L18.3064 79.3688ZM18.6814 76.2438H22.7751V77.1031H18.6814V76.2438ZM25.2869 81.6188V73.3688H26.1775V74.3219H26.2869C26.3546 74.2177 26.4483 74.0849 26.5681 73.9235C26.6905 73.7594 26.865 73.6136 27.0916 73.486C27.3207 73.3558 27.6306 73.2906 28.0212 73.2906C28.5264 73.2906 28.9718 73.417 29.3572 73.6696C29.7426 73.9222 30.0434 74.2802 30.2595 74.7438C30.4757 75.2073 30.5837 75.7542 30.5837 76.3844C30.5837 77.0198 30.4757 77.5706 30.2595 78.0367C30.0434 78.5003 29.7439 78.8597 29.3611 79.1149C28.9783 79.3675 28.5369 79.4938 28.0369 79.4938C27.6514 79.4938 27.3429 79.43 27.1111 79.3024C26.8793 79.1722 26.7009 79.025 26.5759 78.861C26.4509 78.6943 26.3546 78.5563 26.2869 78.4469H26.2087V81.6188H25.2869ZM26.1931 76.3688C26.1931 76.8219 26.2595 77.2216 26.3923 77.568C26.5251 77.9117 26.7192 78.1813 26.9744 78.3766C27.2296 78.5693 27.5421 78.6656 27.9119 78.6656C28.2973 78.6656 28.6189 78.5641 28.8767 78.361C29.1371 78.1552 29.3324 77.8792 29.4626 77.5328C29.5955 77.1839 29.6619 76.7959 29.6619 76.3688C29.6619 75.9469 29.5968 75.5667 29.4666 75.2281C29.3389 74.887 29.1449 74.6175 28.8845 74.4196C28.6267 74.219 28.3025 74.1188 27.9119 74.1188C27.5369 74.1188 27.2218 74.2138 26.9666 74.4039C26.7113 74.5914 26.5186 74.8545 26.3884 75.193C26.2582 75.5289 26.1931 75.9209 26.1931 76.3688ZM31.99 81.6188V73.3688H32.8806V74.3219H32.99C33.0577 74.2177 33.1514 74.0849 33.2712 73.9235C33.3936 73.7594 33.5681 73.6136 33.7947 73.486C34.0238 73.3558 34.3337 73.2906 34.7244 73.2906C35.2296 73.2906 35.6749 73.417 36.0603 73.6696C36.4457 73.9222 36.7465 74.2802 36.9626 74.7438C37.1788 75.2073 37.2869 75.7542 37.2869 76.3844C37.2869 77.0198 37.1788 77.5706 36.9626 78.0367C36.7465 78.5003 36.447 78.8597 36.0642 79.1149C35.6814 79.3675 35.24 79.4938 34.74 79.4938C34.3546 79.4938 34.046 79.43 33.8142 79.3024C33.5824 79.1722 33.4041 79.025 33.2791 78.861C33.1541 78.6943 33.0577 78.5563 32.99 78.4469H32.9119V81.6188H31.99ZM32.8962 76.3688C32.8962 76.8219 32.9626 77.2216 33.0955 77.568C33.2283 77.9117 33.4223 78.1813 33.6775 78.3766C33.9327 78.5693 34.2452 78.6656 34.615 78.6656C35.0004 78.6656 35.322 78.5641 35.5798 78.361C35.8403 78.1552 36.0356 77.8792 36.1658 77.5328C36.2986 77.1839 36.365 76.7959 36.365 76.3688C36.365 75.9469 36.2999 75.5667 36.1697 75.2281C36.0421 74.887 35.8481 74.6175 35.5876 74.4196C35.3298 74.219 35.0056 74.1188 34.615 74.1188C34.24 74.1188 33.9249 74.2138 33.6697 74.4039C33.4145 74.5914 33.2218 74.8545 33.0916 75.193C32.9613 75.5289 32.8962 75.9209 32.8962 76.3688ZM39.615 71.3688V79.3688H38.6931V71.3688H39.615ZM41.8972 81.6188C41.741 81.6188 41.6016 81.6058 41.4792 81.5797C41.3569 81.5563 41.2722 81.5328 41.2253 81.5094L41.4597 80.6969C41.6837 80.7542 41.8816 80.775 42.0535 80.7594C42.2253 80.7438 42.3777 80.667 42.5105 80.5289C42.6459 80.3935 42.7696 80.1735 42.8816 79.8688L43.0535 79.4L40.8347 73.3688H41.8347L43.491 78.15H43.5535L45.2097 73.3688H46.2097L43.6628 80.2438C43.5483 80.5537 43.4063 80.8102 43.2371 81.0133C43.0678 81.219 42.8712 81.3714 42.6472 81.4703C42.4259 81.5693 42.1759 81.6188 41.8972 81.6188ZM53.1296 73.3688V74.15H50.0203V73.3688H53.1296ZM50.9265 71.9313H51.8484V77.65C51.8484 77.9104 51.8861 78.1058 51.9617 78.236C52.0398 78.3636 52.1388 78.4495 52.2585 78.4938C52.3809 78.5354 52.5098 78.5563 52.6453 78.5563C52.7468 78.5563 52.8302 78.5511 52.8953 78.5406C52.9604 78.5276 53.0125 78.5172 53.0515 78.5094L53.239 79.3375C53.1765 79.361 53.0893 79.3844 52.9773 79.4078C52.8653 79.4339 52.7234 79.4469 52.5515 79.4469C52.2911 79.4469 52.0359 79.3909 51.7859 79.2789C51.5385 79.167 51.3328 78.9964 51.1687 78.7672C51.0072 78.538 50.9265 78.249 50.9265 77.9V71.9313ZM55.5671 75.7594V79.3688H54.6453V71.3688H55.5671V74.3063H55.6453C55.7859 73.9964 55.9968 73.7503 56.2781 73.568C56.5619 73.3831 56.9395 73.2906 57.4109 73.2906C57.8197 73.2906 58.1778 73.3727 58.4851 73.5367C58.7924 73.6982 59.0307 73.9469 59.2 74.2828C59.3718 74.6162 59.4578 75.0406 59.4578 75.5563V79.3688H58.5359V75.6188C58.5359 75.1422 58.4122 74.7737 58.1648 74.5133C57.92 74.2503 57.5802 74.1188 57.1453 74.1188C56.8432 74.1188 56.5723 74.1826 56.3328 74.3102C56.0958 74.4378 55.9083 74.624 55.7703 74.8688C55.6348 75.1136 55.5671 75.4104 55.5671 75.7594ZM63.6599 79.4938C63.0818 79.4938 62.5831 79.3662 62.1638 79.111C61.7472 78.8531 61.4255 78.4938 61.199 78.0328C60.975 77.5693 60.863 77.0302 60.863 76.4156C60.863 75.8011 60.975 75.2594 61.199 74.7906C61.4255 74.3193 61.7406 73.9521 62.1443 73.6891C62.5505 73.4235 63.0245 73.2906 63.5662 73.2906C63.8787 73.2906 64.1873 73.3427 64.4919 73.4469C64.7966 73.5511 65.074 73.7203 65.324 73.9547C65.574 74.1865 65.7732 74.4938 65.9216 74.8766C66.0701 75.2594 66.1443 75.7308 66.1443 76.2906V76.6813H61.5193V75.8844H65.2068C65.2068 75.5459 65.1391 75.2438 65.0037 74.9781C64.8708 74.7125 64.6807 74.5029 64.4333 74.3492C64.1886 74.1956 63.8995 74.1188 63.5662 74.1188C63.199 74.1188 62.8813 74.2099 62.613 74.3922C62.3474 74.5719 62.143 74.8063 61.9998 75.0953C61.8565 75.3844 61.7849 75.6943 61.7849 76.025V76.5563C61.7849 77.0094 61.863 77.3935 62.0193 77.7086C62.1781 78.0211 62.3982 78.2594 62.6794 78.4235C62.9607 78.5849 63.2875 78.6656 63.6599 78.6656C63.9021 78.6656 64.1208 78.6318 64.3162 78.5641C64.5141 78.4938 64.6847 78.3896 64.8279 78.2516C64.9711 78.111 65.0818 77.9365 65.1599 77.7281L66.0505 77.9781C65.9568 78.2802 65.7992 78.5459 65.5779 78.775C65.3565 79.0016 65.0831 79.1787 64.7576 79.3063C64.432 79.4313 64.0662 79.4938 63.6599 79.4938ZM73.0779 79.4938C72.5154 79.4938 72.031 79.361 71.6248 79.0953C71.2185 78.8297 70.906 78.4638 70.6873 77.9977C70.4685 77.5315 70.3591 76.999 70.3591 76.4C70.3591 75.7906 70.4711 75.2529 70.6951 74.7867C70.9216 74.318 71.2367 73.9521 71.6404 73.6891C72.0466 73.4235 72.5206 73.2906 73.0623 73.2906C73.4841 73.2906 73.8643 73.3688 74.2029 73.525C74.5414 73.6813 74.8188 73.9 75.0349 74.1813C75.2511 74.4625 75.3852 74.7906 75.4373 75.1656H74.5154C74.4451 74.8922 74.2888 74.65 74.0466 74.4391C73.807 74.2255 73.4841 74.1188 73.0779 74.1188C72.7185 74.1188 72.4034 74.2125 72.1326 74.4C71.8643 74.5849 71.6547 74.8466 71.5037 75.1852C71.3552 75.5211 71.281 75.9156 71.281 76.3688C71.281 76.8323 71.3539 77.236 71.4998 77.5797C71.6482 77.9235 71.8565 78.1904 72.1248 78.3805C72.3956 78.5706 72.7133 78.6656 73.0779 78.6656C73.3175 78.6656 73.5349 78.624 73.7302 78.5406C73.9255 78.4573 74.0909 78.3375 74.2263 78.1813C74.3617 78.025 74.4581 77.8375 74.5154 77.6188H75.4373C75.3852 77.9729 75.2563 78.292 75.0505 78.5758C74.8474 78.8571 74.5779 79.081 74.2419 79.2477C73.9086 79.4117 73.5206 79.4938 73.0779 79.4938ZM79.2224 79.4938C78.6807 79.4938 78.2055 79.3649 77.7966 79.1071C77.3904 78.8492 77.0727 78.4886 76.8435 78.025C76.6169 77.5615 76.5037 77.0198 76.5037 76.4C76.5037 75.775 76.6169 75.2295 76.8435 74.7633C77.0727 74.2972 77.3904 73.9352 77.7966 73.6774C78.2055 73.4196 78.6807 73.2906 79.2224 73.2906C79.7641 73.2906 80.238 73.4196 80.6443 73.6774C81.0531 73.9352 81.3708 74.2972 81.5974 74.7633C81.8266 75.2295 81.9412 75.775 81.9412 76.4C81.9412 77.0198 81.8266 77.5615 81.5974 78.025C81.3708 78.4886 81.0531 78.8492 80.6443 79.1071C80.238 79.3649 79.7641 79.4938 79.2224 79.4938ZM79.2224 78.6656C79.6339 78.6656 79.9724 78.5602 80.238 78.3492C80.5037 78.1383 80.7003 77.861 80.8279 77.5172C80.9555 77.1735 81.0193 76.8011 81.0193 76.4C81.0193 75.999 80.9555 75.6253 80.8279 75.2789C80.7003 74.9326 80.5037 74.6526 80.238 74.4391C79.9724 74.2255 79.6339 74.1188 79.2224 74.1188C78.811 74.1188 78.4724 74.2255 78.2068 74.4391C77.9412 74.6526 77.7445 74.9326 77.6169 75.2789C77.4893 75.6253 77.4255 75.999 77.4255 76.4C77.4255 76.8011 77.4893 77.1735 77.6169 77.5172C77.7445 77.861 77.9412 78.1383 78.2068 78.3492C78.4724 78.5602 78.811 78.6656 79.2224 78.6656ZM87.1296 76.9156V73.3688H88.0515V79.3688H87.1296V78.3531H87.0671C86.9265 78.6578 86.7078 78.917 86.4109 79.1305C86.114 79.3414 85.739 79.4469 85.2859 79.4469C84.9109 79.4469 84.5776 79.3649 84.2859 79.2008C83.9942 79.0341 83.7651 78.7841 83.5984 78.4508C83.4317 78.1149 83.3484 77.6917 83.3484 77.1813V73.3688H84.2703V77.1188C84.2703 77.5563 84.3927 77.9052 84.6375 78.1656C84.8848 78.4261 85.2 78.5563 85.5828 78.5563C85.8119 78.5563 86.045 78.4977 86.282 78.3805C86.5216 78.2633 86.7221 78.0836 86.8835 77.8414C87.0476 77.5992 87.1296 77.2906 87.1296 76.9156ZM89.74 81.6188V73.3688H90.6306V74.3219H90.74C90.8077 74.2177 90.9014 74.0849 91.0212 73.9235C91.1436 73.7594 91.3181 73.6136 91.5447 73.486C91.7738 73.3558 92.0837 73.2906 92.4744 73.2906C92.9796 73.2906 93.4249 73.417 93.8103 73.6696C94.1957 73.9222 94.4965 74.2802 94.7126 74.7438C94.9288 75.2073 95.0369 75.7542 95.0369 76.3844C95.0369 77.0198 94.9288 77.5706 94.7126 78.0367C94.4965 78.5003 94.197 78.8597 93.8142 79.1149C93.4314 79.3675 92.99 79.4938 92.49 79.4938C92.1046 79.4938 91.796 79.43 91.5642 79.3024C91.3324 79.1722 91.1541 79.025 91.0291 78.861C90.9041 78.6943 90.8077 78.5563 90.74 78.4469H90.6619V81.6188H89.74ZM90.6462 76.3688C90.6462 76.8219 90.7126 77.2216 90.8455 77.568C90.9783 77.9117 91.1723 78.1813 91.4275 78.3766C91.6827 78.5693 91.9952 78.6656 92.365 78.6656C92.7504 78.6656 93.072 78.5641 93.3298 78.361C93.5903 78.1552 93.7856 77.8792 93.9158 77.5328C94.0486 77.1839 94.115 76.7959 94.115 76.3688C94.115 75.9469 94.0499 75.5667 93.9197 75.2281C93.7921 74.887 93.5981 74.6175 93.3376 74.4196C93.0798 74.219 92.7556 74.1188 92.365 74.1188C91.99 74.1188 91.6749 74.2138 91.4197 74.4039C91.1645 74.5914 90.9718 74.8545 90.8416 75.193C90.7113 75.5289 90.6462 75.9209 90.6462 76.3688ZM98.8806 79.4938C98.3389 79.4938 97.8637 79.3649 97.4548 79.1071C97.0486 78.8492 96.7309 78.4886 96.5017 78.025C96.2751 77.5615 96.1619 77.0198 96.1619 76.4C96.1619 75.775 96.2751 75.2295 96.5017 74.7633C96.7309 74.2972 97.0486 73.9352 97.4548 73.6774C97.8637 73.4196 98.3389 73.2906 98.8806 73.2906C99.4223 73.2906 99.8962 73.4196 100.302 73.6774C100.711 73.9352 101.029 74.2972 101.256 74.7633C101.485 75.2295 101.599 75.775 101.599 76.4C101.599 77.0198 101.485 77.5615 101.256 78.025C101.029 78.4886 100.711 78.8492 100.302 79.1071C99.8962 79.3649 99.4223 79.4938 98.8806 79.4938ZM98.8806 78.6656C99.2921 78.6656 99.6306 78.5602 99.8962 78.3492C100.162 78.1383 100.358 77.861 100.486 77.5172C100.614 77.1735 100.677 76.8011 100.677 76.4C100.677 75.999 100.614 75.6253 100.486 75.2789C100.358 74.9326 100.162 74.6526 99.8962 74.4391C99.6306 74.2255 99.2921 74.1188 98.8806 74.1188C98.4692 74.1188 98.1306 74.2255 97.865 74.4391C97.5994 74.6526 97.4028 74.9326 97.2751 75.2789C97.1475 75.6253 97.0837 75.999 97.0837 76.4C97.0837 76.8011 97.1475 77.1735 97.2751 77.5172C97.4028 77.861 97.5994 78.1383 97.865 78.3492C98.1306 78.5602 98.4692 78.6656 98.8806 78.6656ZM103.928 75.7594V79.3688H103.007V73.3688H103.897V74.3063H103.975C104.116 74.0016 104.33 73.7568 104.616 73.5719C104.902 73.3844 105.272 73.2906 105.725 73.2906C106.132 73.2906 106.487 73.374 106.792 73.5406C107.096 73.7047 107.333 73.9547 107.503 74.2906C107.672 74.624 107.757 75.0459 107.757 75.5563V79.3688H106.835V75.6188C106.835 75.1474 106.712 74.7802 106.468 74.5172C106.223 74.2516 105.887 74.1188 105.46 74.1188C105.165 74.1188 104.902 74.1826 104.671 74.3102C104.441 74.4378 104.26 74.624 104.128 74.8688C103.995 75.1136 103.928 75.4104 103.928 75.7594ZM114.301 79.5094C113.92 79.5094 113.575 79.4378 113.265 79.2946C112.955 79.1487 112.709 78.9391 112.527 78.6656C112.345 78.3896 112.254 78.0563 112.254 77.6656C112.254 77.3219 112.321 77.0433 112.457 76.8297C112.592 76.6136 112.773 76.4443 113 76.3219C113.226 76.1995 113.476 76.1084 113.75 76.0485C114.026 75.986 114.303 75.9365 114.582 75.9C114.946 75.8531 115.242 75.818 115.469 75.7946C115.698 75.7685 115.864 75.7255 115.969 75.6656C116.075 75.6058 116.129 75.5016 116.129 75.3531V75.3219C116.129 74.9365 116.023 74.637 115.812 74.4235C115.604 74.2099 115.288 74.1031 114.863 74.1031C114.423 74.1031 114.078 74.1995 113.828 74.3922C113.578 74.5849 113.402 74.7906 113.301 75.0094L112.426 74.6969C112.582 74.3323 112.79 74.0485 113.051 73.8453C113.314 73.6396 113.6 73.4964 113.91 73.4156C114.222 73.3323 114.53 73.2906 114.832 73.2906C115.024 73.2906 115.246 73.3141 115.496 73.361C115.748 73.4052 115.992 73.4977 116.226 73.6383C116.463 73.7789 116.66 73.9912 116.816 74.275C116.972 74.5589 117.051 74.9391 117.051 75.4156V79.3688H116.129V78.5563H116.082C116.019 78.6865 115.915 78.8258 115.769 78.9742C115.623 79.1227 115.429 79.249 115.187 79.3531C114.945 79.4573 114.649 79.5094 114.301 79.5094ZM114.441 78.6813C114.806 78.6813 115.113 78.6097 115.363 78.4664C115.616 78.3232 115.806 78.1383 115.933 77.9117C116.064 77.6852 116.129 77.4469 116.129 77.1969V76.3531C116.09 76.4 116.004 76.443 115.871 76.4821C115.741 76.5185 115.59 76.5511 115.418 76.5797C115.248 76.6058 115.083 76.6292 114.922 76.65C114.763 76.6683 114.634 76.6839 114.535 76.6969C114.295 76.7281 114.071 76.7789 113.863 76.8492C113.657 76.917 113.491 77.0198 113.363 77.1578C113.238 77.2933 113.176 77.4781 113.176 77.7125C113.176 78.0328 113.294 78.275 113.531 78.4391C113.771 78.6005 114.074 78.6813 114.441 78.6813ZM119.655 75.7594V79.3688H118.733V73.3688H119.624V74.3063H119.702C119.843 74.0016 120.056 73.7568 120.343 73.5719C120.629 73.3844 120.999 73.2906 121.452 73.2906C121.858 73.2906 122.214 73.374 122.518 73.5406C122.823 73.7047 123.06 73.9547 123.229 74.2906C123.399 74.624 123.483 75.0459 123.483 75.5563V79.3688H122.561V75.6188C122.561 75.1474 122.439 74.7802 122.194 74.5172C121.949 74.2516 121.613 74.1188 121.186 74.1188C120.892 74.1188 120.629 74.1826 120.397 74.3102C120.168 74.4378 119.987 74.624 119.854 74.8688C119.721 75.1136 119.655 75.4104 119.655 75.7594ZM127.433 79.4938C126.933 79.4938 126.492 79.3675 126.109 79.1149C125.726 78.8597 125.427 78.5003 125.211 78.0367C124.995 77.5706 124.886 77.0198 124.886 76.3844C124.886 75.7542 124.995 75.2073 125.211 74.7438C125.427 74.2802 125.728 73.9222 126.113 73.6696C126.498 73.417 126.944 73.2906 127.449 73.2906C127.84 73.2906 128.148 73.3558 128.375 73.486C128.604 73.6136 128.778 73.7594 128.898 73.9235C129.021 74.0849 129.116 74.2177 129.183 74.3219H129.261V71.3688H130.183V79.3688H129.293V78.4469H129.183C129.116 78.5563 129.019 78.6943 128.894 78.861C128.769 79.025 128.591 79.1722 128.359 79.3024C128.127 79.43 127.819 79.4938 127.433 79.4938ZM127.558 78.6656C127.928 78.6656 128.241 78.5693 128.496 78.3766C128.751 78.1813 128.945 77.9117 129.078 77.568C129.211 77.2216 129.277 76.8219 129.277 76.3688C129.277 75.9209 129.212 75.5289 129.082 75.193C128.952 74.8545 128.759 74.5914 128.504 74.4039C128.248 74.2138 127.933 74.1188 127.558 74.1188C127.168 74.1188 126.842 74.219 126.582 74.4196C126.324 74.6175 126.13 74.887 126 75.2281C125.872 75.5667 125.808 75.9469 125.808 76.3688C125.808 76.7959 125.873 77.1839 126.004 77.5328C126.136 77.8792 126.332 78.1552 126.59 78.361C126.85 78.5641 127.173 78.6656 127.558 78.6656ZM137.515 81.7438C137.07 81.7438 136.687 81.6865 136.367 81.5719C136.047 81.4599 135.78 81.3115 135.566 81.1266C135.355 80.9443 135.187 80.749 135.062 80.5406L135.797 80.025C135.88 80.1344 135.985 80.2594 136.113 80.4C136.241 80.5433 136.415 80.667 136.636 80.7711C136.86 80.8779 137.153 80.9313 137.515 80.9313C138 80.9313 138.399 80.8141 138.715 80.5797C139.03 80.3453 139.187 79.9781 139.187 79.4781V78.2594H139.109C139.041 78.3688 138.945 78.5042 138.82 78.6656C138.698 78.8245 138.521 78.9664 138.289 79.0914C138.06 79.2138 137.75 79.275 137.359 79.275C136.875 79.275 136.44 79.1604 136.054 78.9313C135.672 78.7021 135.368 78.3688 135.144 77.9313C134.923 77.4938 134.812 76.9625 134.812 76.3375C134.812 75.7229 134.92 75.1878 135.136 74.7321C135.353 74.2737 135.653 73.9196 136.039 73.6696C136.424 73.417 136.87 73.2906 137.375 73.2906C137.765 73.2906 138.075 73.3558 138.304 73.486C138.536 73.6136 138.713 73.7594 138.836 73.9235C138.961 74.0849 139.057 74.2177 139.125 74.3219H139.219V73.3688H140.109V79.5406C140.109 80.0563 139.992 80.4755 139.758 80.7985C139.526 81.124 139.213 81.3623 138.82 81.5133C138.429 81.667 137.995 81.7438 137.515 81.7438ZM137.484 78.4469C137.854 78.4469 138.166 78.3623 138.422 78.193C138.677 78.0237 138.871 77.7802 139.004 77.4625C139.136 77.1448 139.203 76.7646 139.203 76.3219C139.203 75.8896 139.138 75.5081 139.008 75.1774C138.877 74.8466 138.685 74.5875 138.429 74.4C138.174 74.2125 137.859 74.1188 137.484 74.1188C137.094 74.1188 136.768 74.2177 136.508 74.4156C136.25 74.6136 136.056 74.8792 135.926 75.2125C135.798 75.5459 135.734 75.9156 135.734 76.3219C135.734 76.7386 135.799 77.1071 135.929 77.4274C136.062 77.7451 136.258 77.9951 136.515 78.1774C136.776 78.3571 137.099 78.4469 137.484 78.4469ZM144.312 79.4938C143.734 79.4938 143.235 79.3662 142.816 79.111C142.399 78.8531 142.078 78.4938 141.851 78.0328C141.627 77.5693 141.515 77.0302 141.515 76.4156C141.515 75.8011 141.627 75.2594 141.851 74.7906C142.078 74.3193 142.393 73.9521 142.797 73.6891C143.203 73.4235 143.677 73.2906 144.219 73.2906C144.531 73.2906 144.84 73.3427 145.144 73.4469C145.449 73.5511 145.726 73.7203 145.976 73.9547C146.226 74.1865 146.426 74.4938 146.574 74.8766C146.722 75.2594 146.797 75.7308 146.797 76.2906V76.6813H142.172V75.8844H145.859C145.859 75.5459 145.791 75.2438 145.656 74.9781C145.523 74.7125 145.333 74.5029 145.086 74.3492C144.841 74.1956 144.552 74.1188 144.219 74.1188C143.851 74.1188 143.534 74.2099 143.265 74.3922C143 74.5719 142.795 74.8063 142.652 75.0953C142.509 75.3844 142.437 75.6943 142.437 76.025V76.5563C142.437 77.0094 142.515 77.3935 142.672 77.7086C142.83 78.0211 143.051 78.2594 143.332 78.4235C143.613 78.5849 143.94 78.6656 144.312 78.6656C144.554 78.6656 144.773 78.6318 144.969 78.5641C145.166 78.4938 145.337 78.3896 145.48 78.2516C145.623 78.111 145.734 77.9365 145.812 77.7281L146.703 77.9781C146.609 78.2802 146.452 78.5459 146.23 78.775C146.009 79.0016 145.735 79.1787 145.41 79.3063C145.084 79.4313 144.719 79.4938 144.312 79.4938ZM150.808 73.3688V74.15H147.699V73.3688H150.808ZM148.605 71.9313H149.527V77.65C149.527 77.9104 149.565 78.1058 149.64 78.236C149.719 78.3636 149.817 78.4495 149.937 78.4938C150.06 78.5354 150.189 78.5563 150.324 78.5563C150.426 78.5563 150.509 78.5511 150.574 78.5406C150.639 78.5276 150.691 78.5172 150.73 78.5094L150.918 79.3375C150.855 79.361 150.768 79.3844 150.656 79.4078C150.544 79.4339 150.402 79.4469 150.23 79.4469C149.97 79.4469 149.715 79.3909 149.465 79.2789C149.217 79.167 149.011 78.9964 148.847 78.7672C148.686 78.538 148.605 78.249 148.605 77.9V71.9313ZM157.711 81.7438C157.265 81.7438 156.883 81.6865 156.562 81.5719C156.242 81.4599 155.975 81.3115 155.761 81.1266C155.551 80.9443 155.383 80.749 155.258 80.5406L155.992 80.025C156.075 80.1344 156.181 80.2594 156.308 80.4C156.436 80.5433 156.61 80.667 156.832 80.7711C157.056 80.8779 157.349 80.9313 157.711 80.9313C158.195 80.9313 158.595 80.8141 158.91 80.5797C159.225 80.3453 159.383 79.9781 159.383 79.4781V78.2594H159.304C159.237 78.3688 159.14 78.5042 159.015 78.6656C158.893 78.8245 158.716 78.9664 158.484 79.0914C158.255 79.2138 157.945 79.275 157.554 79.275C157.07 79.275 156.635 79.1604 156.25 78.9313C155.867 78.7021 155.564 78.3688 155.34 77.9313C155.118 77.4938 155.008 76.9625 155.008 76.3375C155.008 75.7229 155.116 75.1878 155.332 74.7321C155.548 74.2737 155.849 73.9196 156.234 73.6696C156.62 73.417 157.065 73.2906 157.57 73.2906C157.961 73.2906 158.271 73.3558 158.5 73.486C158.732 73.6136 158.909 73.7594 159.031 73.9235C159.156 74.0849 159.252 74.2177 159.32 74.3219H159.414V73.3688H160.304V79.5406C160.304 80.0563 160.187 80.4755 159.953 80.7985C159.721 81.124 159.409 81.3623 159.015 81.5133C158.625 81.667 158.19 81.7438 157.711 81.7438ZM157.679 78.4469C158.049 78.4469 158.362 78.3623 158.617 78.193C158.872 78.0237 159.066 77.7802 159.199 77.4625C159.332 77.1448 159.398 76.7646 159.398 76.3219C159.398 75.8896 159.333 75.5081 159.203 75.1774C159.073 74.8466 158.88 74.5875 158.625 74.4C158.37 74.2125 158.054 74.1188 157.679 74.1188C157.289 74.1188 156.963 74.2177 156.703 74.4156C156.445 74.6136 156.251 74.8792 156.121 75.2125C155.993 75.5459 155.929 75.9156 155.929 76.3219C155.929 76.7386 155.995 77.1071 156.125 77.4274C156.258 77.7451 156.453 77.9951 156.711 78.1774C156.971 78.3571 157.294 78.4469 157.679 78.4469ZM161.992 79.3688V73.3688H162.883V74.275H162.945C163.054 73.9781 163.252 73.7373 163.539 73.5524C163.825 73.3675 164.148 73.275 164.508 73.275C164.575 73.275 164.66 73.2763 164.761 73.2789C164.863 73.2815 164.94 73.2854 164.992 73.2906V74.2281C164.961 74.2203 164.889 74.2086 164.777 74.193C164.668 74.1748 164.552 74.1656 164.429 74.1656C164.138 74.1656 163.877 74.2268 163.648 74.3492C163.422 74.469 163.242 74.6357 163.109 74.8492C162.979 75.0602 162.914 75.3011 162.914 75.5719V79.3688H161.992ZM168.418 79.4938C167.84 79.4938 167.341 79.3662 166.922 79.111C166.505 78.8531 166.183 78.4938 165.957 78.0328C165.733 77.5693 165.621 77.0302 165.621 76.4156C165.621 75.8011 165.733 75.2594 165.957 74.7906C166.183 74.3193 166.498 73.9521 166.902 73.6891C167.308 73.4235 167.782 73.2906 168.324 73.2906C168.636 73.2906 168.945 73.3427 169.25 73.4469C169.554 73.5511 169.832 73.7203 170.082 73.9547C170.332 74.1865 170.531 74.4938 170.679 74.8766C170.828 75.2594 170.902 75.7308 170.902 76.2906V76.6813H166.277V75.8844H169.965C169.965 75.5459 169.897 75.2438 169.761 74.9781C169.629 74.7125 169.439 74.5029 169.191 74.3492C168.946 74.1956 168.657 74.1188 168.324 74.1188C167.957 74.1188 167.639 74.2099 167.371 74.3922C167.105 74.5719 166.901 74.8063 166.758 75.0953C166.614 75.3844 166.543 75.6943 166.543 76.025V76.5563C166.543 77.0094 166.621 77.3935 166.777 77.7086C166.936 78.0211 167.156 78.2594 167.437 78.4235C167.719 78.5849 168.045 78.6656 168.418 78.6656C168.66 78.6656 168.879 78.6318 169.074 78.5641C169.272 78.4938 169.442 78.3896 169.586 78.2516C169.729 78.111 169.84 77.9365 169.918 77.7281L170.808 77.9781C170.715 78.2802 170.557 78.5459 170.336 78.775C170.114 79.0016 169.841 79.1787 169.515 79.3063C169.19 79.4313 168.824 79.4938 168.418 79.4938ZM174.07 79.5094C173.69 79.5094 173.345 79.4378 173.035 79.2946C172.725 79.1487 172.479 78.9391 172.297 78.6656C172.114 78.3896 172.023 78.0563 172.023 77.6656C172.023 77.3219 172.091 77.0433 172.226 76.8297C172.362 76.6136 172.543 76.4443 172.769 76.3219C172.996 76.1995 173.246 76.1084 173.519 76.0485C173.795 75.986 174.073 75.9365 174.351 75.9C174.716 75.8531 175.011 75.818 175.238 75.7946C175.467 75.7685 175.634 75.7255 175.738 75.6656C175.845 75.6058 175.898 75.5016 175.898 75.3531V75.3219C175.898 74.9365 175.793 74.637 175.582 74.4235C175.373 74.2099 175.057 74.1031 174.633 74.1031C174.192 74.1031 173.847 74.1995 173.597 74.3922C173.347 74.5849 173.172 74.7906 173.07 75.0094L172.195 74.6969C172.351 74.3323 172.56 74.0485 172.82 73.8453C173.083 73.6396 173.37 73.4964 173.679 73.4156C173.992 73.3323 174.299 73.2906 174.601 73.2906C174.794 73.2906 175.015 73.3141 175.265 73.361C175.518 73.4052 175.761 73.4977 175.996 73.6383C176.233 73.7789 176.429 73.9912 176.586 74.275C176.742 74.5589 176.82 74.9391 176.82 75.4156V79.3688H175.898V78.5563H175.851C175.789 78.6865 175.685 78.8258 175.539 78.9742C175.393 79.1227 175.199 79.249 174.957 79.3531C174.715 79.4573 174.419 79.5094 174.07 79.5094ZM174.211 78.6813C174.575 78.6813 174.883 78.6097 175.133 78.4664C175.385 78.3232 175.575 78.1383 175.703 77.9117C175.833 77.6852 175.898 77.4469 175.898 77.1969V76.3531C175.859 76.4 175.773 76.443 175.64 76.4821C175.51 76.5185 175.359 76.5511 175.187 76.5797C175.018 76.6058 174.853 76.6292 174.691 76.65C174.532 76.6683 174.403 76.6839 174.304 76.6969C174.065 76.7281 173.841 76.7789 173.633 76.8492C173.427 76.917 173.26 77.0198 173.133 77.1578C173.008 77.2933 172.945 77.4781 172.945 77.7125C172.945 78.0328 173.064 78.275 173.301 78.4391C173.54 78.6005 173.844 78.6813 174.211 78.6813ZM181.112 73.3688V74.15H178.003V73.3688H181.112ZM178.909 71.9313H179.831V77.65C179.831 77.9104 179.869 78.1058 179.944 78.236C180.022 78.3636 180.121 78.4495 180.241 78.4938C180.363 78.5354 180.492 78.5563 180.628 78.5563C180.729 78.5563 180.813 78.5511 180.878 78.5406C180.943 78.5276 180.995 78.5172 181.034 78.5094L181.221 79.3375C181.159 79.361 181.072 79.3844 180.96 79.4078C180.848 79.4339 180.706 79.4469 180.534 79.4469C180.274 79.4469 180.018 79.3909 179.768 79.2789C179.521 79.167 179.315 78.9964 179.151 78.7672C178.99 78.538 178.909 78.249 178.909 77.9V71.9313ZM20.1189 96.4938C19.6189 96.4938 19.1775 96.3675 18.7947 96.1149C18.4119 95.8597 18.1124 95.5003 17.8962 95.0367C17.6801 94.5706 17.572 94.0198 17.572 93.3844C17.572 92.7542 17.6801 92.2073 17.8962 91.7438C18.1124 91.2802 18.4132 90.9222 18.7986 90.6696C19.184 90.417 19.6293 90.2906 20.1345 90.2906C20.5251 90.2906 20.8337 90.3558 21.0603 90.486C21.2895 90.6136 21.4639 90.7594 21.5837 90.9235C21.7061 91.0849 21.8012 91.2177 21.8689 91.3219H21.947V88.3688H22.8689V96.3688H21.9783V95.4469H21.8689C21.8012 95.5563 21.7048 95.6943 21.5798 95.861C21.4548 96.025 21.2764 96.1722 21.0447 96.3024C20.8129 96.43 20.5043 96.4938 20.1189 96.4938ZM20.2439 95.6656C20.6137 95.6656 20.9262 95.5693 21.1814 95.3766C21.4366 95.1813 21.6306 94.9117 21.7634 94.568C21.8962 94.2216 21.9626 93.8219 21.9626 93.3688C21.9626 92.9209 21.8975 92.5289 21.7673 92.193C21.6371 91.8545 21.4444 91.5914 21.1892 91.4039C20.934 91.2138 20.6189 91.1188 20.2439 91.1188C19.8533 91.1188 19.5278 91.219 19.2673 91.4196C19.0095 91.6175 18.8155 91.887 18.6853 92.2281C18.5577 92.5667 18.4939 92.9469 18.4939 93.3688C18.4939 93.7959 18.559 94.1839 18.6892 94.5328C18.822 94.8792 19.0173 95.1552 19.2751 95.361C19.5356 95.5641 19.8585 95.6656 20.2439 95.6656ZM24.6853 96.3688V90.3688H25.6072V96.3688H24.6853ZM25.1541 89.3688C24.9744 89.3688 24.8194 89.3076 24.6892 89.1852C24.5616 89.0628 24.4978 88.9156 24.4978 88.7438C24.4978 88.5719 24.5616 88.4248 24.6892 88.3024C24.8194 88.18 24.9744 88.1188 25.1541 88.1188C25.3337 88.1188 25.4874 88.18 25.615 88.3024C25.7452 88.4248 25.8103 88.5719 25.8103 88.7438C25.8103 88.9156 25.7452 89.0628 25.615 89.1852C25.4874 89.3076 25.3337 89.3688 25.1541 89.3688ZM31.5457 91.7125L30.7175 91.9469C30.6654 91.8089 30.5886 91.6748 30.4871 91.5446C30.3881 91.4117 30.2527 91.3024 30.0808 91.2164C29.9089 91.1305 29.6889 91.0875 29.4207 91.0875C29.0535 91.0875 28.7475 91.1722 28.5027 91.3414C28.2605 91.5081 28.1394 91.7203 28.1394 91.9781C28.1394 92.2073 28.2227 92.3883 28.3894 92.5211C28.5561 92.6539 28.8165 92.7646 29.1707 92.8531L30.0613 93.0719C30.5977 93.2021 30.9975 93.4013 31.2605 93.6696C31.5235 93.9352 31.655 94.2776 31.655 94.6969C31.655 95.0406 31.5561 95.3479 31.3582 95.6188C31.1628 95.8896 30.8894 96.1031 30.5378 96.2594C30.1863 96.4156 29.7774 96.4938 29.3113 96.4938C28.6993 96.4938 28.1928 96.361 27.7917 96.0953C27.3907 95.8297 27.1368 95.4417 27.03 94.9313L27.905 94.7125C27.9884 95.0354 28.1459 95.2776 28.3777 95.4391C28.6121 95.6005 28.9181 95.6813 29.2957 95.6813C29.7253 95.6813 30.0665 95.5901 30.3191 95.4078C30.5743 95.2229 30.7019 95.0016 30.7019 94.7438C30.7019 94.5354 30.629 94.361 30.4832 94.2203C30.3373 94.0771 30.1134 93.9703 29.8113 93.9L28.8113 93.6656C28.2618 93.5354 27.8582 93.3336 27.6003 93.0602C27.3451 92.7841 27.2175 92.4391 27.2175 92.025C27.2175 91.6865 27.3126 91.387 27.5027 91.1266C27.6954 90.8662 27.9571 90.6617 28.2878 90.5133C28.6212 90.3649 28.9988 90.2906 29.4207 90.2906C30.0144 90.2906 30.4806 90.4209 30.8191 90.6813C31.1602 90.9417 31.4024 91.2854 31.5457 91.7125ZM35.4802 96.4938C34.9177 96.4938 34.4333 96.361 34.0271 96.0953C33.6208 95.8297 33.3083 95.4638 33.0896 94.9977C32.8708 94.5315 32.7615 93.999 32.7615 93.4C32.7615 92.7906 32.8735 92.2529 33.0974 91.7867C33.324 91.318 33.6391 90.9521 34.0427 90.6891C34.449 90.4235 34.9229 90.2906 35.4646 90.2906C35.8865 90.2906 36.2667 90.3688 36.6052 90.525C36.9438 90.6813 37.2211 90.9 37.4373 91.1813C37.6534 91.4625 37.7875 91.7906 37.8396 92.1656H36.9177C36.8474 91.8922 36.6912 91.65 36.449 91.4391C36.2094 91.2255 35.8865 91.1188 35.4802 91.1188C35.1208 91.1188 34.8057 91.2125 34.5349 91.4C34.2667 91.5849 34.057 91.8466 33.906 92.1852C33.7576 92.5211 33.6833 92.9156 33.6833 93.3688C33.6833 93.8323 33.7563 94.236 33.9021 94.5797C34.0505 94.9235 34.2589 95.1904 34.5271 95.3805C34.7979 95.5706 35.1156 95.6656 35.4802 95.6656C35.7198 95.6656 35.9373 95.624 36.1326 95.5406C36.3279 95.4573 36.4932 95.3375 36.6287 95.1813C36.7641 95.025 36.8604 94.8375 36.9177 94.6188H37.8396C37.7875 94.9729 37.6586 95.292 37.4529 95.5758C37.2498 95.8571 36.9802 96.081 36.6443 96.2477C36.311 96.4117 35.9229 96.4938 35.4802 96.4938ZM41.6248 96.4938C41.0831 96.4938 40.6078 96.3649 40.199 96.1071C39.7927 95.8492 39.475 95.4886 39.2458 95.025C39.0193 94.5615 38.906 94.0198 38.906 93.4C38.906 92.775 39.0193 92.2295 39.2458 91.7633C39.475 91.2972 39.7927 90.9352 40.199 90.6774C40.6078 90.4196 41.0831 90.2906 41.6248 90.2906C42.1664 90.2906 42.6404 90.4196 43.0466 90.6774C43.4555 90.9352 43.7732 91.2972 43.9998 91.7633C44.2289 92.2295 44.3435 92.775 44.3435 93.4C44.3435 94.0198 44.2289 94.5615 43.9998 95.025C43.7732 95.4886 43.4555 95.8492 43.0466 96.1071C42.6404 96.3649 42.1664 96.4938 41.6248 96.4938ZM41.6248 95.6656C42.0362 95.6656 42.3748 95.5602 42.6404 95.3492C42.906 95.1383 43.1026 94.861 43.2302 94.5172C43.3578 94.1735 43.4216 93.8011 43.4216 93.4C43.4216 92.999 43.3578 92.6253 43.2302 92.2789C43.1026 91.9326 42.906 91.6526 42.6404 91.4391C42.3748 91.2255 42.0362 91.1188 41.6248 91.1188C41.2133 91.1188 40.8748 91.2255 40.6091 91.4391C40.3435 91.6526 40.1469 91.9326 40.0193 92.2789C39.8917 92.6253 39.8279 92.999 39.8279 93.4C39.8279 93.8011 39.8917 94.1735 40.0193 94.5172C40.1469 94.861 40.3435 95.1383 40.6091 95.3492C40.8748 95.5602 41.2133 95.6656 41.6248 95.6656ZM49.532 93.9156V90.3688H50.4539V96.3688H49.532V95.3531H49.4695C49.3289 95.6578 49.1101 95.917 48.8132 96.1305C48.5164 96.3414 48.1414 96.4469 47.6882 96.4469C47.3132 96.4469 46.9799 96.3649 46.6882 96.2008C46.3966 96.0341 46.1674 95.7841 46.0007 95.4508C45.8341 95.1149 45.7507 94.6917 45.7507 94.1813V90.3688H46.6726V94.1188C46.6726 94.5563 46.795 94.9052 47.0398 95.1656C47.2872 95.4261 47.6023 95.5563 47.9851 95.5563C48.2143 95.5563 48.4473 95.4977 48.6843 95.3805C48.9239 95.2633 49.1244 95.0836 49.2859 94.8414C49.45 94.5992 49.532 94.2906 49.532 93.9156ZM53.0642 92.7594V96.3688H52.1423V90.3688H53.033V91.3063H53.1111C53.2517 91.0016 53.4653 90.7568 53.7517 90.5719C54.0382 90.3844 54.408 90.2906 54.8611 90.2906C55.2673 90.2906 55.6228 90.374 55.9275 90.5406C56.2322 90.7047 56.4692 90.9547 56.6384 91.2906C56.8077 91.624 56.8923 92.0459 56.8923 92.5563V96.3688H55.9705V92.6188C55.9705 92.1474 55.8481 91.7802 55.6033 91.5172C55.3585 91.2516 55.0225 91.1188 54.5955 91.1188C54.3012 91.1188 54.0382 91.1826 53.8064 91.3102C53.5772 91.4378 53.3962 91.624 53.2634 91.8688C53.1306 92.1136 53.0642 92.4104 53.0642 92.7594ZM61.1863 90.3688V91.15H58.0769V90.3688H61.1863ZM58.9832 88.9313H59.905V94.65C59.905 94.9104 59.9428 95.1058 60.0183 95.236C60.0964 95.3636 60.1954 95.4495 60.3152 95.4938C60.4376 95.5354 60.5665 95.5563 60.7019 95.5563C60.8035 95.5563 60.8868 95.5511 60.9519 95.5406C61.017 95.5276 61.0691 95.5172 61.1082 95.5094L61.2957 96.3375C61.2332 96.361 61.1459 96.3844 61.0339 96.4078C60.922 96.4339 60.78 96.4469 60.6082 96.4469C60.3477 96.4469 60.0925 96.3909 59.8425 96.2789C59.5951 96.167 59.3894 95.9964 59.2253 95.7672C59.0639 95.538 58.9832 95.249 58.9832 94.9V88.9313ZM66.7156 91.7125L65.8875 91.9469C65.8354 91.8089 65.7585 91.6748 65.657 91.5446C65.558 91.4117 65.4226 91.3024 65.2507 91.2164C65.0789 91.1305 64.8588 91.0875 64.5906 91.0875C64.2234 91.0875 63.9174 91.1722 63.6726 91.3414C63.4304 91.5081 63.3093 91.7203 63.3093 91.9781C63.3093 92.2073 63.3927 92.3883 63.5593 92.5211C63.726 92.6539 63.9864 92.7646 64.3406 92.8531L65.2312 93.0719C65.7677 93.2021 66.1674 93.4013 66.4304 93.6696C66.6934 93.9352 66.825 94.2776 66.825 94.6969C66.825 95.0406 66.726 95.3479 66.5281 95.6188C66.3328 95.8896 66.0593 96.1031 65.7078 96.2594C65.3562 96.4156 64.9473 96.4938 64.4812 96.4938C63.8692 96.4938 63.3627 96.361 62.9617 96.0953C62.5606 95.8297 62.3067 95.4417 62.2 94.9313L63.075 94.7125C63.1583 95.0354 63.3158 95.2776 63.5476 95.4391C63.782 95.6005 64.088 95.6813 64.4656 95.6813C64.8953 95.6813 65.2364 95.5901 65.489 95.4078C65.7442 95.2229 65.8718 95.0016 65.8718 94.7438C65.8718 94.5354 65.7989 94.361 65.6531 94.2203C65.5072 94.0771 65.2833 93.9703 64.9812 93.9L63.9812 93.6656C63.4317 93.5354 63.0281 93.3336 62.7703 93.0602C62.5151 92.7841 62.3875 92.4391 62.3875 92.025C62.3875 91.6865 62.4825 91.387 62.6726 91.1266C62.8653 90.8662 63.127 90.6617 63.4578 90.5133C63.7911 90.3649 64.1687 90.2906 64.5906 90.2906C65.1843 90.2906 65.6505 90.4209 65.989 90.6813C66.3302 90.9417 66.5723 91.2854 66.7156 91.7125ZM73.7439 96.4938C73.2022 96.4938 72.727 96.3649 72.3181 96.1071C71.9119 95.8492 71.5942 95.4886 71.365 95.025C71.1384 94.5615 71.0251 94.0198 71.0251 93.4C71.0251 92.775 71.1384 92.2295 71.365 91.7633C71.5942 91.2972 71.9119 90.9352 72.3181 90.6774C72.727 90.4196 73.2022 90.2906 73.7439 90.2906C74.2856 90.2906 74.7595 90.4196 75.1658 90.6774C75.5746 90.9352 75.8923 91.2972 76.1189 91.7633C76.3481 92.2295 76.4626 92.775 76.4626 93.4C76.4626 94.0198 76.3481 94.5615 76.1189 95.025C75.8923 95.4886 75.5746 95.8492 75.1658 96.1071C74.7595 96.3649 74.2856 96.4938 73.7439 96.4938ZM73.7439 95.6656C74.1554 95.6656 74.4939 95.5602 74.7595 95.3492C75.0251 95.1383 75.2218 94.861 75.3494 94.5172C75.477 94.1735 75.5408 93.8011 75.5408 93.4C75.5408 92.999 75.477 92.6253 75.3494 92.2789C75.2218 91.9326 75.0251 91.6526 74.7595 91.4391C74.4939 91.2255 74.1554 91.1188 73.7439 91.1188C73.3324 91.1188 72.9939 91.2255 72.7283 91.4391C72.4626 91.6526 72.266 91.9326 72.1384 92.2789C72.0108 92.6253 71.947 92.999 71.947 93.4C71.947 93.8011 72.0108 94.1735 72.1384 94.5172C72.266 94.861 72.4626 95.1383 72.7283 95.3492C72.9939 95.5602 73.3324 95.6656 73.7439 95.6656ZM78.7917 92.7594V96.3688H77.8699V90.3688H78.7605V91.3063H78.8386C78.9792 91.0016 79.1928 90.7568 79.4792 90.5719C79.7657 90.3844 80.1355 90.2906 80.5886 90.2906C80.9949 90.2906 81.3503 90.374 81.655 90.5406C81.9597 90.7047 82.1967 90.9547 82.366 91.2906C82.5352 91.624 82.6199 92.0459 82.6199 92.5563V96.3688H81.698V92.6188C81.698 92.1474 81.5756 91.7802 81.3308 91.5172C81.086 91.2516 80.7501 91.1188 80.323 91.1188C80.0287 91.1188 79.7657 91.1826 79.5339 91.3102C79.3048 91.4378 79.1238 91.624 78.991 91.8688C78.8582 92.1136 78.7917 92.4104 78.7917 92.7594ZM87.9919 98.6188C87.8357 98.6188 87.6964 98.6058 87.574 98.5797C87.4516 98.5563 87.3669 98.5328 87.3201 98.5094L87.5544 97.6969C87.7784 97.7542 87.9763 97.775 88.1482 97.7594C88.3201 97.7438 88.4724 97.667 88.6052 97.5289C88.7406 97.3935 88.8643 97.1735 88.9763 96.8688L89.1482 96.4L86.9294 90.3688H87.9294L89.5857 95.15H89.6482L91.3044 90.3688H92.3044L89.7576 97.2438C89.643 97.5537 89.5011 97.8102 89.3318 98.0133C89.1625 98.219 88.9659 98.3714 88.7419 98.4703C88.5206 98.5693 88.2706 98.6188 87.9919 98.6188ZM95.7439 96.4938C95.2022 96.4938 94.727 96.3649 94.3181 96.1071C93.9119 95.8492 93.5942 95.4886 93.365 95.025C93.1384 94.5615 93.0251 94.0198 93.0251 93.4C93.0251 92.775 93.1384 92.2295 93.365 91.7633C93.5942 91.2972 93.9119 90.9352 94.3181 90.6774C94.727 90.4196 95.2022 90.2906 95.7439 90.2906C96.2856 90.2906 96.7595 90.4196 97.1658 90.6774C97.5746 90.9352 97.8923 91.2972 98.1189 91.7633C98.3481 92.2295 98.4626 92.775 98.4626 93.4C98.4626 94.0198 98.3481 94.5615 98.1189 95.025C97.8923 95.4886 97.5746 95.8492 97.1658 96.1071C96.7595 96.3649 96.2856 96.4938 95.7439 96.4938ZM95.7439 95.6656C96.1554 95.6656 96.4939 95.5602 96.7595 95.3492C97.0251 95.1383 97.2218 94.861 97.3494 94.5172C97.477 94.1735 97.5408 93.8011 97.5408 93.4C97.5408 92.999 97.477 92.6253 97.3494 92.2789C97.2218 91.9326 97.0251 91.6526 96.7595 91.4391C96.4939 91.2255 96.1554 91.1188 95.7439 91.1188C95.3324 91.1188 94.9939 91.2255 94.7283 91.4391C94.4626 91.6526 94.266 91.9326 94.1384 92.2789C94.0108 92.6253 93.947 92.999 93.947 93.4C93.947 93.8011 94.0108 94.1735 94.1384 94.5172C94.266 94.861 94.4626 95.1383 94.7283 95.3492C94.9939 95.5602 95.3324 95.6656 95.7439 95.6656ZM103.651 93.9156V90.3688H104.573V96.3688H103.651V95.3531H103.589C103.448 95.6578 103.229 95.917 102.932 96.1305C102.635 96.3414 102.26 96.4469 101.807 96.4469C101.432 96.4469 101.099 96.3649 100.807 96.2008C100.516 96.0341 100.287 95.7841 100.12 95.4508C99.9532 95.1149 99.8699 94.6917 99.8699 94.1813V90.3688H100.792V94.1188C100.792 94.5563 100.914 94.9052 101.159 95.1656C101.406 95.4261 101.721 95.5563 102.104 95.5563C102.333 95.5563 102.566 95.4977 102.803 95.3805C103.043 95.2633 103.244 95.0836 103.405 94.8414C103.569 94.5992 103.651 94.2906 103.651 93.9156ZM106.261 96.3688V90.3688H107.152V91.275H107.215C107.324 90.9781 107.522 90.7373 107.808 90.5524C108.095 90.3675 108.418 90.275 108.777 90.275C108.845 90.275 108.929 90.2763 109.031 90.2789C109.133 90.2815 109.209 90.2854 109.261 90.2906V91.2281C109.23 91.2203 109.159 91.2086 109.047 91.193C108.937 91.1748 108.821 91.1656 108.699 91.1656C108.407 91.1656 108.147 91.2268 107.918 91.3492C107.691 91.469 107.511 91.6357 107.379 91.8492C107.248 92.0602 107.183 92.3011 107.183 92.5719V96.3688H106.261ZM116.12 90.3688V91.15H112.885V90.3688H116.12ZM113.854 96.3688V89.5406C113.854 89.1969 113.935 88.9104 114.096 88.6813C114.258 88.4521 114.468 88.2802 114.725 88.1656C114.983 88.0511 115.255 87.9938 115.542 87.9938C115.768 87.9938 115.953 88.012 116.096 88.0485C116.24 88.0849 116.346 88.1188 116.417 88.15L116.151 88.9469C116.104 88.9313 116.039 88.9117 115.956 88.8883C115.875 88.8649 115.768 88.8531 115.635 88.8531C115.331 88.8531 115.111 88.93 114.975 89.0836C114.843 89.2373 114.776 89.4625 114.776 89.7594V96.3688H113.854ZM118.334 88.3688V96.3688H117.412V88.3688H118.334ZM120.022 96.3688V90.3688H120.944V96.3688H120.022ZM120.491 89.3688C120.311 89.3688 120.156 89.3076 120.026 89.1852C119.899 89.0628 119.835 88.9156 119.835 88.7438C119.835 88.5719 119.899 88.4248 120.026 88.3024C120.156 88.18 120.311 88.1188 120.491 88.1188C120.671 88.1188 120.824 88.18 120.952 88.3024C121.082 88.4248 121.147 88.5719 121.147 88.7438C121.147 88.9156 121.082 89.0628 120.952 89.1852C120.824 89.3076 120.671 89.3688 120.491 89.3688ZM125.054 98.7438C124.609 98.7438 124.226 98.6865 123.906 98.5719C123.586 98.4599 123.319 98.3115 123.105 98.1266C122.894 97.9443 122.726 97.749 122.601 97.5406L123.336 97.025C123.419 97.1344 123.524 97.2594 123.652 97.4C123.78 97.5433 123.954 97.667 124.176 97.7711C124.399 97.8779 124.692 97.9313 125.054 97.9313C125.539 97.9313 125.939 97.8141 126.254 97.5797C126.569 97.3453 126.726 96.9781 126.726 96.4781V95.2594H126.648C126.58 95.3688 126.484 95.5042 126.359 95.6656C126.237 95.8245 126.06 95.9664 125.828 96.0914C125.599 96.2138 125.289 96.275 124.898 96.275C124.414 96.275 123.979 96.1604 123.594 95.9313C123.211 95.7021 122.907 95.3688 122.683 94.9313C122.462 94.4938 122.351 93.9625 122.351 93.3375C122.351 92.7229 122.459 92.1878 122.676 91.7321C122.892 91.2737 123.192 90.9196 123.578 90.6696C123.963 90.417 124.409 90.2906 124.914 90.2906C125.304 90.2906 125.614 90.3558 125.844 90.486C126.075 90.6136 126.252 90.7594 126.375 90.9235C126.5 91.0849 126.596 91.2177 126.664 91.3219H126.758V90.3688H127.648V96.5406C127.648 97.0563 127.531 97.4755 127.297 97.7985C127.065 98.124 126.752 98.3623 126.359 98.5133C125.969 98.667 125.534 98.7438 125.054 98.7438ZM125.023 95.4469C125.393 95.4469 125.705 95.3623 125.961 95.193C126.216 95.0237 126.41 94.7802 126.543 94.4625C126.676 94.1448 126.742 93.7646 126.742 93.3219C126.742 92.8896 126.677 92.5081 126.547 92.1774C126.416 91.8466 126.224 91.5875 125.969 91.4C125.713 91.2125 125.398 91.1188 125.023 91.1188C124.633 91.1188 124.307 91.2177 124.047 91.4156C123.789 91.6136 123.595 91.8792 123.465 92.2125C123.337 92.5459 123.273 92.9156 123.273 93.3219C123.273 93.7386 123.338 94.1071 123.469 94.4274C123.601 94.7451 123.797 94.9951 124.054 95.1774C124.315 95.3571 124.638 95.4469 125.023 95.4469ZM130.258 92.7594V96.3688H129.336V88.3688H130.258V91.3063H130.336C130.476 90.9964 130.687 90.7503 130.969 90.568C131.252 90.3831 131.63 90.2906 132.101 90.2906C132.51 90.2906 132.868 90.3727 133.176 90.5367C133.483 90.6982 133.721 90.9469 133.89 91.2828C134.062 91.6162 134.148 92.0406 134.148 92.5563V96.3688H133.226V92.6188C133.226 92.1422 133.103 91.7737 132.855 91.5133C132.61 91.2503 132.271 91.1188 131.836 91.1188C131.534 91.1188 131.263 91.1826 131.023 91.3102C130.786 91.4378 130.599 91.624 130.461 91.8688C130.325 92.1136 130.258 92.4104 130.258 92.7594ZM138.444 90.3688V91.15H135.335V90.3688H138.444ZM136.241 88.9313H137.163V94.65C137.163 94.9104 137.201 95.1058 137.276 95.236C137.354 95.3636 137.453 95.4495 137.573 95.4938C137.695 95.5354 137.824 95.5563 137.96 95.5563C138.061 95.5563 138.145 95.5511 138.21 95.5406C138.275 95.5276 138.327 95.5172 138.366 95.5094L138.553 96.3375C138.491 96.361 138.404 96.3844 138.292 96.4078C138.18 96.4339 138.038 96.4469 137.866 96.4469C137.606 96.4469 137.35 96.3909 137.1 96.2789C136.853 96.167 136.647 95.9964 136.483 95.7672C136.322 95.538 136.241 95.249 136.241 94.9V88.9313ZM145.534 90.3688V91.15H142.425V90.3688H145.534ZM143.331 88.9313H144.253V94.65C144.253 94.9104 144.29 95.1058 144.366 95.236C144.444 95.3636 144.543 95.4495 144.663 95.4938C144.785 95.5354 144.914 95.5563 145.05 95.5563C145.151 95.5563 145.234 95.5511 145.3 95.5406C145.365 95.5276 145.417 95.5172 145.456 95.5094L145.643 96.3375C145.581 96.361 145.494 96.3844 145.382 96.4078C145.27 96.4339 145.128 96.4469 144.956 96.4469C144.695 96.4469 144.44 96.3909 144.19 96.2789C143.943 96.167 143.737 95.9964 143.573 95.7672C143.412 95.538 143.331 95.249 143.331 94.9V88.9313ZM146.921 96.3688V90.3688H147.843V96.3688H146.921ZM147.389 89.3688C147.21 89.3688 147.055 89.3076 146.925 89.1852C146.797 89.0628 146.733 88.9156 146.733 88.7438C146.733 88.5719 146.797 88.4248 146.925 88.3024C147.055 88.18 147.21 88.1188 147.389 88.1188C147.569 88.1188 147.723 88.18 147.85 88.3024C147.981 88.4248 148.046 88.5719 148.046 88.7438C148.046 88.9156 147.981 89.0628 147.85 89.1852C147.723 89.3076 147.569 89.3688 147.389 89.3688ZM151.969 96.4938C151.406 96.4938 150.922 96.361 150.515 96.0953C150.109 95.8297 149.797 95.4638 149.578 94.9977C149.359 94.5315 149.25 93.999 149.25 93.4C149.25 92.7906 149.362 92.2529 149.586 91.7867C149.812 91.318 150.127 90.9521 150.531 90.6891C150.937 90.4235 151.411 90.2906 151.953 90.2906C152.375 90.2906 152.755 90.3688 153.094 90.525C153.432 90.6813 153.709 90.9 153.926 91.1813C154.142 91.4625 154.276 91.7906 154.328 92.1656H153.406C153.336 91.8922 153.179 91.65 152.937 91.4391C152.698 91.2255 152.375 91.1188 151.969 91.1188C151.609 91.1188 151.294 91.2125 151.023 91.4C150.755 91.5849 150.545 91.8466 150.394 92.1852C150.246 92.5211 150.172 92.9156 150.172 93.3688C150.172 93.8323 150.245 94.236 150.39 94.5797C150.539 94.9235 150.747 95.1904 151.015 95.3805C151.286 95.5706 151.604 95.6656 151.969 95.6656C152.208 95.6656 152.426 95.624 152.621 95.5406C152.816 95.4573 152.982 95.3375 153.117 95.1813C153.252 95.025 153.349 94.8375 153.406 94.6188H154.328C154.276 94.9729 154.147 95.292 153.941 95.5758C153.738 95.8571 153.469 96.081 153.133 96.2477C152.799 96.4117 152.411 96.4938 151.969 96.4938ZM156.535 94.1813L156.519 93.0406H156.707L159.332 90.3688H160.472L157.676 93.1969H157.597L156.535 94.1813ZM155.676 96.3688V88.3688H156.597V96.3688H155.676ZM159.488 96.3688L157.144 93.4L157.801 92.7594L160.66 96.3688H159.488ZM163.927 96.4938C163.349 96.4938 162.851 96.3662 162.431 96.111C162.015 95.8531 161.693 95.4938 161.467 95.0328C161.243 94.5693 161.131 94.0302 161.131 93.4156C161.131 92.8011 161.243 92.2594 161.467 91.7906C161.693 91.3193 162.008 90.9521 162.412 90.6891C162.818 90.4235 163.292 90.2906 163.834 90.2906C164.146 90.2906 164.455 90.3427 164.76 90.4469C165.064 90.5511 165.342 90.7203 165.592 90.9547C165.842 91.1865 166.041 91.4938 166.189 91.8766C166.338 92.2594 166.412 92.7308 166.412 93.2906V93.6813H161.787V92.8844H165.474C165.474 92.5459 165.407 92.2438 165.271 91.9781C165.138 91.7125 164.948 91.5029 164.701 91.3492C164.456 91.1956 164.167 91.1188 163.834 91.1188C163.467 91.1188 163.149 91.2099 162.881 91.3922C162.615 91.5719 162.411 91.8063 162.267 92.0953C162.124 92.3844 162.052 92.6943 162.052 93.025V93.5563C162.052 94.0094 162.131 94.3935 162.287 94.7086C162.446 95.0211 162.666 95.2594 162.947 95.4235C163.228 95.5849 163.555 95.6656 163.927 95.6656C164.17 95.6656 164.388 95.6318 164.584 95.5641C164.782 95.4938 164.952 95.3896 165.095 95.2516C165.239 95.111 165.349 94.9365 165.427 94.7281L166.318 94.9781C166.224 95.2802 166.067 95.5459 165.845 95.775C165.624 96.0016 165.351 96.1787 165.025 96.3063C164.7 96.4313 164.334 96.4938 163.927 96.4938ZM170.424 90.3688V91.15H167.314V90.3688H170.424ZM168.22 88.9313H169.142V94.65C169.142 94.9104 169.18 95.1058 169.256 95.236C169.334 95.3636 169.433 95.4495 169.552 95.4938C169.675 95.5354 169.804 95.5563 169.939 95.5563C170.041 95.5563 170.124 95.5511 170.189 95.5406C170.254 95.5276 170.306 95.5172 170.345 95.5094L170.533 96.3375C170.47 96.361 170.383 96.3844 170.271 96.4078C170.159 96.4339 170.017 96.4469 169.845 96.4469C169.585 96.4469 169.33 96.3909 169.08 96.2789C168.832 96.167 168.627 95.9964 168.463 95.7672C168.301 95.538 168.22 95.249 168.22 94.9V88.9313ZM175.953 91.7125L175.125 91.9469C175.073 91.8089 174.996 91.6748 174.894 91.5446C174.795 91.4117 174.66 91.3024 174.488 91.2164C174.316 91.1305 174.096 91.0875 173.828 91.0875C173.461 91.0875 173.155 91.1722 172.91 91.3414C172.668 91.5081 172.547 91.7203 172.547 91.9781C172.547 92.2073 172.63 92.3883 172.797 92.5211C172.963 92.6539 173.224 92.7646 173.578 92.8531L174.469 93.0719C175.005 93.2021 175.405 93.4013 175.668 93.6696C175.931 93.9352 176.062 94.2776 176.062 94.6969C176.062 95.0406 175.963 95.3479 175.765 95.6188C175.57 95.8896 175.297 96.1031 174.945 96.2594C174.594 96.4156 174.185 96.4938 173.719 96.4938C173.107 96.4938 172.6 96.361 172.199 96.0953C171.798 95.8297 171.544 95.4417 171.437 94.9313L172.312 94.7125C172.396 95.0354 172.553 95.2776 172.785 95.4391C173.019 95.6005 173.325 95.6813 173.703 95.6813C174.133 95.6813 174.474 95.5901 174.726 95.4078C174.982 95.2229 175.109 95.0016 175.109 94.7438C175.109 94.5354 175.036 94.361 174.89 94.2203C174.745 94.0771 174.521 93.9703 174.219 93.9L173.219 93.6656C172.669 93.5354 172.265 93.3336 172.008 93.0602C171.752 92.7841 171.625 92.4391 171.625 92.025C171.625 91.6865 171.72 91.387 171.91 91.1266C172.103 90.8662 172.364 90.6617 172.695 90.5133C173.028 90.3649 173.406 90.2906 173.828 90.2906C174.422 90.2906 174.888 90.4209 175.226 90.6813C175.567 90.9417 175.81 91.2854 175.953 91.7125ZM178.122 96.4313C177.929 96.4313 177.764 96.3623 177.626 96.2242C177.488 96.0862 177.419 95.9209 177.419 95.7281C177.419 95.5354 177.488 95.3701 177.626 95.2321C177.764 95.094 177.929 95.025 178.122 95.025C178.315 95.025 178.48 95.094 178.618 95.2321C178.756 95.3701 178.825 95.5354 178.825 95.7281C178.825 95.8558 178.792 95.9729 178.727 96.0797C178.665 96.1865 178.58 96.2724 178.473 96.3375C178.369 96.4 178.252 96.4313 178.122 96.4313Z" fill="black"/>
<path d="M64.5117 46.6311V35.722H66.1577V40.4628H71.5963V35.722H73.2475V46.6311H71.5963V41.8744H66.1577V46.6311H64.5117ZM79.1762 46.6311H75.6446V35.722H79.288C80.3569 35.722 81.2749 35.9404 82.0419 36.3772C82.809 36.8104 83.3967 37.4337 83.8051 38.2469C84.217 39.0565 84.423 40.0278 84.423 41.1606C84.423 42.2969 84.2152 43.2735 83.7997 44.0903C83.3878 44.907 82.7912 45.5356 82.01 45.9759C81.2287 46.4127 80.2841 46.6311 79.1762 46.6311ZM77.2905 45.1929H79.0856C79.9166 45.1929 80.6073 45.0366 81.1577 44.7241C81.7081 44.4081 82.1201 43.9518 82.3935 43.3552C82.6669 42.755 82.8036 42.0235 82.8036 41.1606C82.8036 40.3048 82.6669 39.5785 82.3935 38.982C82.1236 38.3854 81.7205 37.9326 81.1843 37.6236C80.6481 37.3147 79.9823 37.1602 79.1868 37.1602H77.2905V45.1929ZM86.4697 46.6311V35.722H93.2347V37.1389H88.1157V40.4628H92.7499V41.8744H88.1157V46.6311H86.4697ZM104.32 39.2696H102.658C102.594 38.9145 102.475 38.602 102.301 38.3321C102.127 38.0622 101.914 37.8332 101.662 37.645C101.409 37.4567 101.127 37.3147 100.815 37.2188C100.506 37.1229 100.177 37.075 99.8291 37.075C99.2006 37.075 98.6377 37.233 98.1406 37.5491C97.647 37.8651 97.2563 38.3285 96.9687 38.9393C96.6846 39.5501 96.5425 40.2959 96.5425 41.1766C96.5425 42.0643 96.6846 42.8136 96.9687 43.4244C97.2563 44.0352 97.6487 44.4969 98.1459 44.8094C98.643 45.1219 99.2023 45.2781 99.8238 45.2781C100.168 45.2781 100.495 45.232 100.804 45.1396C101.116 45.0437 101.399 44.9035 101.651 44.7188C101.903 44.5342 102.116 44.3087 102.29 44.0423C102.468 43.7724 102.59 43.4635 102.658 43.1155L104.32 43.1208C104.231 43.657 104.059 44.1506 103.803 44.6016C103.551 45.0491 103.226 45.4361 102.828 45.7629C102.434 46.086 101.983 46.3364 101.475 46.5139C100.967 46.6915 100.413 46.7803 99.8131 46.7803C98.8685 46.7803 98.0269 46.5565 97.2883 46.1091C96.5496 45.6581 95.9673 45.0136 95.5411 44.1755C95.1185 43.3374 94.9072 42.3378 94.9072 41.1766C94.9072 40.0118 95.1203 39.0121 95.5465 38.1776C95.9726 37.3396 96.555 36.6968 97.2936 36.2494C98.0322 35.7984 98.8721 35.5729 99.8131 35.5729C100.392 35.5729 100.932 35.6563 101.432 35.8232C101.937 35.9866 102.389 36.228 102.791 36.5477C103.192 36.8637 103.524 37.2508 103.787 37.7089C104.05 38.1634 104.227 38.6837 104.32 39.2696ZM115.35 39.2696H113.688C113.624 38.9145 113.505 38.602 113.331 38.3321C113.157 38.0622 112.944 37.8332 112.692 37.645C112.44 37.4567 112.157 37.3147 111.845 37.2188C111.536 37.1229 111.207 37.075 110.859 37.075C110.231 37.075 109.668 37.233 109.171 37.5491C108.677 37.8651 108.287 38.3285 107.999 38.9393C107.715 39.5501 107.573 40.2959 107.573 41.1766C107.573 42.0643 107.715 42.8136 107.999 43.4244C108.287 44.0352 108.679 44.4969 109.176 44.8094C109.673 45.1219 110.233 45.2781 110.854 45.2781C111.199 45.2781 111.525 45.232 111.834 45.1396C112.147 45.0437 112.429 44.9035 112.681 44.7188C112.933 44.5342 113.146 44.3087 113.32 44.0423C113.498 43.7724 113.62 43.4635 113.688 43.1155L115.35 43.1208C115.261 43.657 115.089 44.1506 114.833 44.6016C114.581 45.0491 114.256 45.4361 113.858 45.7629C113.464 46.086 113.013 46.3364 112.505 46.5139C111.998 46.6915 111.444 46.7803 110.843 46.7803C109.899 46.7803 109.057 46.5565 108.319 46.1091C107.58 45.6581 106.998 45.0136 106.571 44.1755C106.149 43.3374 105.938 42.3378 105.938 41.1766C105.938 40.0118 106.151 39.0121 106.577 38.1776C107.003 37.3396 107.585 36.6968 108.324 36.2494C109.063 35.7984 109.902 35.5729 110.843 35.5729C111.422 35.5729 111.962 35.6563 112.463 35.8232C112.967 35.9866 113.42 36.228 113.821 36.5477C114.222 36.8637 114.554 37.2508 114.817 37.7089C115.08 38.1634 115.257 38.6837 115.35 39.2696ZM117.319 46.6311V35.722H121.314C122.089 35.722 122.73 35.8499 123.237 36.1055C123.745 36.3577 124.125 36.7004 124.377 37.1336C124.629 37.5633 124.755 38.048 124.755 38.5878C124.755 39.0423 124.672 39.4258 124.505 39.7383C124.338 40.0473 124.114 40.2959 123.834 40.4841C123.557 40.6687 123.252 40.8037 122.918 40.8889V40.9954C123.28 41.0132 123.633 41.1304 123.978 41.347C124.326 41.5601 124.613 41.8637 124.841 42.2579C125.068 42.6521 125.182 43.1315 125.182 43.6961C125.182 44.2536 125.05 44.7543 124.787 45.1982C124.528 45.6386 124.127 45.9883 123.584 46.2476C123.04 46.5033 122.346 46.6311 121.501 46.6311H117.319ZM118.965 45.2195H121.341C122.129 45.2195 122.694 45.0668 123.035 44.7614C123.376 44.456 123.546 44.0743 123.546 43.6162C123.546 43.2717 123.459 42.9557 123.285 42.668C123.111 42.3804 122.863 42.1513 122.54 41.9809C122.22 41.8104 121.84 41.7252 121.4 41.7252H118.965V45.2195ZM118.965 40.4415H121.171C121.54 40.4415 121.872 40.3704 122.167 40.2284C122.465 40.0864 122.701 39.8875 122.875 39.6318C123.053 39.3726 123.141 39.0672 123.141 38.7156C123.141 38.2646 122.983 37.8864 122.667 37.581C122.351 37.2756 121.867 37.1229 121.213 37.1229H118.965V40.4415Z" fill="black"/>
<path d="M68.6101 60.6066L66.782 54.6066H67.7507L69.0476 59.2003H69.1101L70.3914 54.6066H71.3757L72.6414 59.1847H72.7039L74.0007 54.6066H74.9695L73.1414 60.6066H72.2351L70.9226 55.9972H70.8289L69.5164 60.6066H68.6101ZM76.1882 60.6066V54.6066H77.1101V60.6066H76.1882ZM76.657 53.6066C76.4773 53.6066 76.3223 53.5454 76.1921 53.423C76.0645 53.3006 76.0007 53.1534 76.0007 52.9816C76.0007 52.8097 76.0645 52.6626 76.1921 52.5402C76.3223 52.4178 76.4773 52.3566 76.657 52.3566C76.8367 52.3566 76.9903 52.4178 77.1179 52.5402C77.2481 52.6626 77.3132 52.8097 77.3132 52.9816C77.3132 53.1534 77.2481 53.3006 77.1179 53.423C76.9903 53.5454 76.8367 53.6066 76.657 53.6066ZM81.408 54.6066V55.3878H78.2986V54.6066H81.408ZM79.2048 53.1691H80.1267V58.8878C80.1267 59.1482 80.1645 59.3435 80.24 59.4738C80.3181 59.6014 80.4171 59.6873 80.5369 59.7316C80.6593 59.7732 80.7882 59.7941 80.9236 59.7941C81.0251 59.7941 81.1085 59.7889 81.1736 59.7784C81.2387 59.7654 81.2908 59.755 81.3298 59.7472L81.5173 60.5753C81.4548 60.5988 81.3676 60.6222 81.2556 60.6456C81.1436 60.6717 81.0017 60.6847 80.8298 60.6847C80.5694 60.6847 80.3142 60.6287 80.0642 60.5167C79.8168 60.4047 79.6111 60.2342 79.447 60.005C79.2856 59.7758 79.2048 59.4868 79.2048 59.1378V53.1691ZM83.8455 56.9972V60.6066H82.9236V52.6066H83.8455V55.5441H83.9236C84.0642 55.2342 84.2751 54.9881 84.5564 54.8058C84.8403 54.6209 85.2179 54.5284 85.6892 54.5284C86.0981 54.5284 86.4561 54.6105 86.7634 54.7745C87.0707 54.936 87.309 55.1847 87.4783 55.5206C87.6501 55.854 87.7361 56.2784 87.7361 56.7941V60.6066H86.8142V56.8566C86.8142 56.38 86.6905 56.0115 86.4431 55.7511C86.1983 55.4881 85.8585 55.3566 85.4236 55.3566C85.1215 55.3566 84.8507 55.4204 84.6111 55.548C84.3741 55.6756 84.1866 55.8618 84.0486 56.1066C83.9132 56.3514 83.8455 56.6482 83.8455 56.9972ZM92.6414 60.6066V52.6066H93.6101V56.1691H97.8757V52.6066H98.8445V60.6066H97.8757V57.0284H93.6101V60.6066H92.6414ZM103.253 60.6066H100.784V52.6066H103.362C104.138 52.6066 104.802 52.7667 105.354 53.087C105.906 53.4047 106.33 53.8618 106.624 54.4581C106.918 55.0519 107.065 55.7628 107.065 56.5909C107.065 57.4243 106.917 58.1417 106.62 58.7433C106.323 59.3422 105.891 59.8032 105.323 60.1261C104.755 60.4464 104.065 60.6066 103.253 60.6066ZM101.753 59.7472H103.19C103.852 59.7472 104.4 59.6196 104.835 59.3644C105.27 59.1092 105.594 58.7459 105.807 58.2745C106.021 57.8032 106.128 57.242 106.128 56.5909C106.128 55.9451 106.022 55.3891 105.811 54.923C105.6 54.4542 105.285 54.0948 104.866 53.8448C104.447 53.5922 103.925 53.4659 103.3 53.4659H101.753V59.7472ZM108.69 60.6066V52.6066H113.487V53.4659H109.659V56.1691H113.128V57.0284H109.659V60.6066H108.69ZM121.584 55.1066H120.615C120.558 54.8279 120.457 54.5831 120.314 54.3722C120.174 54.1613 120.002 53.9842 119.799 53.8409C119.598 53.6951 119.375 53.5857 119.131 53.5128C118.886 53.4399 118.631 53.4034 118.365 53.4034C117.881 53.4034 117.442 53.5258 117.049 53.7706C116.658 54.0154 116.347 54.3761 116.115 54.8527C115.886 55.3292 115.771 55.9139 115.771 56.6066C115.771 57.2993 115.886 57.8839 116.115 58.3605C116.347 58.837 116.658 59.1977 117.049 59.4425C117.442 59.6873 117.881 59.8097 118.365 59.8097C118.631 59.8097 118.886 59.7732 119.131 59.7003C119.375 59.6274 119.598 59.5193 119.799 59.3761C120.002 59.2303 120.174 59.0519 120.314 58.8409C120.457 58.6274 120.558 58.3826 120.615 58.1066H121.584C121.511 58.5154 121.378 58.8813 121.185 59.2042C120.993 59.5271 120.753 59.8019 120.467 60.0284C120.18 60.2524 119.858 60.423 119.502 60.5402C119.148 60.6573 118.769 60.7159 118.365 60.7159C117.683 60.7159 117.076 60.5493 116.545 60.2159C116.013 59.8826 115.595 59.4087 115.291 58.7941C114.986 58.1795 114.834 57.4503 114.834 56.6066C114.834 55.7628 114.986 55.0337 115.291 54.4191C115.595 53.8045 116.013 53.3305 116.545 52.9972C117.076 52.6639 117.683 52.4972 118.365 52.4972C118.769 52.4972 119.148 52.5558 119.502 52.673C119.858 52.7902 120.18 52.962 120.467 53.1886C120.753 53.4126 120.993 53.686 121.185 54.0089C121.378 54.3292 121.511 54.6951 121.584 55.1066ZM132.68 55.1066H131.712C131.654 54.8279 131.554 54.5831 131.411 54.3722C131.27 54.1613 131.098 53.9842 130.895 53.8409C130.695 53.6951 130.472 53.5857 130.227 53.5128C129.983 53.4399 129.727 53.4034 129.462 53.4034C128.977 53.4034 128.538 53.5258 128.145 53.7706C127.755 54.0154 127.443 54.3761 127.212 54.8527C126.983 55.3292 126.868 55.9139 126.868 56.6066C126.868 57.2993 126.983 57.8839 127.212 58.3605C127.443 58.837 127.755 59.1977 128.145 59.4425C128.538 59.6873 128.977 59.8097 129.462 59.8097C129.727 59.8097 129.983 59.7732 130.227 59.7003C130.472 59.6274 130.695 59.5193 130.895 59.3761C131.098 59.2303 131.27 59.0519 131.411 58.8409C131.554 58.6274 131.654 58.3826 131.712 58.1066H132.68C132.608 58.5154 132.475 58.8813 132.282 59.2042C132.089 59.5271 131.85 59.8019 131.563 60.0284C131.277 60.2524 130.955 60.423 130.598 60.5402C130.244 60.6573 129.865 60.7159 129.462 60.7159C128.779 60.7159 128.173 60.5493 127.641 60.2159C127.11 59.8826 126.692 59.4087 126.387 58.7941C126.083 58.1795 125.93 57.4503 125.93 56.6066C125.93 55.7628 126.083 55.0337 126.387 54.4191C126.692 53.8045 127.11 53.3305 127.641 52.9972C128.173 52.6639 128.779 52.4972 129.462 52.4972C129.865 52.4972 130.244 52.5558 130.598 52.673C130.955 52.7902 131.277 52.962 131.563 53.1886C131.85 53.4126 132.089 53.686 132.282 54.0089C132.475 54.3292 132.608 54.6951 132.68 55.1066ZM134.121 60.6066V54.6066H135.011V55.5128H135.074C135.183 55.2159 135.381 54.9751 135.668 54.7902C135.954 54.6053 136.277 54.5128 136.636 54.5128C136.704 54.5128 136.789 54.5141 136.89 54.5167C136.992 54.5193 137.069 54.5232 137.121 54.5284V55.4659C137.09 55.4581 137.018 55.4464 136.906 55.4308C136.797 55.4126 136.681 55.4034 136.558 55.4034C136.267 55.4034 136.006 55.4646 135.777 55.587C135.551 55.7068 135.371 55.8735 135.238 56.087C135.108 56.298 135.043 56.5389 135.043 56.8097V60.6066H134.121ZM140.547 60.7316C139.969 60.7316 139.47 60.604 139.051 60.3488C138.634 60.0909 138.312 59.7316 138.086 59.2706C137.862 58.8071 137.75 58.268 137.75 57.6534C137.75 57.0389 137.862 56.4972 138.086 56.0284C138.312 55.5571 138.627 55.1899 139.031 54.9269C139.437 54.6613 139.911 54.5284 140.453 54.5284C140.765 54.5284 141.074 54.5805 141.379 54.6847C141.683 54.7889 141.961 54.9581 142.211 55.1925C142.461 55.4243 142.66 55.7316 142.808 56.1144C142.957 56.4972 143.031 56.9685 143.031 57.5284V57.9191H138.406V57.1222H142.094C142.094 56.7837 142.026 56.4816 141.89 56.2159C141.758 55.9503 141.567 55.7407 141.32 55.587C141.075 55.4334 140.786 55.3566 140.453 55.3566C140.086 55.3566 139.768 55.4477 139.5 55.63C139.234 55.8097 139.03 56.0441 138.886 56.3331C138.743 56.6222 138.672 56.9321 138.672 57.2628V57.7941C138.672 58.2472 138.75 58.6313 138.906 58.9464C139.065 59.2589 139.285 59.4972 139.566 59.6613C139.847 59.8227 140.174 59.9034 140.547 59.9034C140.789 59.9034 141.008 59.8696 141.203 59.8019C141.401 59.7316 141.571 59.6274 141.715 59.4894C141.858 59.3488 141.969 59.1743 142.047 58.9659L142.937 59.2159C142.844 59.518 142.686 59.7837 142.465 60.0128C142.243 60.2394 141.97 60.4165 141.644 60.5441C141.319 60.6691 140.953 60.7316 140.547 60.7316ZM146.699 60.7316C146.199 60.7316 145.758 60.6053 145.375 60.3527C144.992 60.0975 144.692 59.7381 144.476 59.2745C144.26 58.8084 144.152 58.2576 144.152 57.6222C144.152 56.992 144.26 56.4451 144.476 55.9816C144.692 55.518 144.993 55.16 145.379 54.9073C145.764 54.6547 146.209 54.5284 146.715 54.5284C147.105 54.5284 147.414 54.5935 147.64 54.7238C147.87 54.8514 148.044 54.9972 148.164 55.1613C148.286 55.3227 148.381 55.4555 148.449 55.5597H148.527V52.6066H149.449V60.6066H148.558V59.6847H148.449C148.381 59.7941 148.285 59.9321 148.16 60.0988C148.035 60.2628 147.857 60.41 147.625 60.5402C147.393 60.6678 147.084 60.7316 146.699 60.7316ZM146.824 59.9034C147.194 59.9034 147.506 59.8071 147.761 59.6144C148.017 59.4191 148.211 59.1495 148.344 58.8058C148.476 58.4594 148.543 58.0597 148.543 57.6066C148.543 57.1587 148.478 56.7667 148.347 56.4308C148.217 56.0922 148.024 55.8292 147.769 55.6417C147.514 55.4516 147.199 55.3566 146.824 55.3566C146.433 55.3566 146.108 55.4568 145.847 55.6573C145.59 55.8553 145.396 56.1248 145.265 56.4659C145.138 56.8045 145.074 57.1847 145.074 57.6066C145.074 58.0337 145.139 58.4217 145.269 58.7706C145.402 59.117 145.597 59.393 145.855 59.5988C146.116 59.8019 146.439 59.9034 146.824 59.9034ZM151.265 60.6066V54.6066H152.187V60.6066H151.265ZM151.734 53.6066C151.554 53.6066 151.399 53.5454 151.269 53.423C151.142 53.3006 151.078 53.1534 151.078 52.9816C151.078 52.8097 151.142 52.6626 151.269 52.5402C151.399 52.4178 151.554 52.3566 151.734 52.3566C151.914 52.3566 152.067 52.4178 152.195 52.5402C152.325 52.6626 152.39 52.8097 152.39 52.9816C152.39 53.1534 152.325 53.3006 152.195 53.423C152.067 53.5454 151.914 53.6066 151.734 53.6066ZM156.485 54.6066V55.3878H153.376V54.6066H156.485ZM154.282 53.1691H155.204V58.8878C155.204 59.1482 155.242 59.3435 155.317 59.4738C155.395 59.6014 155.494 59.6873 155.614 59.7316C155.736 59.7732 155.865 59.7941 156.001 59.7941C156.102 59.7941 156.186 59.7889 156.251 59.7784C156.316 59.7654 156.368 59.755 156.407 59.7472L156.594 60.5753C156.532 60.5988 156.445 60.6222 156.333 60.6456C156.221 60.6717 156.079 60.6847 155.907 60.6847C155.647 60.6847 155.391 60.6287 155.141 60.5167C154.894 60.4047 154.688 60.2342 154.524 60.005C154.363 59.7758 154.282 59.4868 154.282 59.1378V53.1691ZM167.528 55.1066H166.559C166.502 54.8279 166.402 54.5831 166.259 54.3722C166.118 54.1613 165.946 53.9842 165.743 53.8409C165.542 53.6951 165.32 53.5857 165.075 53.5128C164.83 53.4399 164.575 53.4034 164.309 53.4034C163.825 53.4034 163.386 53.5258 162.993 53.7706C162.602 54.0154 162.291 54.3761 162.059 54.8527C161.83 55.3292 161.716 55.9139 161.716 56.6066C161.716 57.2993 161.83 57.8839 162.059 58.3605C162.291 58.837 162.602 59.1977 162.993 59.4425C163.386 59.6873 163.825 59.8097 164.309 59.8097C164.575 59.8097 164.83 59.7732 165.075 59.7003C165.32 59.6274 165.542 59.5193 165.743 59.3761C165.946 59.2303 166.118 59.0519 166.259 58.8409C166.402 58.6274 166.502 58.3826 166.559 58.1066H167.528C167.455 58.5154 167.322 58.8813 167.13 59.2042C166.937 59.5271 166.697 59.8019 166.411 60.0284C166.124 60.2524 165.803 60.423 165.446 60.5402C165.092 60.6573 164.713 60.7159 164.309 60.7159C163.627 60.7159 163.02 60.5493 162.489 60.2159C161.958 59.8826 161.54 59.4087 161.235 58.7941C160.93 58.1795 160.778 57.4503 160.778 56.6066C160.778 55.7628 160.93 55.0337 161.235 54.4191C161.54 53.8045 161.958 53.3305 162.489 52.9972C163.02 52.6639 163.627 52.4972 164.309 52.4972C164.713 52.4972 165.092 52.5558 165.446 52.673C165.803 52.7902 166.124 52.962 166.411 53.1886C166.697 53.4126 166.937 53.686 167.13 54.0089C167.322 54.3292 167.455 54.6951 167.528 55.1066ZM170.734 60.7472C170.354 60.7472 170.009 60.6756 169.699 60.5323C169.389 60.3865 169.143 60.1769 168.961 59.9034C168.778 59.6274 168.687 59.2941 168.687 58.9034C168.687 58.5597 168.755 58.281 168.89 58.0675C169.026 57.8514 169.207 57.6821 169.433 57.5597C169.66 57.4373 169.91 57.3462 170.183 57.2863C170.459 57.2238 170.737 57.1743 171.015 57.1378C171.38 57.0909 171.676 57.0558 171.902 57.0323C172.131 57.0063 172.298 56.9633 172.402 56.9034C172.509 56.8435 172.562 56.7394 172.562 56.5909V56.5597C172.562 56.1743 172.457 55.8748 172.246 55.6613C172.038 55.4477 171.721 55.3409 171.297 55.3409C170.857 55.3409 170.511 55.4373 170.261 55.63C170.011 55.8227 169.836 56.0284 169.734 56.2472L168.859 55.9347C169.015 55.5701 169.224 55.2863 169.484 55.0831C169.747 54.8774 170.034 54.7342 170.344 54.6534C170.656 54.5701 170.963 54.5284 171.265 54.5284C171.458 54.5284 171.679 54.5519 171.929 54.5988C172.182 54.643 172.426 54.7355 172.66 54.8761C172.897 55.0167 173.094 55.229 173.25 55.5128C173.406 55.7967 173.484 56.1769 173.484 56.6534V60.6066H172.562V59.7941H172.515C172.453 59.9243 172.349 60.0636 172.203 60.212C172.057 60.3605 171.863 60.4868 171.621 60.5909C171.379 60.6951 171.083 60.7472 170.734 60.7472ZM170.875 59.9191C171.239 59.9191 171.547 59.8475 171.797 59.7042C172.049 59.561 172.239 59.3761 172.367 59.1495C172.497 58.923 172.562 58.6847 172.562 58.4347V57.5909C172.523 57.6378 172.437 57.6808 172.304 57.7198C172.174 57.7563 172.023 57.7889 171.851 57.8175C171.682 57.8435 171.517 57.867 171.355 57.8878C171.196 57.906 171.067 57.9217 170.969 57.9347C170.729 57.9659 170.505 58.0167 170.297 58.087C170.091 58.1547 169.924 58.2576 169.797 58.3956C169.672 58.531 169.609 58.7159 169.609 58.9503C169.609 59.2706 169.728 59.5128 169.965 59.6769C170.204 59.8383 170.508 59.9191 170.875 59.9191ZM175.167 60.6066V54.6066H176.057V55.5128H176.12C176.229 55.2159 176.427 54.9751 176.714 54.7902C177 54.6053 177.323 54.5128 177.682 54.5128C177.75 54.5128 177.835 54.5141 177.936 54.5167C178.038 54.5193 178.115 54.5232 178.167 54.5284V55.4659C178.135 55.4581 178.064 55.4464 177.952 55.4308C177.843 55.4126 177.727 55.4034 177.604 55.4034C177.313 55.4034 177.052 55.4646 176.823 55.587C176.596 55.7068 176.417 55.8735 176.284 56.087C176.154 56.298 176.089 56.5389 176.089 56.8097V60.6066H175.167ZM181.343 60.7316C180.843 60.7316 180.401 60.6053 180.018 60.3527C179.635 60.0975 179.336 59.7381 179.12 59.2745C178.904 58.8084 178.796 58.2576 178.796 57.6222C178.796 56.992 178.904 56.4451 179.12 55.9816C179.336 55.518 179.637 55.16 180.022 54.9073C180.408 54.6547 180.853 54.5284 181.358 54.5284C181.749 54.5284 182.057 54.5935 182.284 54.7238C182.513 54.8514 182.688 54.9972 182.807 55.1613C182.93 55.3227 183.025 55.4555 183.093 55.5597H183.171V52.6066H184.093V60.6066H183.202V59.6847H183.093C183.025 59.7941 182.928 59.9321 182.803 60.0988C182.678 60.2628 182.5 60.41 182.268 60.5402C182.037 60.6678 181.728 60.7316 181.343 60.7316ZM181.468 59.9034C181.837 59.9034 182.15 59.8071 182.405 59.6144C182.66 59.4191 182.854 59.1495 182.987 58.8058C183.12 58.4594 183.186 58.0597 183.186 57.6066C183.186 57.1587 183.121 56.7667 182.991 56.4308C182.861 56.0922 182.668 55.8292 182.413 55.6417C182.158 55.4516 181.843 55.3566 181.468 55.3566C181.077 55.3566 180.751 55.4568 180.491 55.6573C180.233 55.8553 180.039 56.1248 179.909 56.4659C179.781 56.8045 179.718 57.1847 179.718 57.6066C179.718 58.0337 179.783 58.4217 179.913 58.7706C180.046 59.117 180.241 59.393 180.499 59.5988C180.759 59.8019 181.082 59.9034 181.468 59.9034ZM190.159 55.9503L189.331 56.1847C189.279 56.0467 189.202 55.9126 189.1 55.7823C189.001 55.6495 188.866 55.5402 188.694 55.4542C188.522 55.3683 188.302 55.3253 188.034 55.3253C187.667 55.3253 187.361 55.41 187.116 55.5792C186.874 55.7459 186.753 55.9581 186.753 56.2159C186.753 56.4451 186.836 56.6261 187.003 56.7589C187.169 56.8917 187.43 57.0024 187.784 57.0909L188.675 57.3097C189.211 57.4399 189.611 57.6391 189.874 57.9073C190.137 58.173 190.268 58.5154 190.268 58.9347C190.268 59.2784 190.169 59.5857 189.971 59.8566C189.776 60.1274 189.503 60.3409 189.151 60.4972C188.8 60.6534 188.391 60.7316 187.925 60.7316C187.313 60.7316 186.806 60.5988 186.405 60.3331C186.004 60.0675 185.75 59.6795 185.643 59.1691L186.518 58.9503C186.602 59.2732 186.759 59.5154 186.991 59.6769C187.225 59.8383 187.531 59.9191 187.909 59.9191C188.339 59.9191 188.68 59.8279 188.932 59.6456C189.188 59.4607 189.315 59.2394 189.315 58.9816C189.315 58.7732 189.242 58.5988 189.096 58.4581C188.951 58.3149 188.727 58.2081 188.425 58.1378L187.425 57.9034C186.875 57.7732 186.471 57.5714 186.214 57.298C185.958 57.0219 185.831 56.6769 185.831 56.2628C185.831 55.9243 185.926 55.6248 186.116 55.3644C186.309 55.104 186.57 54.8995 186.901 54.7511C187.234 54.6027 187.612 54.5284 188.034 54.5284C188.628 54.5284 189.094 54.6587 189.432 54.9191C189.774 55.1795 190.016 55.5232 190.159 55.9503Z" fill="black"/>
<path d="M16.3794 63.004H47.8785V32.9843H16.3794V63.004Z" fill="#ED232A"/>
<path d="M21.8926 57.7493H42.3692V38.2343H21.8926V57.7493Z" fill="white"/>
<path d="M30.5544 63.004H33.7031V32.9843H30.5544V63.004Z" fill="white"/>
<path d="M16.3794 49.4911H47.8785V46.4903H16.3794V49.4911Z" fill="white"/>
<path d="M27.406 52.4949H36.8561V43.4886H27.406V52.4949Z" fill="#004C8F"/>
<path d="M17.8945 22.4016V12.2198H24.6359V13.9947H20.0472V16.4208H24.1885V18.1956H20.0472V22.4016H17.8945ZM28.162 12.2198V22.4016H26.0441V12.2198H28.162ZM32.0362 22.5458C31.5489 22.5458 31.1148 22.4613 30.7336 22.2922C30.3524 22.1199 30.0508 21.8663 29.8288 21.5316C29.61 21.1935 29.5006 20.7726 29.5006 20.2688C29.5006 19.8446 29.5785 19.4883 29.7343 19.1999C29.8901 18.9116 30.1022 18.6795 30.3707 18.5039C30.6391 18.3282 30.9441 18.1956 31.2854 18.1062C31.6301 18.0167 31.9914 17.9537 32.3693 17.9172C32.8134 17.8708 33.1713 17.8277 33.4431 17.788C33.7149 17.7449 33.9121 17.6819 34.0347 17.5991C34.1574 17.5162 34.2187 17.3936 34.2187 17.2312V17.2013C34.2187 16.8865 34.1193 16.6429 33.9204 16.4705C33.7248 16.2982 33.4464 16.212 33.0852 16.212C32.704 16.212 32.4007 16.2965 32.1754 16.4655C31.95 16.6313 31.8008 16.8401 31.7279 17.092L29.7691 16.9329C29.8685 16.4688 30.0641 16.0678 30.3558 15.7297C30.6474 15.3884 31.0236 15.1265 31.4843 14.9442C31.9483 14.7586 32.4853 14.6658 33.0951 14.6658C33.5193 14.6658 33.9254 14.7155 34.3131 14.815C34.7042 14.9144 35.0506 15.0685 35.3522 15.2773C35.6571 15.4861 35.8974 15.7546 36.0731 16.0827C36.2487 16.4075 36.3366 16.797 36.3366 17.251V22.4016H34.3281V21.3427H34.2684C34.1458 21.5813 33.9817 21.7918 33.7762 21.9741C33.5707 22.153 33.3238 22.2939 33.0354 22.3966C32.7471 22.4961 32.414 22.5458 32.0362 22.5458ZM32.6427 21.0841C32.9542 21.0841 33.2293 21.0228 33.468 20.9002C33.7066 20.7742 33.8939 20.6052 34.0298 20.3931C34.1657 20.181 34.2336 19.9407 34.2336 19.6722V18.8618C34.1673 18.9049 34.0762 18.9447 33.9602 18.9812C33.8475 19.0143 33.7199 19.0458 33.5773 19.0756C33.4348 19.1021 33.2923 19.127 33.1498 19.1502C33.0073 19.1701 32.878 19.1883 32.762 19.2049C32.5134 19.2413 32.2963 19.2993 32.1107 19.3789C31.9251 19.4584 31.7809 19.5661 31.6782 19.702C31.5755 19.8346 31.5241 20.0003 31.5241 20.1992C31.5241 20.4875 31.6285 20.708 31.8373 20.8604C32.0494 21.0096 32.3179 21.0841 32.6427 21.0841ZM42.0415 14.7652V16.3562H37.4428V14.7652H42.0415ZM38.4868 12.9357H40.6047V20.055C40.6047 20.2506 40.6345 20.403 40.6942 20.5124C40.7538 20.6185 40.8367 20.693 40.9428 20.7361C41.0521 20.7792 41.1781 20.8008 41.3206 20.8008C41.42 20.8008 41.5195 20.7925 41.6189 20.7759C41.7183 20.756 41.7946 20.7411 41.8476 20.7312L42.1807 22.3072C42.0746 22.3403 41.9255 22.3784 41.7332 22.4215C41.541 22.4679 41.3073 22.4961 41.0322 22.506C40.5218 22.5259 40.0744 22.458 39.6899 22.3022C39.3088 22.1464 39.0121 21.9045 38.8 21.5763C38.5879 21.2482 38.4835 20.8339 38.4868 20.3334V12.9357ZM51.0711 12.2198V22.4016H48.9184V14.2631H48.8588L46.5271 15.7248V13.8157L49.0477 12.2198H51.0711ZM53.4911 22.4016V20.8505L57.1153 17.4947C57.4236 17.1964 57.6821 16.9279 57.8909 16.6893C58.103 16.4506 58.2638 16.217 58.3732 15.9883C58.4825 15.7563 58.5372 15.506 58.5372 15.2375C58.5372 14.9393 58.4693 14.6824 58.3334 14.467C58.1975 14.2482 58.0119 14.0808 57.7766 13.9648C57.5412 13.8455 57.2744 13.7858 56.9761 13.7858C56.6646 13.7858 56.3928 13.8488 56.1608 13.9748C55.9288 14.1007 55.7498 14.2813 55.6239 14.5167C55.4979 14.752 55.4349 15.0321 55.4349 15.3569H53.3916C53.3916 14.6907 53.5424 14.1123 53.844 13.6218C54.1456 13.1313 54.5682 12.7518 55.1118 12.4833C55.6554 12.2148 56.2818 12.0806 56.9911 12.0806C57.7202 12.0806 58.3549 12.2098 58.8952 12.4684C59.4387 12.7236 59.8613 13.0782 60.1629 13.5323C60.4645 13.9864 60.6153 14.5067 60.6153 15.0934C60.6153 15.4778 60.5391 15.8573 60.3867 16.2319C60.2375 16.6064 59.9707 17.0223 59.5862 17.4797C59.2018 17.9338 58.6599 18.479 57.9605 19.1154L56.474 20.5721V20.6417H60.7496V22.4016H53.4911ZM67.8826 20.4925V19.9556C67.8826 19.5479 67.9687 19.1734 68.1411 18.832C68.3168 18.4873 68.5703 18.2122 68.9017 18.0067C69.2365 17.7979 69.6442 17.6935 70.1248 17.6935C70.612 17.6935 71.0213 17.7963 71.3527 18.0018C71.6875 18.2072 71.9394 18.4823 72.1084 18.827C72.2808 19.1684 72.3669 19.5446 72.3669 19.9556V20.4925C72.3669 20.9002 72.2808 21.2764 72.1084 21.6211C71.9361 21.9625 71.6825 22.2359 71.3478 22.4414C71.013 22.6502 70.6053 22.7546 70.1248 22.7546C69.6375 22.7546 69.2282 22.6502 68.8968 22.4414C68.5653 22.2359 68.3134 21.9625 68.1411 21.6211C67.9687 21.2764 67.8826 20.9002 67.8826 20.4925ZM69.3293 19.9556V20.4925C69.3293 20.7278 69.3856 20.9499 69.4983 21.1587C69.6143 21.3675 69.8231 21.4719 70.1248 21.4719C70.4264 21.4719 70.6319 21.3692 70.7412 21.1637C70.8539 20.9582 70.9103 20.7345 70.9103 20.4925V19.9556C70.9103 19.7136 70.8572 19.4883 70.7512 19.2795C70.6451 19.0706 70.4363 18.9662 70.1248 18.9662C69.8265 18.9662 69.6193 19.0706 69.5033 19.2795C69.3873 19.4883 69.3293 19.7136 69.3293 19.9556ZM62.6574 14.6658V14.1289C62.6574 13.7179 62.7453 13.3417 62.9209 13.0003C63.0966 12.6556 63.3501 12.3805 63.6816 12.175C64.0163 11.9696 64.4207 11.8668 64.8946 11.8668C65.3852 11.8668 65.7962 11.9696 66.1276 12.175C66.459 12.3805 66.7109 12.6556 66.8833 13.0003C67.0556 13.3417 67.1418 13.7179 67.1418 14.1289V14.6658C67.1418 15.0768 67.054 15.453 66.8783 15.7944C66.706 16.1357 66.4524 16.4092 66.1177 16.6147C65.7862 16.8169 65.3785 16.9179 64.8946 16.9179C64.4107 16.9179 64.0014 16.8152 63.6667 16.6097C63.3352 16.4009 63.0833 16.1275 62.911 15.7894C62.7419 15.448 62.6574 15.0735 62.6574 14.6658ZM64.1141 14.1289V14.6658C64.1141 14.9078 64.1704 15.1315 64.2831 15.337C64.3991 15.5425 64.603 15.6452 64.8946 15.6452C65.1996 15.6452 65.4067 15.5425 65.5161 15.337C65.6288 15.1315 65.6851 14.9078 65.6851 14.6658V14.1289C65.6851 13.8869 65.6321 13.6616 65.526 13.4527C65.42 13.2439 65.2095 13.1395 64.8946 13.1395C64.5997 13.1395 64.3958 13.2456 64.2831 13.4577C64.1704 13.6698 64.1141 13.8936 64.1141 14.1289ZM63.3137 22.4016L70.3137 12.2198H71.6162L64.6162 22.4016H63.3137ZM81.0511 22.5508C80.2788 22.5508 79.611 22.3867 79.0475 22.0586C78.4874 21.7271 78.0549 21.2664 77.7499 20.6765C77.445 20.0832 77.2925 19.3955 77.2925 18.6133C77.2925 17.8244 77.445 17.135 77.7499 16.5451C78.0549 15.9518 78.4874 15.4911 79.0475 15.163C79.611 14.8315 80.2788 14.6658 81.0511 14.6658C81.8233 14.6658 82.4895 14.8315 83.0496 15.163C83.6131 15.4911 84.0473 15.9518 84.3522 16.5451C84.6571 17.135 84.8096 17.8244 84.8096 18.6133C84.8096 19.3955 84.6571 20.0832 84.3522 20.6765C84.0473 21.2664 83.6131 21.7271 83.0496 22.0586C82.4895 22.3867 81.8233 22.5508 81.0511 22.5508ZM81.061 20.9101C81.4123 20.9101 81.7057 20.8107 81.941 20.6118C82.1763 20.4097 82.3536 20.1346 82.4729 19.7866C82.5956 19.4385 82.6569 19.0425 82.6569 18.5983C82.6569 18.1542 82.5956 17.7581 82.4729 17.4101C82.3536 17.0621 82.1763 16.787 81.941 16.5848C81.7057 16.3827 81.4123 16.2816 81.061 16.2816C80.7064 16.2816 80.4081 16.3827 80.1661 16.5848C79.9275 16.787 79.7469 17.0621 79.6242 17.4101C79.5049 17.7581 79.4452 18.1542 79.4452 18.5983C79.4452 19.0425 79.5049 19.4385 79.6242 19.7866C79.7469 20.1346 79.9275 20.4097 80.1661 20.6118C80.4081 20.8107 80.7064 20.9101 81.061 20.9101ZM90.2933 14.7652V16.3562H85.5802V14.7652H90.2933ZM86.659 22.4016V14.2134C86.659 13.6599 86.7667 13.2009 86.9822 12.8363C87.2009 12.4717 87.4992 12.1982 87.8771 12.016C88.2549 11.8337 88.6841 11.7425 89.1647 11.7425C89.4895 11.7425 89.7862 11.7674 90.0546 11.8171C90.3264 11.8668 90.5286 11.9116 90.6612 11.9513L90.2833 13.5422C90.2005 13.5157 90.0977 13.4909 89.9751 13.4677C89.8558 13.4445 89.7331 13.4329 89.6072 13.4329C89.2956 13.4329 89.0785 13.5058 88.9559 13.6516C88.8333 13.7941 88.772 13.9947 88.772 14.2532V22.4016H86.659ZM95.6936 14.7652V16.3562H90.9806V14.7652H95.6936ZM92.0594 22.4016V14.2134C92.0594 13.6599 92.1671 13.2009 92.3826 12.8363C92.6013 12.4717 92.8996 12.1982 93.2775 12.016C93.6553 11.8337 94.0845 11.7425 94.5651 11.7425C94.8899 11.7425 95.1865 11.7674 95.455 11.8171C95.7268 11.8668 95.929 11.9116 96.0615 11.9513L95.6837 13.5422C95.6008 13.5157 95.4981 13.4909 95.3755 13.4677C95.2561 13.4445 95.1335 13.4329 95.0076 13.4329C94.696 13.4329 94.4789 13.5058 94.3563 13.6516C94.2337 13.7941 94.1723 13.9947 94.1723 14.2532V22.4016H92.0594Z" fill="black"/>
</svg>
