<svg width="222" height="108" viewBox="0 0 222 108" fill="none" xmlns="http://www.w3.org/2000/svg">
<rect x="0.848633" y="0.786865" width="210.729" height="107.213" rx="10" fill="#DBF9EA"/>
<path d="M19.2969 79H18.2813L21.2188 71H22.2188L25.1563 79H24.1406L21.75 72.2656H21.6875L19.2969 79ZM19.6719 75.875H23.7656V76.7344H19.6719V75.875ZM26.2773 81.25V73H27.168V73.9531H27.2773C27.3451 73.849 27.4388 73.7161 27.5586 73.5547C27.681 73.3906 27.8555 73.2448 28.082 73.1172C28.3112 72.987 28.6211 72.9219 29.0117 72.9219C29.5169 72.9219 29.9622 73.0482 30.3477 73.3008C30.7331 73.5534 31.0339 73.9115 31.25 74.375C31.4661 74.8385 31.5742 75.3854 31.5742 76.0156C31.5742 76.651 31.4661 77.2018 31.25 77.668C31.0339 78.1315 30.7344 78.4909 30.3516 78.7461C29.9688 78.9987 29.5273 79.125 29.0273 79.125C28.6419 79.125 28.3333 79.0612 28.1016 78.9336C27.8698 78.8034 27.6914 78.6562 27.5664 78.4922C27.4414 78.3255 27.3451 78.1875 27.2773 78.0781H27.1992V81.25H26.2773ZM27.1836 76C27.1836 76.4531 27.25 76.8529 27.3828 77.1992C27.5156 77.543 27.7096 77.8125 27.9648 78.0078C28.2201 78.2005 28.5326 78.2969 28.9023 78.2969C29.2878 78.2969 29.6094 78.1953 29.8672 77.9922C30.1276 77.7865 30.3229 77.5104 30.4531 77.1641C30.5859 76.8151 30.6523 76.4271 30.6523 76C30.6523 75.5781 30.5872 75.1979 30.457 74.8594C30.3294 74.5182 30.1354 74.2487 29.875 74.0508C29.6172 73.8503 29.293 73.75 28.9023 73.75C28.5273 73.75 28.2122 73.8451 27.957 74.0352C27.7018 74.2227 27.5091 74.4857 27.3789 74.8242C27.2487 75.1602 27.1836 75.5521 27.1836 76ZM32.9805 81.25V73H33.8711V73.9531H33.9805C34.0482 73.849 34.1419 73.7161 34.2617 73.5547C34.3841 73.3906 34.5586 73.2448 34.7852 73.1172C35.0143 72.987 35.3242 72.9219 35.7148 72.9219C36.2201 72.9219 36.6654 73.0482 37.0508 73.3008C37.4362 73.5534 37.737 73.9115 37.9531 74.375C38.1693 74.8385 38.2773 75.3854 38.2773 76.0156C38.2773 76.651 38.1693 77.2018 37.9531 77.668C37.737 78.1315 37.4375 78.4909 37.0547 78.7461C36.6719 78.9987 36.2305 79.125 35.7305 79.125C35.3451 79.125 35.0365 79.0612 34.8047 78.9336C34.5729 78.8034 34.3945 78.6562 34.2695 78.4922C34.1445 78.3255 34.0482 78.1875 33.9805 78.0781H33.9023V81.25H32.9805ZM33.8867 76C33.8867 76.4531 33.9531 76.8529 34.0859 77.1992C34.2187 77.543 34.4128 77.8125 34.668 78.0078C34.9232 78.2005 35.2357 78.2969 35.6055 78.2969C35.9909 78.2969 36.3125 78.1953 36.5703 77.9922C36.8307 77.7865 37.026 77.5104 37.1563 77.1641C37.2891 76.8151 37.3555 76.4271 37.3555 76C37.3555 75.5781 37.2904 75.1979 37.1602 74.8594C37.0326 74.5182 36.8385 74.2487 36.5781 74.0508C36.3203 73.8503 35.9961 73.75 35.6055 73.75C35.2305 73.75 34.9154 73.8451 34.6602 74.0352C34.4049 74.2227 34.2122 74.4857 34.082 74.8242C33.9518 75.1602 33.8867 75.5521 33.8867 76ZM40.6055 71V79H39.6836V71H40.6055ZM42.8877 81.25C42.7314 81.25 42.5921 81.237 42.4697 81.2109C42.3473 81.1875 42.2627 81.1641 42.2158 81.1406L42.4502 80.3281C42.6742 80.3854 42.8721 80.4063 43.0439 80.3906C43.2158 80.375 43.3682 80.2982 43.501 80.1602C43.6364 80.0247 43.7601 79.8047 43.8721 79.5L44.0439 79.0313L41.8252 73H42.8252L44.4814 77.7812H44.5439L46.2002 73H47.2002L44.6533 79.875C44.5387 80.1849 44.3968 80.4414 44.2275 80.6445C44.0583 80.8503 43.8617 81.0026 43.6377 81.1016C43.4163 81.2005 43.1663 81.25 42.8877 81.25ZM54.1201 73V73.7812H51.0107V73H54.1201ZM51.917 71.5625H52.8389V77.2812C52.8389 77.5417 52.8766 77.737 52.9521 77.8672C53.0303 77.9948 53.1292 78.0807 53.249 78.125C53.3714 78.1667 53.5003 78.1875 53.6357 78.1875C53.7373 78.1875 53.8206 78.1823 53.8857 78.1719C53.9508 78.1589 54.0029 78.1484 54.042 78.1406L54.2295 78.9687C54.167 78.9922 54.0798 79.0156 53.9678 79.0391C53.8558 79.0651 53.7139 79.0781 53.542 79.0781C53.2816 79.0781 53.0264 79.0221 52.7764 78.9102C52.529 78.7982 52.3232 78.6276 52.1592 78.3984C51.9977 78.1693 51.917 77.8802 51.917 77.5312V71.5625ZM56.5576 75.3906V79H55.6357V71H56.5576V73.9375H56.6357C56.7764 73.6276 56.9873 73.3815 57.2686 73.1992C57.5524 73.0143 57.93 72.9219 58.4014 72.9219C58.8102 72.9219 59.1683 73.0039 59.4756 73.168C59.7829 73.3294 60.0212 73.5781 60.1904 73.9141C60.3623 74.2474 60.4482 74.6719 60.4482 75.1875V79H59.5264V75.25C59.5264 74.7734 59.4027 74.4049 59.1553 74.1445C58.9105 73.8815 58.5706 73.75 58.1357 73.75C57.8337 73.75 57.5628 73.8138 57.3232 73.9414C57.0863 74.069 56.8988 74.2552 56.7607 74.5C56.6253 74.7448 56.5576 75.0417 56.5576 75.3906ZM64.6504 79.125C64.0723 79.125 63.5736 78.9974 63.1543 78.7422C62.7376 78.4844 62.416 78.125 62.1895 77.6641C61.9655 77.2005 61.8535 76.6615 61.8535 76.0469C61.8535 75.4323 61.9655 74.8906 62.1895 74.4219C62.416 73.9505 62.7311 73.5833 63.1348 73.3203C63.541 73.0547 64.015 72.9219 64.5566 72.9219C64.8691 72.9219 65.1777 72.974 65.4824 73.0781C65.7871 73.1823 66.0645 73.3516 66.3145 73.5859C66.5645 73.8177 66.7637 74.125 66.9121 74.5078C67.0605 74.8906 67.1348 75.362 67.1348 75.9219V76.3125H62.5098V75.5156H66.1973C66.1973 75.1771 66.1296 74.875 65.9941 74.6094C65.8613 74.3437 65.6712 74.1341 65.4238 73.9805C65.179 73.8268 64.89 73.75 64.5566 73.75C64.1895 73.75 63.8717 73.8411 63.6035 74.0234C63.3379 74.2031 63.1335 74.4375 62.9902 74.7266C62.847 75.0156 62.7754 75.3255 62.7754 75.6562V76.1875C62.7754 76.6406 62.8535 77.0247 63.0098 77.3398C63.1686 77.6523 63.3887 77.8906 63.6699 78.0547C63.9512 78.2161 64.278 78.2969 64.6504 78.2969C64.8926 78.2969 65.1113 78.263 65.3066 78.1953C65.5046 78.125 65.6751 78.0208 65.8184 77.8828C65.9616 77.7422 66.0723 77.5677 66.1504 77.3594L67.041 77.6094C66.9473 77.9115 66.7897 78.1771 66.5684 78.4062C66.347 78.6328 66.0736 78.8099 65.748 78.9375C65.4225 79.0625 65.0566 79.125 64.6504 79.125ZM74.0684 79.125C73.5059 79.125 73.0215 78.9922 72.6152 78.7266C72.209 78.4609 71.8965 78.0951 71.6777 77.6289C71.459 77.1628 71.3496 76.6302 71.3496 76.0312C71.3496 75.4219 71.4616 74.8841 71.6855 74.418C71.9121 73.9492 72.2272 73.5833 72.6309 73.3203C73.0371 73.0547 73.5111 72.9219 74.0527 72.9219C74.4746 72.9219 74.8548 73 75.1934 73.1562C75.5319 73.3125 75.8092 73.5312 76.0254 73.8125C76.2415 74.0937 76.3757 74.4219 76.4277 74.7969H75.5059C75.4355 74.5234 75.2793 74.2812 75.0371 74.0703C74.7975 73.8568 74.4746 73.75 74.0684 73.75C73.709 73.75 73.3939 73.8437 73.123 74.0312C72.8548 74.2161 72.6452 74.4779 72.4941 74.8164C72.3457 75.1523 72.2715 75.5469 72.2715 76C72.2715 76.4635 72.3444 76.8672 72.4902 77.2109C72.6387 77.5547 72.847 77.8216 73.1152 78.0117C73.3861 78.2018 73.7038 78.2969 74.0684 78.2969C74.3079 78.2969 74.5254 78.2552 74.7207 78.1719C74.916 78.0885 75.0814 77.9688 75.2168 77.8125C75.3522 77.6562 75.4486 77.4687 75.5059 77.25H76.4277C76.3757 77.6042 76.2467 77.9232 76.041 78.207C75.8379 78.4883 75.5684 78.7122 75.2324 78.8789C74.8991 79.043 74.5111 79.125 74.0684 79.125ZM80.2129 79.125C79.6712 79.125 79.196 78.9961 78.7871 78.7383C78.3809 78.4805 78.0632 78.1198 77.834 77.6562C77.6074 77.1927 77.4941 76.651 77.4941 76.0312C77.4941 75.4062 77.6074 74.8607 77.834 74.3945C78.0632 73.9284 78.3809 73.5664 78.7871 73.3086C79.196 73.0508 79.6712 72.9219 80.2129 72.9219C80.7546 72.9219 81.2285 73.0508 81.6348 73.3086C82.0436 73.5664 82.3613 73.9284 82.5879 74.3945C82.8171 74.8607 82.9316 75.4062 82.9316 76.0312C82.9316 76.651 82.8171 77.1927 82.5879 77.6562C82.3613 78.1198 82.0436 78.4805 81.6348 78.7383C81.2285 78.9961 80.7546 79.125 80.2129 79.125ZM80.2129 78.2969C80.6243 78.2969 80.9629 78.1914 81.2285 77.9805C81.4941 77.7695 81.6908 77.4922 81.8184 77.1484C81.946 76.8047 82.0098 76.4323 82.0098 76.0312C82.0098 75.6302 81.946 75.2565 81.8184 74.9102C81.6908 74.5638 81.4941 74.2839 81.2285 74.0703C80.9629 73.8568 80.6243 73.75 80.2129 73.75C79.8014 73.75 79.4629 73.8568 79.1973 74.0703C78.9316 74.2839 78.735 74.5638 78.6074 74.9102C78.4798 75.2565 78.416 75.6302 78.416 76.0312C78.416 76.4323 78.4798 76.8047 78.6074 77.1484C78.735 77.4922 78.9316 77.7695 79.1973 77.9805C79.4629 78.1914 79.8014 78.2969 80.2129 78.2969ZM88.1201 76.5469V73H89.042V79H88.1201V77.9844H88.0576C87.917 78.2891 87.6982 78.5482 87.4014 78.7617C87.1045 78.9727 86.7295 79.0781 86.2764 79.0781C85.9014 79.0781 85.568 78.9961 85.2764 78.832C84.9847 78.6654 84.7555 78.4154 84.5889 78.082C84.4222 77.7461 84.3389 77.3229 84.3389 76.8125V73H85.2607V76.75C85.2607 77.1875 85.3831 77.5365 85.6279 77.7969C85.8753 78.0573 86.1904 78.1875 86.5732 78.1875C86.8024 78.1875 87.0355 78.1289 87.2725 78.0117C87.512 77.8945 87.7126 77.7148 87.874 77.4727C88.0381 77.2305 88.1201 76.9219 88.1201 76.5469ZM90.7305 81.25V73H91.6211V73.9531H91.7305C91.7982 73.849 91.8919 73.7161 92.0117 73.5547C92.1341 73.3906 92.3086 73.2448 92.5352 73.1172C92.7643 72.987 93.0742 72.9219 93.4648 72.9219C93.9701 72.9219 94.4154 73.0482 94.8008 73.3008C95.1862 73.5534 95.487 73.9115 95.7031 74.375C95.9193 74.8385 96.0273 75.3854 96.0273 76.0156C96.0273 76.651 95.9193 77.2018 95.7031 77.668C95.487 78.1315 95.1875 78.4909 94.8047 78.7461C94.4219 78.9987 93.9805 79.125 93.4805 79.125C93.0951 79.125 92.7865 79.0612 92.5547 78.9336C92.3229 78.8034 92.1445 78.6562 92.0195 78.4922C91.8945 78.3255 91.7982 78.1875 91.7305 78.0781H91.6523V81.25H90.7305ZM91.6367 76C91.6367 76.4531 91.7031 76.8529 91.8359 77.1992C91.9687 77.543 92.1628 77.8125 92.418 78.0078C92.6732 78.2005 92.9857 78.2969 93.3555 78.2969C93.7409 78.2969 94.0625 78.1953 94.3203 77.9922C94.5807 77.7865 94.776 77.5104 94.9063 77.1641C95.0391 76.8151 95.1055 76.4271 95.1055 76C95.1055 75.5781 95.0404 75.1979 94.9102 74.8594C94.7826 74.5182 94.5885 74.2487 94.3281 74.0508C94.0703 73.8503 93.7461 73.75 93.3555 73.75C92.9805 73.75 92.6654 73.8451 92.4102 74.0352C92.1549 74.2227 91.9622 74.4857 91.832 74.8242C91.7018 75.1602 91.6367 75.5521 91.6367 76ZM99.8711 79.125C99.3294 79.125 98.8542 78.9961 98.4453 78.7383C98.0391 78.4805 97.7214 78.1198 97.4922 77.6562C97.2656 77.1927 97.1523 76.651 97.1523 76.0312C97.1523 75.4062 97.2656 74.8607 97.4922 74.3945C97.7214 73.9284 98.0391 73.5664 98.4453 73.3086C98.8542 73.0508 99.3294 72.9219 99.8711 72.9219C100.413 72.9219 100.887 73.0508 101.293 73.3086C101.702 73.5664 102.02 73.9284 102.246 74.3945C102.475 74.8607 102.59 75.4062 102.59 76.0312C102.59 76.651 102.475 77.1927 102.246 77.6562C102.02 78.1198 101.702 78.4805 101.293 78.7383C100.887 78.9961 100.413 79.125 99.8711 79.125ZM99.8711 78.2969C100.283 78.2969 100.621 78.1914 100.887 77.9805C101.152 77.7695 101.349 77.4922 101.477 77.1484C101.604 76.8047 101.668 76.4323 101.668 76.0312C101.668 75.6302 101.604 75.2565 101.477 74.9102C101.349 74.5638 101.152 74.2839 100.887 74.0703C100.621 73.8568 100.283 73.75 99.8711 73.75C99.4596 73.75 99.1211 73.8568 98.8555 74.0703C98.5898 74.2839 98.3932 74.5638 98.2656 74.9102C98.138 75.2565 98.0742 75.6302 98.0742 76.0312C98.0742 76.4323 98.138 76.8047 98.2656 77.1484C98.3932 77.4922 98.5898 77.7695 98.8555 77.9805C99.1211 78.1914 99.4596 78.2969 99.8711 78.2969ZM104.919 75.3906V79H103.997V73H104.888V73.9375H104.966C105.106 73.6328 105.32 73.388 105.606 73.2031C105.893 73.0156 106.263 72.9219 106.716 72.9219C107.122 72.9219 107.478 73.0052 107.782 73.1719C108.087 73.3359 108.324 73.5859 108.493 73.9219C108.662 74.2552 108.747 74.6771 108.747 75.1875V79H107.825V75.25C107.825 74.7786 107.703 74.4115 107.458 74.1484C107.213 73.8828 106.877 73.75 106.45 73.75C106.156 73.75 105.893 73.8138 105.661 73.9414C105.432 74.069 105.251 74.2552 105.118 74.5C104.985 74.7448 104.919 75.0417 104.919 75.3906ZM115.291 79.1406C114.911 79.1406 114.566 79.069 114.256 78.9258C113.946 78.7799 113.7 78.5703 113.518 78.2969C113.335 78.0208 113.244 77.6875 113.244 77.2969C113.244 76.9531 113.312 76.6745 113.447 76.4609C113.583 76.2448 113.764 76.0755 113.99 75.9531C114.217 75.8307 114.467 75.7396 114.74 75.6797C115.016 75.6172 115.294 75.5677 115.572 75.5313C115.937 75.4844 116.232 75.4492 116.459 75.4258C116.688 75.3997 116.855 75.3568 116.959 75.2969C117.066 75.237 117.119 75.1328 117.119 74.9844V74.9531C117.119 74.5677 117.014 74.2682 116.803 74.0547C116.594 73.8411 116.278 73.7344 115.854 73.7344C115.413 73.7344 115.068 73.8307 114.818 74.0234C114.568 74.2161 114.393 74.4219 114.291 74.6406L113.416 74.3281C113.572 73.9635 113.781 73.6797 114.041 73.4766C114.304 73.2708 114.59 73.1276 114.9 73.0469C115.213 72.9635 115.52 72.9219 115.822 72.9219C116.015 72.9219 116.236 72.9453 116.486 72.9922C116.739 73.0365 116.982 73.1289 117.217 73.2695C117.454 73.4102 117.65 73.6224 117.807 73.9062C117.963 74.1901 118.041 74.5703 118.041 75.0469V79H117.119V78.1875H117.072C117.01 78.3177 116.906 78.457 116.76 78.6055C116.614 78.7539 116.42 78.8802 116.178 78.9844C115.936 79.0885 115.64 79.1406 115.291 79.1406ZM115.432 78.3125C115.796 78.3125 116.104 78.2409 116.354 78.0977C116.606 77.9544 116.796 77.7695 116.924 77.543C117.054 77.3164 117.119 77.0781 117.119 76.8281V75.9844C117.08 76.0312 116.994 76.0742 116.861 76.1133C116.731 76.1497 116.58 76.1823 116.408 76.2109C116.239 76.237 116.074 76.2604 115.912 76.2812C115.753 76.2995 115.624 76.3151 115.525 76.3281C115.286 76.3594 115.062 76.4102 114.854 76.4805C114.648 76.5482 114.481 76.651 114.354 76.7891C114.229 76.9245 114.166 77.1094 114.166 77.3437C114.166 77.6641 114.285 77.9062 114.521 78.0703C114.761 78.2318 115.064 78.3125 115.432 78.3125ZM120.646 75.3906V79H119.724V73H120.614V73.9375H120.692C120.833 73.6328 121.047 73.388 121.333 73.2031C121.619 73.0156 121.989 72.9219 122.442 72.9219C122.849 72.9219 123.204 73.0052 123.509 73.1719C123.813 73.3359 124.05 73.5859 124.22 73.9219C124.389 74.2552 124.474 74.6771 124.474 75.1875V79H123.552V75.25C123.552 74.7786 123.429 74.4115 123.185 74.1484C122.94 73.8828 122.604 73.75 122.177 73.75C121.882 73.75 121.619 73.8138 121.388 73.9414C121.159 74.069 120.978 74.2552 120.845 74.5C120.712 74.7448 120.646 75.0417 120.646 75.3906ZM128.424 79.125C127.924 79.125 127.482 78.9987 127.1 78.7461C126.717 78.4909 126.417 78.1315 126.201 77.668C125.985 77.2018 125.877 76.651 125.877 76.0156C125.877 75.3854 125.985 74.8385 126.201 74.375C126.417 73.9115 126.718 73.5534 127.104 73.3008C127.489 73.0482 127.934 72.9219 128.439 72.9219C128.83 72.9219 129.139 72.987 129.365 73.1172C129.594 73.2448 129.769 73.3906 129.889 73.5547C130.011 73.7161 130.106 73.849 130.174 73.9531H130.252V71H131.174V79H130.283V78.0781H130.174C130.106 78.1875 130.01 78.3255 129.885 78.4922C129.76 78.6562 129.581 78.8034 129.35 78.9336C129.118 79.0612 128.809 79.125 128.424 79.125ZM128.549 78.2969C128.919 78.2969 129.231 78.2005 129.486 78.0078C129.742 77.8125 129.936 77.543 130.068 77.1992C130.201 76.8529 130.268 76.4531 130.268 76C130.268 75.5521 130.202 75.1602 130.072 74.8242C129.942 74.4857 129.749 74.2227 129.494 74.0352C129.239 73.8451 128.924 73.75 128.549 73.75C128.158 73.75 127.833 73.8503 127.572 74.0508C127.314 74.2487 127.12 74.5182 126.99 74.8594C126.863 75.1979 126.799 75.5781 126.799 76C126.799 76.4271 126.864 76.8151 126.994 77.1641C127.127 77.5104 127.322 77.7865 127.58 77.9922C127.84 78.1953 128.163 78.2969 128.549 78.2969ZM138.506 81.375C138.061 81.375 137.678 81.3177 137.357 81.2031C137.037 81.0911 136.77 80.9427 136.557 80.7578C136.346 80.5755 136.178 80.3802 136.053 80.1719L136.787 79.6563C136.87 79.7656 136.976 79.8906 137.104 80.0312C137.231 80.1745 137.406 80.2982 137.627 80.4023C137.851 80.5091 138.144 80.5625 138.506 80.5625C138.99 80.5625 139.39 80.4453 139.705 80.2109C140.02 79.9766 140.178 79.6094 140.178 79.1094V77.8906H140.1C140.032 78 139.936 78.1354 139.811 78.2969C139.688 78.4557 139.511 78.5977 139.279 78.7227C139.05 78.8451 138.74 78.9062 138.35 78.9062C137.865 78.9062 137.43 78.7917 137.045 78.5625C136.662 78.3333 136.359 78 136.135 77.5625C135.913 77.125 135.803 76.5937 135.803 75.9687C135.803 75.3542 135.911 74.819 136.127 74.3633C136.343 73.9049 136.644 73.5508 137.029 73.3008C137.415 73.0482 137.86 72.9219 138.365 72.9219C138.756 72.9219 139.066 72.987 139.295 73.1172C139.527 73.2448 139.704 73.3906 139.826 73.5547C139.951 73.7161 140.048 73.849 140.115 73.9531H140.209V73H141.1V79.1719C141.1 79.6875 140.982 80.1068 140.748 80.4297C140.516 80.7552 140.204 80.9935 139.811 81.1445C139.42 81.2982 138.985 81.375 138.506 81.375ZM138.475 78.0781C138.844 78.0781 139.157 77.9935 139.412 77.8242C139.667 77.6549 139.861 77.4115 139.994 77.0938C140.127 76.776 140.193 76.3958 140.193 75.9531C140.193 75.5208 140.128 75.1393 139.998 74.8086C139.868 74.4779 139.675 74.2187 139.42 74.0312C139.165 73.8437 138.85 73.75 138.475 73.75C138.084 73.75 137.758 73.849 137.498 74.0469C137.24 74.2448 137.046 74.5104 136.916 74.8438C136.788 75.1771 136.725 75.5469 136.725 75.9531C136.725 76.3698 136.79 76.7383 136.92 77.0586C137.053 77.3763 137.248 77.6263 137.506 77.8086C137.766 77.9883 138.089 78.0781 138.475 78.0781ZM145.303 79.125C144.725 79.125 144.226 78.9974 143.807 78.7422C143.39 78.4844 143.068 78.125 142.842 77.6641C142.618 77.2005 142.506 76.6615 142.506 76.0469C142.506 75.4323 142.618 74.8906 142.842 74.4219C143.068 73.9505 143.383 73.5833 143.787 73.3203C144.193 73.0547 144.667 72.9219 145.209 72.9219C145.521 72.9219 145.83 72.974 146.135 73.0781C146.439 73.1823 146.717 73.3516 146.967 73.5859C147.217 73.8177 147.416 74.125 147.564 74.5078C147.713 74.8906 147.787 75.362 147.787 75.9219V76.3125H143.162V75.5156H146.85C146.85 75.1771 146.782 74.875 146.646 74.6094C146.514 74.3437 146.324 74.1341 146.076 73.9805C145.831 73.8268 145.542 73.75 145.209 73.75C144.842 73.75 144.524 73.8411 144.256 74.0234C143.99 74.2031 143.786 74.4375 143.643 74.7266C143.499 75.0156 143.428 75.3255 143.428 75.6562V76.1875C143.428 76.6406 143.506 77.0247 143.662 77.3398C143.821 77.6523 144.041 77.8906 144.322 78.0547C144.604 78.2161 144.93 78.2969 145.303 78.2969C145.545 78.2969 145.764 78.263 145.959 78.1953C146.157 78.125 146.327 78.0208 146.471 77.8828C146.614 77.7422 146.725 77.5677 146.803 77.3594L147.693 77.6094C147.6 77.9115 147.442 78.1771 147.221 78.4062C146.999 78.6328 146.726 78.8099 146.4 78.9375C146.075 79.0625 145.709 79.125 145.303 79.125ZM151.799 73V73.7812H148.689V73H151.799ZM149.596 71.5625H150.518V77.2812C150.518 77.5417 150.555 77.737 150.631 77.8672C150.709 77.9948 150.808 78.0807 150.928 78.125C151.05 78.1667 151.179 78.1875 151.314 78.1875C151.416 78.1875 151.499 78.1823 151.564 78.1719C151.63 78.1589 151.682 78.1484 151.721 78.1406L151.908 78.9687C151.846 78.9922 151.758 79.0156 151.646 79.0391C151.535 79.0651 151.393 79.0781 151.221 79.0781C150.96 79.0781 150.705 79.0221 150.455 78.9102C150.208 78.7982 150.002 78.6276 149.838 78.3984C149.676 78.1693 149.596 77.8802 149.596 77.5312V71.5625ZM158.701 81.375C158.256 81.375 157.873 81.3177 157.553 81.2031C157.232 81.0911 156.965 80.9427 156.752 80.7578C156.541 80.5755 156.373 80.3802 156.248 80.1719L156.982 79.6563C157.066 79.7656 157.171 79.8906 157.299 80.0312C157.426 80.1745 157.601 80.2982 157.822 80.4023C158.046 80.5091 158.339 80.5625 158.701 80.5625C159.186 80.5625 159.585 80.4453 159.9 80.2109C160.215 79.9766 160.373 79.6094 160.373 79.1094V77.8906H160.295C160.227 78 160.131 78.1354 160.006 78.2969C159.883 78.4557 159.706 78.5977 159.475 78.7227C159.245 78.8451 158.936 78.9062 158.545 78.9062C158.061 78.9062 157.626 78.7917 157.24 78.5625C156.857 78.3333 156.554 78 156.33 77.5625C156.109 77.125 155.998 76.5937 155.998 75.9687C155.998 75.3542 156.106 74.819 156.322 74.3633C156.538 73.9049 156.839 73.5508 157.225 73.3008C157.61 73.0482 158.055 72.9219 158.561 72.9219C158.951 72.9219 159.261 72.987 159.49 73.1172C159.722 73.2448 159.899 73.3906 160.021 73.5547C160.146 73.7161 160.243 73.849 160.311 73.9531H160.404V73H161.295V79.1719C161.295 79.6875 161.178 80.1068 160.943 80.4297C160.712 80.7552 160.399 80.9935 160.006 81.1445C159.615 81.2982 159.18 81.375 158.701 81.375ZM158.67 78.0781C159.04 78.0781 159.352 77.9935 159.607 77.8242C159.863 77.6549 160.057 77.4115 160.189 77.0938C160.322 76.776 160.389 76.3958 160.389 75.9531C160.389 75.5208 160.324 75.1393 160.193 74.8086C160.063 74.4779 159.87 74.2187 159.615 74.0312C159.36 73.8437 159.045 73.75 158.67 73.75C158.279 73.75 157.954 73.849 157.693 74.0469C157.436 74.2448 157.242 74.5104 157.111 74.8438C156.984 75.1771 156.92 75.5469 156.92 75.9531C156.92 76.3698 156.985 76.7383 157.115 77.0586C157.248 77.3763 157.443 77.6263 157.701 77.8086C157.962 77.9883 158.285 78.0781 158.67 78.0781ZM162.982 79V73H163.873V73.9062H163.936C164.045 73.6094 164.243 73.3685 164.529 73.1836C164.816 72.9987 165.139 72.9062 165.498 72.9062C165.566 72.9062 165.65 72.9076 165.752 72.9102C165.854 72.9128 165.93 72.9167 165.982 72.9219V73.8594C165.951 73.8516 165.88 73.8398 165.768 73.8242C165.658 73.806 165.542 73.7969 165.42 73.7969C165.128 73.7969 164.868 73.8581 164.639 73.9805C164.412 74.1003 164.232 74.2669 164.1 74.4805C163.969 74.6914 163.904 74.9323 163.904 75.2031V79H162.982ZM169.408 79.125C168.83 79.125 168.331 78.9974 167.912 78.7422C167.495 78.4844 167.174 78.125 166.947 77.6641C166.723 77.2005 166.611 76.6615 166.611 76.0469C166.611 75.4323 166.723 74.8906 166.947 74.4219C167.174 73.9505 167.489 73.5833 167.893 73.3203C168.299 73.0547 168.773 72.9219 169.314 72.9219C169.627 72.9219 169.936 72.974 170.24 73.0781C170.545 73.1823 170.822 73.3516 171.072 73.5859C171.322 73.8177 171.521 74.125 171.67 74.5078C171.818 74.8906 171.893 75.362 171.893 75.9219V76.3125H167.268V75.5156H170.955C170.955 75.1771 170.887 74.875 170.752 74.6094C170.619 74.3437 170.429 74.1341 170.182 73.9805C169.937 73.8268 169.648 73.75 169.314 73.75C168.947 73.75 168.63 73.8411 168.361 74.0234C168.096 74.2031 167.891 74.4375 167.748 74.7266C167.605 75.0156 167.533 75.3255 167.533 75.6562V76.1875C167.533 76.6406 167.611 77.0247 167.768 77.3398C167.926 77.6523 168.146 77.8906 168.428 78.0547C168.709 78.2161 169.036 78.2969 169.408 78.2969C169.65 78.2969 169.869 78.263 170.064 78.1953C170.262 78.125 170.433 78.0208 170.576 77.8828C170.719 77.7422 170.83 77.5677 170.908 77.3594L171.799 77.6094C171.705 77.9115 171.548 78.1771 171.326 78.4062C171.105 78.6328 170.831 78.8099 170.506 78.9375C170.18 79.0625 169.814 79.125 169.408 79.125ZM175.061 79.1406C174.68 79.1406 174.335 79.069 174.025 78.9258C173.715 78.7799 173.469 78.5703 173.287 78.2969C173.105 78.0208 173.014 77.6875 173.014 77.2969C173.014 76.9531 173.081 76.6745 173.217 76.4609C173.352 76.2448 173.533 76.0755 173.76 75.9531C173.986 75.8307 174.236 75.7396 174.51 75.6797C174.786 75.6172 175.063 75.5677 175.342 75.5313C175.706 75.4844 176.002 75.4492 176.229 75.4258C176.458 75.3997 176.624 75.3568 176.729 75.2969C176.835 75.237 176.889 75.1328 176.889 74.9844V74.9531C176.889 74.5677 176.783 74.2682 176.572 74.0547C176.364 73.8411 176.048 73.7344 175.623 73.7344C175.183 73.7344 174.838 73.8307 174.588 74.0234C174.338 74.2161 174.162 74.4219 174.061 74.6406L173.186 74.3281C173.342 73.9635 173.55 73.6797 173.811 73.4766C174.074 73.2708 174.36 73.1276 174.67 73.0469C174.982 72.9635 175.29 72.9219 175.592 72.9219C175.785 72.9219 176.006 72.9453 176.256 72.9922C176.508 73.0365 176.752 73.1289 176.986 73.2695C177.223 73.4102 177.42 73.6224 177.576 73.9062C177.732 74.1901 177.811 74.5703 177.811 75.0469V79H176.889V78.1875H176.842C176.779 78.3177 176.675 78.457 176.529 78.6055C176.383 78.7539 176.189 78.8802 175.947 78.9844C175.705 79.0885 175.41 79.1406 175.061 79.1406ZM175.201 78.3125C175.566 78.3125 175.873 78.2409 176.123 78.0977C176.376 77.9544 176.566 77.7695 176.693 77.543C176.824 77.3164 176.889 77.0781 176.889 76.8281V75.9844C176.85 76.0312 176.764 76.0742 176.631 76.1133C176.501 76.1497 176.35 76.1823 176.178 76.2109C176.008 76.237 175.843 76.2604 175.682 76.2812C175.523 76.2995 175.394 76.3151 175.295 76.3281C175.055 76.3594 174.831 76.4102 174.623 76.4805C174.417 76.5482 174.251 76.651 174.123 76.7891C173.998 76.9245 173.936 77.1094 173.936 77.3437C173.936 77.6641 174.054 77.9062 174.291 78.0703C174.531 78.2318 174.834 78.3125 175.201 78.3125ZM182.103 73V73.7812H178.993V73H182.103ZM179.899 71.5625H180.821V77.2812C180.821 77.5417 180.859 77.737 180.935 77.8672C181.013 77.9948 181.112 78.0807 181.231 78.125C181.354 78.1667 181.483 78.1875 181.618 78.1875C181.72 78.1875 181.803 78.1823 181.868 78.1719C181.933 78.1589 181.985 78.1484 182.024 78.1406L182.212 78.9687C182.149 78.9922 182.062 79.0156 181.95 79.0391C181.838 79.0651 181.696 79.0781 181.524 79.0781C181.264 79.0781 181.009 79.0221 180.759 78.9102C180.511 78.7982 180.306 78.6276 180.142 78.3984C179.98 78.1693 179.899 77.8802 179.899 77.5312V71.5625ZM21.1094 96.125C20.6094 96.125 20.168 95.9987 19.7852 95.7461C19.4023 95.4909 19.1029 95.1315 18.8867 94.668C18.6706 94.2018 18.5625 93.651 18.5625 93.0156C18.5625 92.3854 18.6706 91.8385 18.8867 91.375C19.1029 90.9115 19.4036 90.5534 19.7891 90.3008C20.1745 90.0482 20.6198 89.9219 21.125 89.9219C21.5156 89.9219 21.8242 89.987 22.0508 90.1172C22.2799 90.2448 22.4544 90.3906 22.5742 90.5547C22.6966 90.7161 22.7917 90.849 22.8594 90.9531H22.9375V88H23.8594V96H22.9688V95.0781H22.8594C22.7917 95.1875 22.6953 95.3255 22.5703 95.4922C22.4453 95.6562 22.2669 95.8034 22.0352 95.9336C21.8034 96.0612 21.4948 96.125 21.1094 96.125ZM21.2344 95.2969C21.6042 95.2969 21.9167 95.2005 22.1719 95.0078C22.4271 94.8125 22.6211 94.543 22.7539 94.1992C22.8867 93.8529 22.9531 93.4531 22.9531 93C22.9531 92.5521 22.888 92.1602 22.7578 91.8242C22.6276 91.4857 22.4349 91.2227 22.1797 91.0352C21.9245 90.8451 21.6094 90.75 21.2344 90.75C20.8438 90.75 20.5182 90.8503 20.2578 91.0508C20 91.2487 19.806 91.5182 19.6758 91.8594C19.5482 92.1979 19.4844 92.5781 19.4844 93C19.4844 93.4271 19.5495 93.8151 19.6797 94.1641C19.8125 94.5104 20.0078 94.7865 20.2656 94.9922C20.526 95.1953 20.849 95.2969 21.2344 95.2969ZM25.6758 96V90H26.5977V96H25.6758ZM26.1445 89C25.9648 89 25.8099 88.9388 25.6797 88.8164C25.5521 88.694 25.4883 88.5469 25.4883 88.375C25.4883 88.2031 25.5521 88.056 25.6797 87.9336C25.8099 87.8112 25.9648 87.75 26.1445 87.75C26.3242 87.75 26.4779 87.8112 26.6055 87.9336C26.7357 88.056 26.8008 88.2031 26.8008 88.375C26.8008 88.5469 26.7357 88.694 26.6055 88.8164C26.4779 88.9388 26.3242 89 26.1445 89ZM32.5361 91.3437L31.708 91.5781C31.6559 91.4401 31.5791 91.306 31.4775 91.1758C31.3786 91.043 31.2432 90.9336 31.0713 90.8477C30.8994 90.7617 30.6794 90.7187 30.4111 90.7187C30.0439 90.7187 29.738 90.8034 29.4932 90.9727C29.251 91.1393 29.1299 91.3516 29.1299 91.6094C29.1299 91.8385 29.2132 92.0195 29.3799 92.1523C29.5465 92.2852 29.807 92.3958 30.1611 92.4844L31.0518 92.7031C31.5882 92.8333 31.988 93.0326 32.251 93.3008C32.514 93.5664 32.6455 93.9089 32.6455 94.3281C32.6455 94.6719 32.5465 94.9792 32.3486 95.25C32.1533 95.5208 31.8799 95.7344 31.5283 95.8906C31.1768 96.0469 30.7679 96.125 30.3018 96.125C29.6898 96.125 29.1833 95.9922 28.7822 95.7266C28.3812 95.4609 28.1273 95.0729 28.0205 94.5625L28.8955 94.3437C28.9788 94.6667 29.1364 94.9089 29.3682 95.0703C29.6025 95.2318 29.9085 95.3125 30.2861 95.3125C30.7158 95.3125 31.057 95.2214 31.3096 95.0391C31.5648 94.8542 31.6924 94.6328 31.6924 94.375C31.6924 94.1667 31.6195 93.9922 31.4736 93.8516C31.3278 93.7083 31.1038 93.6016 30.8018 93.5312L29.8018 93.2969C29.2523 93.1667 28.8486 92.9648 28.5908 92.6914C28.3356 92.4154 28.208 92.0703 28.208 91.6562C28.208 91.3177 28.3031 91.0182 28.4932 90.7578C28.6859 90.4974 28.9476 90.293 29.2783 90.1445C29.6117 89.9961 29.9893 89.9219 30.4111 89.9219C31.0049 89.9219 31.471 90.0521 31.8096 90.3125C32.1507 90.5729 32.3929 90.9167 32.5361 91.3437ZM36.4707 96.125C35.9082 96.125 35.4238 95.9922 35.0176 95.7266C34.6113 95.4609 34.2988 95.0951 34.0801 94.6289C33.8613 94.1628 33.752 93.6302 33.752 93.0312C33.752 92.4219 33.8639 91.8841 34.0879 91.418C34.3145 90.9492 34.6296 90.5833 35.0332 90.3203C35.4395 90.0547 35.9134 89.9219 36.4551 89.9219C36.877 89.9219 37.2572 90 37.5957 90.1562C37.9342 90.3125 38.2116 90.5312 38.4277 90.8125C38.6439 91.0937 38.778 91.4219 38.8301 91.7969H37.9082C37.8379 91.5234 37.6816 91.2812 37.4395 91.0703C37.1999 90.8568 36.877 90.75 36.4707 90.75C36.1113 90.75 35.7962 90.8437 35.5254 91.0312C35.2572 91.2161 35.0475 91.4779 34.8965 91.8164C34.748 92.1523 34.6738 92.5469 34.6738 93C34.6738 93.4635 34.7467 93.8672 34.8926 94.2109C35.041 94.5547 35.2493 94.8216 35.5176 95.0117C35.7884 95.2018 36.1061 95.2969 36.4707 95.2969C36.7103 95.2969 36.9277 95.2552 37.123 95.1719C37.3184 95.0885 37.4837 94.9688 37.6191 94.8125C37.7546 94.6562 37.8509 94.4687 37.9082 94.25H38.8301C38.778 94.6042 38.6491 94.9232 38.4434 95.207C38.2402 95.4883 37.9707 95.7122 37.6348 95.8789C37.3014 96.043 36.9134 96.125 36.4707 96.125ZM42.6152 96.125C42.0736 96.125 41.5983 95.9961 41.1895 95.7383C40.7832 95.4805 40.4655 95.1198 40.2363 94.6562C40.0098 94.1927 39.8965 93.651 39.8965 93.0312C39.8965 92.4062 40.0098 91.8607 40.2363 91.3945C40.4655 90.9284 40.7832 90.5664 41.1895 90.3086C41.5983 90.0508 42.0736 89.9219 42.6152 89.9219C43.1569 89.9219 43.6309 90.0508 44.0371 90.3086C44.446 90.5664 44.7637 90.9284 44.9902 91.3945C45.2194 91.8607 45.334 92.4062 45.334 93.0312C45.334 93.651 45.2194 94.1927 44.9902 94.6562C44.7637 95.1198 44.446 95.4805 44.0371 95.7383C43.6309 95.9961 43.1569 96.125 42.6152 96.125ZM42.6152 95.2969C43.0267 95.2969 43.3652 95.1914 43.6309 94.9805C43.8965 94.7695 44.0931 94.4922 44.2207 94.1484C44.3483 93.8047 44.4121 93.4323 44.4121 93.0312C44.4121 92.6302 44.3483 92.2565 44.2207 91.9102C44.0931 91.5638 43.8965 91.2839 43.6309 91.0703C43.3652 90.8568 43.0267 90.75 42.6152 90.75C42.2038 90.75 41.8652 90.8568 41.5996 91.0703C41.334 91.2839 41.1374 91.5638 41.0098 91.9102C40.8822 92.2565 40.8184 92.6302 40.8184 93.0312C40.8184 93.4323 40.8822 93.8047 41.0098 94.1484C41.1374 94.4922 41.334 94.7695 41.5996 94.9805C41.8652 95.1914 42.2038 95.2969 42.6152 95.2969ZM50.5225 93.5469V90H51.4443V96H50.5225V94.9844H50.46C50.3193 95.2891 50.1006 95.5482 49.8037 95.7617C49.5068 95.9727 49.1318 96.0781 48.6787 96.0781C48.3037 96.0781 47.9704 95.9961 47.6787 95.832C47.387 95.6654 47.1579 95.4154 46.9912 95.082C46.8245 94.7461 46.7412 94.3229 46.7412 93.8125V90H47.6631V93.75C47.6631 94.1875 47.7855 94.5365 48.0303 94.7969C48.2777 95.0573 48.5928 95.1875 48.9756 95.1875C49.2048 95.1875 49.4378 95.1289 49.6748 95.0117C49.9144 94.8945 50.1149 94.7148 50.2764 94.4727C50.4404 94.2305 50.5225 93.9219 50.5225 93.5469ZM54.0547 92.3906V96H53.1328V90H54.0234V90.9375H54.1016C54.2422 90.6328 54.4557 90.388 54.7422 90.2031C55.0286 90.0156 55.3984 89.9219 55.8516 89.9219C56.2578 89.9219 56.6133 90.0052 56.918 90.1719C57.2227 90.3359 57.4596 90.5859 57.6289 90.9219C57.7982 91.2552 57.8828 91.6771 57.8828 92.1875V96H56.9609V92.25C56.9609 91.7786 56.8385 91.4115 56.5938 91.1484C56.349 90.8828 56.013 90.75 55.5859 90.75C55.2917 90.75 55.0286 90.8138 54.7969 90.9414C54.5677 91.069 54.3867 91.2552 54.2539 91.5C54.1211 91.7448 54.0547 92.0417 54.0547 92.3906ZM62.1768 90V90.7812H59.0674V90H62.1768ZM59.9736 88.5625H60.8955V94.2812C60.8955 94.5417 60.9333 94.737 61.0088 94.8672C61.0869 94.9948 61.1859 95.0807 61.3057 95.125C61.4281 95.1667 61.557 95.1875 61.6924 95.1875C61.7939 95.1875 61.8773 95.1823 61.9424 95.1719C62.0075 95.1589 62.0596 95.1484 62.0986 95.1406L62.2861 95.9687C62.2236 95.9922 62.1364 96.0156 62.0244 96.0391C61.9124 96.0651 61.7705 96.0781 61.5986 96.0781C61.3382 96.0781 61.083 96.0221 60.833 95.9102C60.5856 95.7982 60.3799 95.6276 60.2158 95.3984C60.0544 95.1693 59.9736 94.8802 59.9736 94.5312V88.5625ZM67.7061 91.3437L66.8779 91.5781C66.8258 91.4401 66.749 91.306 66.6475 91.1758C66.5485 91.043 66.4131 90.9336 66.2412 90.8477C66.0693 90.7617 65.8493 90.7187 65.5811 90.7187C65.2139 90.7187 64.9079 90.8034 64.6631 90.9727C64.4209 91.1393 64.2998 91.3516 64.2998 91.6094C64.2998 91.8385 64.3831 92.0195 64.5498 92.1523C64.7165 92.2852 64.9769 92.3958 65.3311 92.4844L66.2217 92.7031C66.7581 92.8333 67.1579 93.0326 67.4209 93.3008C67.6839 93.5664 67.8154 93.9089 67.8154 94.3281C67.8154 94.6719 67.7165 94.9792 67.5186 95.25C67.3232 95.5208 67.0498 95.7344 66.6982 95.8906C66.3467 96.0469 65.9378 96.125 65.4717 96.125C64.8597 96.125 64.3532 95.9922 63.9521 95.7266C63.5511 95.4609 63.2972 95.0729 63.1904 94.5625L64.0654 94.3437C64.1488 94.6667 64.3063 94.9089 64.5381 95.0703C64.7725 95.2318 65.0785 95.3125 65.4561 95.3125C65.8857 95.3125 66.2269 95.2214 66.4795 95.0391C66.7347 94.8542 66.8623 94.6328 66.8623 94.375C66.8623 94.1667 66.7894 93.9922 66.6436 93.8516C66.4977 93.7083 66.2738 93.6016 65.9717 93.5312L64.9717 93.2969C64.4222 93.1667 64.0186 92.9648 63.7607 92.6914C63.5055 92.4154 63.3779 92.0703 63.3779 91.6562C63.3779 91.3177 63.473 91.0182 63.6631 90.7578C63.8558 90.4974 64.1175 90.293 64.4482 90.1445C64.7816 89.9961 65.1592 89.9219 65.5811 89.9219C66.1748 89.9219 66.641 90.0521 66.9795 90.3125C67.3206 90.5729 67.5628 90.9167 67.7061 91.3437ZM74.7344 96.125C74.1927 96.125 73.7174 95.9961 73.3086 95.7383C72.9023 95.4805 72.5846 95.1198 72.3555 94.6562C72.1289 94.1927 72.0156 93.651 72.0156 93.0312C72.0156 92.4062 72.1289 91.8607 72.3555 91.3945C72.5846 90.9284 72.9023 90.5664 73.3086 90.3086C73.7174 90.0508 74.1927 89.9219 74.7344 89.9219C75.276 89.9219 75.75 90.0508 76.1563 90.3086C76.5651 90.5664 76.8828 90.9284 77.1094 91.3945C77.3385 91.8607 77.4531 92.4062 77.4531 93.0312C77.4531 93.651 77.3385 94.1927 77.1094 94.6562C76.8828 95.1198 76.5651 95.4805 76.1563 95.7383C75.75 95.9961 75.276 96.125 74.7344 96.125ZM74.7344 95.2969C75.1458 95.2969 75.4844 95.1914 75.75 94.9805C76.0156 94.7695 76.2122 94.4922 76.3398 94.1484C76.4674 93.8047 76.5313 93.4323 76.5313 93.0312C76.5313 92.6302 76.4674 92.2565 76.3398 91.9102C76.2122 91.5638 76.0156 91.2839 75.75 91.0703C75.4844 90.8568 75.1458 90.75 74.7344 90.75C74.3229 90.75 73.9844 90.8568 73.7188 91.0703C73.4531 91.2839 73.2565 91.5638 73.1289 91.9102C73.0013 92.2565 72.9375 92.6302 72.9375 93.0312C72.9375 93.4323 73.0013 93.8047 73.1289 94.1484C73.2565 94.4922 73.4531 94.7695 73.7188 94.9805C73.9844 95.1914 74.3229 95.2969 74.7344 95.2969ZM79.7822 92.3906V96H78.8604V90H79.751V90.9375H79.8291C79.9697 90.6328 80.1833 90.388 80.4697 90.2031C80.7562 90.0156 81.126 89.9219 81.5791 89.9219C81.9854 89.9219 82.3408 90.0052 82.6455 90.1719C82.9502 90.3359 83.1872 90.5859 83.3564 90.9219C83.5257 91.2552 83.6104 91.6771 83.6104 92.1875V96H82.6885V92.25C82.6885 91.7786 82.5661 91.4115 82.3213 91.1484C82.0765 90.8828 81.7406 90.75 81.3135 90.75C81.0192 90.75 80.7562 90.8138 80.5244 90.9414C80.2952 91.069 80.1143 91.2552 79.9814 91.5C79.8486 91.7448 79.7822 92.0417 79.7822 92.3906ZM88.9824 98.25C88.8262 98.25 88.6868 98.237 88.5645 98.2109C88.4421 98.1875 88.3574 98.1641 88.3105 98.1406L88.5449 97.3281C88.7689 97.3854 88.9668 97.4063 89.1387 97.3906C89.3105 97.375 89.4629 97.2982 89.5957 97.1602C89.7311 97.0247 89.8548 96.8047 89.9668 96.5L90.1387 96.0313L87.9199 90H88.9199L90.5762 94.7812H90.6387L92.2949 90H93.2949L90.748 96.875C90.6335 97.1849 90.4915 97.4414 90.3223 97.6445C90.153 97.8503 89.9564 98.0026 89.7324 98.1016C89.5111 98.2005 89.2611 98.25 88.9824 98.25ZM96.7344 96.125C96.1927 96.125 95.7174 95.9961 95.3086 95.7383C94.9023 95.4805 94.5846 95.1198 94.3555 94.6562C94.1289 94.1927 94.0156 93.651 94.0156 93.0312C94.0156 92.4062 94.1289 91.8607 94.3555 91.3945C94.5846 90.9284 94.9023 90.5664 95.3086 90.3086C95.7174 90.0508 96.1927 89.9219 96.7344 89.9219C97.276 89.9219 97.75 90.0508 98.1563 90.3086C98.5651 90.5664 98.8828 90.9284 99.1094 91.3945C99.3385 91.8607 99.4531 92.4062 99.4531 93.0312C99.4531 93.651 99.3385 94.1927 99.1094 94.6562C98.8828 95.1198 98.5651 95.4805 98.1563 95.7383C97.75 95.9961 97.276 96.125 96.7344 96.125ZM96.7344 95.2969C97.1458 95.2969 97.4844 95.1914 97.75 94.9805C98.0156 94.7695 98.2122 94.4922 98.3398 94.1484C98.4674 93.8047 98.5313 93.4323 98.5313 93.0312C98.5313 92.6302 98.4674 92.2565 98.3398 91.9102C98.2122 91.5638 98.0156 91.2839 97.75 91.0703C97.4844 90.8568 97.1458 90.75 96.7344 90.75C96.3229 90.75 95.9844 90.8568 95.7188 91.0703C95.4531 91.2839 95.2565 91.5638 95.1289 91.9102C95.0013 92.2565 94.9375 92.6302 94.9375 93.0312C94.9375 93.4323 95.0013 93.8047 95.1289 94.1484C95.2565 94.4922 95.4531 94.7695 95.7188 94.9805C95.9844 95.1914 96.3229 95.2969 96.7344 95.2969ZM104.642 93.5469V90H105.563V96H104.642V94.9844H104.579C104.438 95.2891 104.22 95.5482 103.923 95.7617C103.626 95.9727 103.251 96.0781 102.798 96.0781C102.423 96.0781 102.09 95.9961 101.798 95.832C101.506 95.6654 101.277 95.4154 101.11 95.082C100.944 94.7461 100.86 94.3229 100.86 93.8125V90H101.782V93.75C101.782 94.1875 101.905 94.5365 102.149 94.7969C102.397 95.0573 102.712 95.1875 103.095 95.1875C103.324 95.1875 103.557 95.1289 103.794 95.0117C104.034 94.8945 104.234 94.7148 104.396 94.4727C104.56 94.2305 104.642 93.9219 104.642 93.5469ZM107.252 96V90H108.143V90.9062H108.205C108.314 90.6094 108.512 90.3685 108.799 90.1836C109.085 89.9987 109.408 89.9062 109.768 89.9062C109.835 89.9062 109.92 89.9076 110.021 89.9102C110.123 89.9128 110.2 89.9167 110.252 89.9219V90.8594C110.221 90.8516 110.149 90.8398 110.037 90.8242C109.928 90.806 109.812 90.7969 109.689 90.7969C109.398 90.7969 109.137 90.8581 108.908 90.9805C108.682 91.1003 108.502 91.2669 108.369 91.4805C108.239 91.6914 108.174 91.9323 108.174 92.2031V96H107.252ZM117.11 90V90.7812H113.876V90H117.11ZM114.845 96V89.1719C114.845 88.8281 114.925 88.5417 115.087 88.3125C115.248 88.0833 115.458 87.9115 115.716 87.7969C115.974 87.6823 116.246 87.625 116.532 87.625C116.759 87.625 116.944 87.6432 117.087 87.6797C117.23 87.7161 117.337 87.75 117.407 87.7812L117.142 88.5781C117.095 88.5625 117.03 88.543 116.946 88.5195C116.866 88.4961 116.759 88.4844 116.626 88.4844C116.321 88.4844 116.101 88.5612 115.966 88.7148C115.833 88.8685 115.767 89.0937 115.767 89.3906V96H114.845ZM119.324 88V96H118.402V88H119.324ZM121.013 96V90H121.935V96H121.013ZM121.481 89C121.302 89 121.147 88.9388 121.017 88.8164C120.889 88.694 120.825 88.5469 120.825 88.375C120.825 88.2031 120.889 88.056 121.017 87.9336C121.147 87.8112 121.302 87.75 121.481 87.75C121.661 87.75 121.815 87.8112 121.942 87.9336C122.073 88.056 122.138 88.2031 122.138 88.375C122.138 88.5469 122.073 88.694 121.942 88.8164C121.815 88.9388 121.661 89 121.481 89ZM126.045 98.375C125.6 98.375 125.217 98.3177 124.896 98.2031C124.576 98.0911 124.309 97.9427 124.096 97.7578C123.885 97.5755 123.717 97.3802 123.592 97.1719L124.326 96.6563C124.41 96.7656 124.515 96.8906 124.643 97.0312C124.77 97.1745 124.945 97.2982 125.166 97.4023C125.39 97.5091 125.683 97.5625 126.045 97.5625C126.529 97.5625 126.929 97.4453 127.244 97.2109C127.559 96.9766 127.717 96.6094 127.717 96.1094V94.8906H127.639C127.571 95 127.475 95.1354 127.35 95.2969C127.227 95.4557 127.05 95.5977 126.818 95.7227C126.589 95.8451 126.279 95.9062 125.889 95.9062C125.404 95.9062 124.969 95.7917 124.584 95.5625C124.201 95.3333 123.898 95 123.674 94.5625C123.452 94.125 123.342 93.5937 123.342 92.9687C123.342 92.3542 123.45 91.819 123.666 91.3633C123.882 90.9049 124.183 90.5508 124.568 90.3008C124.954 90.0482 125.399 89.9219 125.904 89.9219C126.295 89.9219 126.605 89.987 126.834 90.1172C127.066 90.2448 127.243 90.3906 127.365 90.5547C127.49 90.7161 127.587 90.849 127.654 90.9531H127.748V90H128.639V96.1719C128.639 96.6875 128.521 97.1068 128.287 97.4297C128.055 97.7552 127.743 97.9935 127.35 98.1445C126.959 98.2982 126.524 98.375 126.045 98.375ZM126.014 95.0781C126.383 95.0781 126.696 94.9935 126.951 94.8242C127.206 94.6549 127.4 94.4115 127.533 94.0938C127.666 93.776 127.732 93.3958 127.732 92.9531C127.732 92.5208 127.667 92.1393 127.537 91.8086C127.407 91.4779 127.214 91.2187 126.959 91.0312C126.704 90.8437 126.389 90.75 126.014 90.75C125.623 90.75 125.298 90.849 125.037 91.0469C124.779 91.2448 124.585 91.5104 124.455 91.8438C124.327 92.1771 124.264 92.5469 124.264 92.9531C124.264 93.3698 124.329 93.7383 124.459 94.0586C124.592 94.3763 124.787 94.6263 125.045 94.8086C125.305 94.9883 125.628 95.0781 126.014 95.0781ZM131.248 92.3906V96H130.326V88H131.248V90.9375H131.326C131.467 90.6276 131.678 90.3815 131.959 90.1992C132.243 90.0143 132.62 89.9219 133.092 89.9219C133.501 89.9219 133.859 90.0039 134.166 90.168C134.473 90.3294 134.712 90.5781 134.881 90.9141C135.053 91.2474 135.139 91.6719 135.139 92.1875V96H134.217V92.25C134.217 91.7734 134.093 91.4049 133.846 91.1445C133.601 90.8815 133.261 90.75 132.826 90.75C132.524 90.75 132.253 90.8138 132.014 90.9414C131.777 91.069 131.589 91.2552 131.451 91.5C131.316 91.7448 131.248 92.0417 131.248 92.3906ZM139.435 90V90.7812H136.325V90H139.435ZM137.231 88.5625H138.153V94.2812C138.153 94.5417 138.191 94.737 138.267 94.8672C138.345 94.9948 138.444 95.0807 138.563 95.125C138.686 95.1667 138.815 95.1875 138.95 95.1875C139.052 95.1875 139.135 95.1823 139.2 95.1719C139.265 95.1589 139.317 95.1484 139.356 95.1406L139.544 95.9687C139.481 95.9922 139.394 96.0156 139.282 96.0391C139.17 96.0651 139.028 96.0781 138.856 96.0781C138.596 96.0781 138.341 96.0221 138.091 95.9102C137.843 95.7982 137.638 95.6276 137.474 95.3984C137.312 95.1693 137.231 94.8802 137.231 94.5312V88.5625ZM146.524 90V90.7812H143.415V90H146.524ZM144.321 88.5625H145.243V94.2812C145.243 94.5417 145.281 94.737 145.356 94.8672C145.435 94.9948 145.534 95.0807 145.653 95.125C145.776 95.1667 145.905 95.1875 146.04 95.1875C146.142 95.1875 146.225 95.1823 146.29 95.1719C146.355 95.1589 146.407 95.1484 146.446 95.1406L146.634 95.9687C146.571 95.9922 146.484 96.0156 146.372 96.0391C146.26 96.0651 146.118 96.0781 145.946 96.0781C145.686 96.0781 145.431 96.0221 145.181 95.9102C144.933 95.7982 144.728 95.6276 144.563 95.3984C144.402 95.1693 144.321 94.8802 144.321 94.5312V88.5625ZM147.911 96V90H148.833V96H147.911ZM148.38 89C148.2 89 148.045 88.9388 147.915 88.8164C147.787 88.694 147.724 88.5469 147.724 88.375C147.724 88.2031 147.787 88.056 147.915 87.9336C148.045 87.8112 148.2 87.75 148.38 87.75C148.56 87.75 148.713 87.8112 148.841 87.9336C148.971 88.056 149.036 88.2031 149.036 88.375C149.036 88.5469 148.971 88.694 148.841 88.8164C148.713 88.9388 148.56 89 148.38 89ZM152.959 96.125C152.396 96.125 151.912 95.9922 151.506 95.7266C151.1 95.4609 150.787 95.0951 150.568 94.6289C150.35 94.1628 150.24 93.6302 150.24 93.0312C150.24 92.4219 150.352 91.8841 150.576 91.418C150.803 90.9492 151.118 90.5833 151.521 90.3203C151.928 90.0547 152.402 89.9219 152.943 89.9219C153.365 89.9219 153.745 90 154.084 90.1562C154.423 90.3125 154.7 90.5312 154.916 90.8125C155.132 91.0937 155.266 91.4219 155.318 91.7969H154.396C154.326 91.5234 154.17 91.2812 153.928 91.0703C153.688 90.8568 153.365 90.75 152.959 90.75C152.6 90.75 152.285 90.8437 152.014 91.0312C151.745 91.2161 151.536 91.4779 151.385 91.8164C151.236 92.1523 151.162 92.5469 151.162 93C151.162 93.4635 151.235 93.8672 151.381 94.2109C151.529 94.5547 151.738 94.8216 152.006 95.0117C152.277 95.2018 152.594 95.2969 152.959 95.2969C153.199 95.2969 153.416 95.2552 153.611 95.1719C153.807 95.0885 153.972 94.9688 154.107 94.8125C154.243 94.6562 154.339 94.4687 154.396 94.25H155.318C155.266 94.6042 155.137 94.9232 154.932 95.207C154.729 95.4883 154.459 95.7122 154.123 95.8789C153.79 96.043 153.402 96.125 152.959 96.125ZM157.525 93.8125L157.51 92.6719H157.697L160.322 90H161.463L158.666 92.8281H158.588L157.525 93.8125ZM156.666 96V88H157.588V96H156.666ZM160.479 96L158.135 93.0312L158.791 92.3906L161.65 96H160.479ZM164.918 96.125C164.34 96.125 163.841 95.9974 163.422 95.7422C163.005 95.4844 162.684 95.125 162.457 94.6641C162.233 94.2005 162.121 93.6615 162.121 93.0469C162.121 92.4323 162.233 91.8906 162.457 91.4219C162.684 90.9505 162.999 90.5833 163.402 90.3203C163.809 90.0547 164.283 89.9219 164.824 89.9219C165.137 89.9219 165.445 89.974 165.75 90.0781C166.055 90.1823 166.332 90.3516 166.582 90.5859C166.832 90.8177 167.031 91.125 167.18 91.5078C167.328 91.8906 167.402 92.362 167.402 92.9219V93.3125H162.777V92.5156H166.465C166.465 92.1771 166.397 91.875 166.262 91.6094C166.129 91.3437 165.939 91.1341 165.691 90.9805C165.447 90.8268 165.158 90.75 164.824 90.75C164.457 90.75 164.139 90.8411 163.871 91.0234C163.605 91.2031 163.401 91.4375 163.258 91.7266C163.115 92.0156 163.043 92.3255 163.043 92.6562V93.1875C163.043 93.6406 163.121 94.0247 163.277 94.3398C163.436 94.6523 163.656 94.8906 163.938 95.0547C164.219 95.2161 164.546 95.2969 164.918 95.2969C165.16 95.2969 165.379 95.263 165.574 95.1953C165.772 95.125 165.943 95.0208 166.086 94.8828C166.229 94.7422 166.34 94.5677 166.418 94.3594L167.309 94.6094C167.215 94.9115 167.057 95.1771 166.836 95.4062C166.615 95.6328 166.341 95.8099 166.016 95.9375C165.69 96.0625 165.324 96.125 164.918 96.125ZM171.414 90V90.7812H168.305V90H171.414ZM169.211 88.5625H170.133V94.2812C170.133 94.5417 170.171 94.737 170.246 94.8672C170.324 94.9948 170.423 95.0807 170.543 95.125C170.665 95.1667 170.794 95.1875 170.93 95.1875C171.031 95.1875 171.115 95.1823 171.18 95.1719C171.245 95.1589 171.297 95.1484 171.336 95.1406L171.523 95.9687C171.461 95.9922 171.374 96.0156 171.262 96.0391C171.15 96.0651 171.008 96.0781 170.836 96.0781C170.576 96.0781 170.32 96.0221 170.07 95.9102C169.823 95.7982 169.617 95.6276 169.453 95.3984C169.292 95.1693 169.211 94.8802 169.211 94.5312V88.5625ZM176.943 91.3437L176.115 91.5781C176.063 91.4401 175.986 91.306 175.885 91.1758C175.786 91.043 175.65 90.9336 175.479 90.8477C175.307 90.7617 175.087 90.7187 174.818 90.7187C174.451 90.7187 174.145 90.8034 173.9 90.9727C173.658 91.1393 173.537 91.3516 173.537 91.6094C173.537 91.8385 173.62 92.0195 173.787 92.1523C173.954 92.2852 174.214 92.3958 174.568 92.4844L175.459 92.7031C175.995 92.8333 176.395 93.0326 176.658 93.3008C176.921 93.5664 177.053 93.9089 177.053 94.3281C177.053 94.6719 176.954 94.9792 176.756 95.25C176.561 95.5208 176.287 95.7344 175.936 95.8906C175.584 96.0469 175.175 96.125 174.709 96.125C174.097 96.125 173.59 95.9922 173.189 95.7266C172.788 95.4609 172.535 95.0729 172.428 94.5625L173.303 94.3437C173.386 94.6667 173.544 94.9089 173.775 95.0703C174.01 95.2318 174.316 95.3125 174.693 95.3125C175.123 95.3125 175.464 95.2214 175.717 95.0391C175.972 94.8542 176.1 94.6328 176.1 94.375C176.1 94.1667 176.027 93.9922 175.881 93.8516C175.735 93.7083 175.511 93.6016 175.209 93.5312L174.209 93.2969C173.66 93.1667 173.256 92.9648 172.998 92.6914C172.743 92.4154 172.615 92.0703 172.615 91.6562C172.615 91.3177 172.71 91.0182 172.9 90.7578C173.093 90.4974 173.355 90.293 173.686 90.1445C174.019 89.9961 174.396 89.9219 174.818 89.9219C175.412 89.9219 175.878 90.0521 176.217 90.3125C176.558 90.5729 176.8 90.9167 176.943 91.3437ZM179.112 96.0625C178.92 96.0625 178.754 95.9935 178.616 95.8555C178.478 95.7174 178.409 95.5521 178.409 95.3594C178.409 95.1667 178.478 95.0013 178.616 94.8633C178.754 94.7253 178.92 94.6562 179.112 94.6562C179.305 94.6562 179.47 94.7253 179.608 94.8633C179.746 95.0013 179.815 95.1667 179.815 95.3594C179.815 95.487 179.783 95.6042 179.718 95.7109C179.655 95.8177 179.571 95.9036 179.464 95.9687C179.36 96.0313 179.243 96.0625 179.112 96.0625Z" fill="black"/>
<path d="M64.5188 35.722H66.3884L69.2382 40.6812H69.3554L72.2052 35.722H74.0749L70.1171 42.3484V46.6311H68.4765V42.3484L64.5188 35.722ZM75.6289 46.6311V35.722H82.4684V37.1389H77.2749V40.4628H82.1115V41.8744H77.2749V45.2142H82.5323V46.6311H75.6289ZM90.6169 38.5878C90.5601 38.0835 90.3258 37.6929 89.9138 37.4159C89.5019 37.1354 88.9834 36.9951 88.3584 36.9951C87.911 36.9951 87.5239 37.0661 87.1972 37.2082C86.8705 37.3467 86.6166 37.5384 86.4355 37.7834C86.2579 38.0249 86.1691 38.3001 86.1691 38.6091C86.1691 38.8683 86.2295 39.092 86.3503 39.2803C86.4745 39.4685 86.6361 39.6265 86.835 39.7543C87.0374 39.8786 87.254 39.9834 87.4848 40.0686C87.7157 40.1503 87.9376 40.2178 88.1507 40.271L89.216 40.548C89.564 40.6332 89.9209 40.7486 90.2867 40.8942C90.6525 41.0398 90.9916 41.2316 91.3041 41.4695C91.6166 41.7075 91.8687 42.0022 92.0605 42.3538C92.2558 42.7053 92.3534 43.1261 92.3534 43.6162C92.3534 44.2341 92.1936 44.7827 91.874 45.2621C91.558 45.7415 91.0981 46.1197 90.4944 46.3967C89.8943 46.6737 89.1681 46.8122 88.3158 46.8122C87.499 46.8122 86.7924 46.6826 86.1958 46.4234C85.5992 46.1641 85.1322 45.7966 84.7949 45.3207C84.4575 44.8413 84.2711 44.2731 84.2356 43.6162H85.8868C85.9188 44.0104 86.0466 44.3388 86.2704 44.6016C86.4976 44.8609 86.787 45.0544 87.1386 45.1822C87.4937 45.3065 87.8826 45.3687 88.3052 45.3687C88.7704 45.3687 89.1841 45.2959 89.5463 45.1503C89.912 45.0011 90.1997 44.7952 90.4092 44.5324C90.6187 44.266 90.7235 43.9553 90.7235 43.6002C90.7235 43.2771 90.6311 43.0125 90.4465 42.8065C90.2654 42.6006 90.0186 42.4301 89.7061 42.2952C89.3971 42.1602 89.0473 42.0413 88.6567 41.9383L87.3677 41.5867C86.4941 41.3488 85.8016 40.999 85.2902 40.5374C84.7824 40.0757 84.5285 39.4649 84.5285 38.705C84.5285 38.0764 84.699 37.5278 85.0399 37.059C85.3808 36.5903 85.8424 36.2263 86.4248 35.967C87.0072 35.7043 87.6642 35.5729 88.3957 35.5729C89.1343 35.5729 89.786 35.7025 90.3506 35.9617C90.9188 36.2209 91.3662 36.5778 91.6929 37.0324C92.0196 37.4834 92.1901 38.0018 92.2043 38.5878H90.6169ZM100.27 38.5878C100.213 38.0835 99.9791 37.6929 99.5671 37.4159C99.1552 37.1354 98.6367 36.9951 98.0117 36.9951C97.5643 36.9951 97.1772 37.0661 96.8505 37.2082C96.5238 37.3467 96.2699 37.5384 96.0888 37.7834C95.9112 38.0249 95.8225 38.3001 95.8225 38.6091C95.8225 38.8683 95.8828 39.092 96.0036 39.2803C96.1279 39.4685 96.2894 39.6265 96.4883 39.7543C96.6907 39.8786 96.9073 39.9834 97.1382 40.0686C97.369 40.1503 97.5909 40.2178 97.804 40.271L98.8693 40.548C99.2174 40.6332 99.5742 40.7486 99.94 40.8942C100.306 41.0398 100.645 41.2316 100.957 41.4695C101.27 41.7075 101.522 42.0022 101.714 42.3538C101.909 42.7053 102.007 43.1261 102.007 43.6162C102.007 44.2341 101.847 44.7827 101.527 45.2621C101.211 45.7415 100.751 46.1197 100.148 46.3967C99.5476 46.6737 98.8214 46.8122 97.9691 46.8122C97.1524 46.8122 96.4457 46.6826 95.8491 46.4234C95.2525 46.1641 94.7855 45.7966 94.4482 45.3207C94.1108 44.8413 93.9244 44.2731 93.8889 43.6162H95.5402C95.5721 44.0104 95.7 44.3388 95.9237 44.6016C96.1509 44.8609 96.4404 45.0544 96.7919 45.1822C97.147 45.3065 97.5359 45.3687 97.9585 45.3687C98.4237 45.3687 98.8374 45.2959 99.1996 45.1503C99.5654 45.0011 99.853 44.7952 100.063 44.5324C100.272 44.266 100.377 43.9553 100.377 43.6002C100.377 43.2771 100.284 43.0125 100.1 42.8065C99.9187 42.6006 99.6719 42.4301 99.3594 42.2952C99.0504 42.1602 98.7007 42.0413 98.31 41.9383L97.021 41.5867C96.1474 41.3488 95.4549 40.999 94.9436 40.5374C94.4357 40.0757 94.1818 39.4649 94.1818 38.705C94.1818 38.0764 94.3523 37.5278 94.6932 37.059C95.0341 36.5903 95.4958 36.2263 96.0781 35.967C96.6605 35.7043 97.3175 35.5729 98.049 35.5729C98.7877 35.5729 99.4393 35.7025 100.004 35.9617C100.572 36.2209 101.02 36.5778 101.346 37.0324C101.673 37.4834 101.843 38.0018 101.858 38.5878H100.27ZM109.924 38.5878C109.867 38.0835 109.632 37.6929 109.22 37.4159C108.809 37.1354 108.29 36.9951 107.665 36.9951C107.218 36.9951 106.831 37.0661 106.504 37.2082C106.177 37.3467 105.923 37.5384 105.742 37.7834C105.565 38.0249 105.476 38.3001 105.476 38.6091C105.476 38.8683 105.536 39.092 105.657 39.2803C105.781 39.4685 105.943 39.6265 106.142 39.7543C106.344 39.8786 106.561 39.9834 106.791 40.0686C107.022 40.1503 107.244 40.2178 107.457 40.271L108.523 40.548C108.871 40.6332 109.228 40.7486 109.593 40.8942C109.959 41.0398 110.298 41.2316 110.611 41.4695C110.923 41.7075 111.175 42.0022 111.367 42.3538C111.562 42.7053 111.66 43.1261 111.66 43.6162C111.66 44.2341 111.5 44.7827 111.181 45.2621C110.865 45.7415 110.405 46.1197 109.801 46.3967C109.201 46.6737 108.475 46.8122 107.622 46.8122C106.806 46.8122 106.099 46.6826 105.502 46.4234C104.906 46.1641 104.439 45.7966 104.101 45.3207C103.764 44.8413 103.578 44.2731 103.542 43.6162H105.193C105.225 44.0104 105.353 44.3388 105.577 44.6016C105.804 44.8609 106.094 45.0544 106.445 45.1822C106.8 45.3065 107.189 45.3687 107.612 45.3687C108.077 45.3687 108.491 45.2959 108.853 45.1503C109.219 45.0011 109.506 44.7952 109.716 44.5324C109.925 44.266 110.03 43.9553 110.03 43.6002C110.03 43.2771 109.938 43.0125 109.753 42.8065C109.572 42.6006 109.325 42.4301 109.013 42.2952C108.704 42.1602 108.354 42.0413 107.963 41.9383L106.674 41.5867C105.801 41.3488 105.108 40.999 104.597 40.5374C104.089 40.0757 103.835 39.4649 103.835 38.705C103.835 38.0764 104.006 37.5278 104.347 37.059C104.687 36.5903 105.149 36.2263 105.731 35.967C106.314 35.7043 106.971 35.5729 107.702 35.5729C108.441 35.5729 109.093 35.7025 109.657 35.9617C110.225 36.2209 110.673 36.5778 111 37.0324C111.326 37.4834 111.497 38.0018 111.511 38.5878H109.924ZM113.627 46.6311V35.722H117.622C118.396 35.722 119.037 35.8499 119.545 36.1055C120.053 36.3577 120.433 36.7004 120.685 37.1336C120.937 37.5633 121.063 38.048 121.063 38.5878C121.063 39.0423 120.98 39.4258 120.813 39.7383C120.646 40.0473 120.422 40.2959 120.142 40.4841C119.865 40.6687 119.559 40.8037 119.225 40.8889V40.9954C119.588 41.0132 119.941 41.1304 120.285 41.347C120.633 41.5601 120.921 41.8637 121.148 42.2579C121.376 42.6521 121.489 43.1315 121.489 43.6961C121.489 44.2536 121.358 44.7543 121.095 45.1982C120.836 45.6386 120.435 45.9883 119.891 46.2476C119.348 46.5033 118.654 46.6311 117.808 46.6311H113.627ZM115.273 45.2195H117.649C118.437 45.2195 119.002 45.0668 119.343 44.7614C119.683 44.456 119.854 44.0743 119.854 43.6162C119.854 43.2717 119.767 42.9557 119.593 42.668C119.419 42.3804 119.17 42.1513 118.847 41.9809C118.528 41.8104 118.148 41.7252 117.707 41.7252H115.273V45.2195ZM115.273 40.4415H117.478C117.848 40.4415 118.18 40.3704 118.474 40.2284C118.773 40.0864 119.009 39.8875 119.183 39.6318C119.36 39.3726 119.449 39.0672 119.449 38.7156C119.449 38.2646 119.291 37.8864 118.975 37.581C118.659 37.2756 118.174 37.1229 117.521 37.1229H115.273V40.4415Z" fill="black"/>
<path d="M69.4587 60.6066L67.6306 54.6066H68.5994L69.8962 59.2003H69.9587L71.24 54.6066H72.2244L73.49 59.1847H73.5525L74.8494 54.6066H75.8181L73.99 60.6066H73.0837L71.7712 55.9972H71.6775L70.365 60.6066H69.4587ZM77.0369 60.6066V54.6066H77.9587V60.6066H77.0369ZM77.5056 53.6066C77.3259 53.6066 77.171 53.5454 77.0408 53.423C76.9132 53.3006 76.8494 53.1534 76.8494 52.9816C76.8494 52.8097 76.9132 52.6626 77.0408 52.5402C77.171 52.4178 77.3259 52.3566 77.5056 52.3566C77.6853 52.3566 77.8389 52.4178 77.9666 52.5402C78.0968 52.6626 78.1619 52.8097 78.1619 52.9816C78.1619 53.1534 78.0968 53.3006 77.9666 53.423C77.8389 53.5454 77.6853 53.6066 77.5056 53.6066ZM82.2566 54.6066V55.3878H79.1472V54.6066H82.2566ZM80.0535 53.1691H80.9753V58.8878C80.9753 59.1482 81.0131 59.3435 81.0886 59.4738C81.1667 59.6014 81.2657 59.6873 81.3855 59.7316C81.5079 59.7732 81.6368 59.7941 81.7722 59.7941C81.8738 59.7941 81.9571 59.7889 82.0222 59.7784C82.0873 59.7654 82.1394 59.755 82.1785 59.7472L82.366 60.5753C82.3035 60.5988 82.2162 60.6222 82.1042 60.6456C81.9923 60.6717 81.8503 60.6847 81.6785 60.6847C81.4181 60.6847 81.1628 60.6287 80.9128 60.5167C80.6654 60.4047 80.4597 60.2342 80.2957 60.005C80.1342 59.7758 80.0535 59.4868 80.0535 59.1378V53.1691ZM84.6941 56.9972V60.6066H83.7722V52.6066H84.6941V55.5441H84.7722C84.9128 55.2342 85.1238 54.9881 85.405 54.8058C85.6889 54.6209 86.0665 54.5284 86.5378 54.5284C86.9467 54.5284 87.3048 54.6105 87.6121 54.7745C87.9194 54.936 88.1576 55.1847 88.3269 55.5206C88.4988 55.854 88.5847 56.2784 88.5847 56.7941V60.6066H87.6628V56.8566C87.6628 56.38 87.5391 56.0115 87.2917 55.7511C87.047 55.4881 86.7071 55.3566 86.2722 55.3566C85.9701 55.3566 85.6993 55.4204 85.4597 55.548C85.2227 55.6756 85.0352 55.8618 84.8972 56.1066C84.7618 56.3514 84.6941 56.6482 84.6941 56.9972ZM93.49 60.6066V52.6066H94.4587V56.1691H98.7244V52.6066H99.6931V60.6066H98.7244V57.0284H94.4587V60.6066H93.49ZM104.101 60.6066H101.633V52.6066H104.211C104.987 52.6066 105.651 52.7667 106.203 53.087C106.755 53.4047 107.178 53.8618 107.472 54.4581C107.767 55.0519 107.914 55.7628 107.914 56.5909C107.914 57.4243 107.765 58.1417 107.469 58.7433C107.172 59.3422 106.739 59.8032 106.172 60.1261C105.604 60.4464 104.914 60.6066 104.101 60.6066ZM102.601 59.7472H104.039C104.7 59.7472 105.248 59.6196 105.683 59.3644C106.118 59.1092 106.442 58.7459 106.656 58.2745C106.87 57.8032 106.976 57.242 106.976 56.5909C106.976 55.9451 106.871 55.3891 106.66 54.923C106.449 54.4542 106.134 54.0948 105.715 53.8448C105.295 53.5922 104.773 53.4659 104.148 53.4659H102.601V59.7472ZM109.539 60.6066V52.6066H114.336V53.4659H110.508V56.1691H113.976V57.0284H110.508V60.6066H109.539ZM122.432 55.1066H121.464C121.406 54.8279 121.306 54.5831 121.163 54.3722C121.022 54.1613 120.85 53.9842 120.647 53.8409C120.447 53.6951 120.224 53.5857 119.979 53.5128C119.734 53.4399 119.479 53.4034 119.214 53.4034C118.729 53.4034 118.29 53.5258 117.897 53.7706C117.507 54.0154 117.195 54.3761 116.964 54.8527C116.734 55.3292 116.62 55.9139 116.62 56.6066C116.62 57.2993 116.734 57.8839 116.964 58.3605C117.195 58.837 117.507 59.1977 117.897 59.4425C118.29 59.6873 118.729 59.8097 119.214 59.8097C119.479 59.8097 119.734 59.7732 119.979 59.7003C120.224 59.6274 120.447 59.5193 120.647 59.3761C120.85 59.2303 121.022 59.0519 121.163 58.8409C121.306 58.6274 121.406 58.3826 121.464 58.1066H122.432C122.359 58.5154 122.227 58.8813 122.034 59.2042C121.841 59.5271 121.602 59.8019 121.315 60.0284C121.029 60.2524 120.707 60.423 120.35 60.5402C119.996 60.6573 119.617 60.7159 119.214 60.7159C118.531 60.7159 117.925 60.5493 117.393 60.2159C116.862 59.8826 116.444 59.4087 116.139 58.7941C115.835 58.1795 115.682 57.4503 115.682 56.6066C115.682 55.7628 115.835 55.0337 116.139 54.4191C116.444 53.8045 116.862 53.3305 117.393 52.9972C117.925 52.6639 118.531 52.4972 119.214 52.4972C119.617 52.4972 119.996 52.5558 120.35 52.673C120.707 52.7902 121.029 52.962 121.315 53.1886C121.602 53.4126 121.841 53.686 122.034 54.0089C122.227 54.3292 122.359 54.6951 122.432 55.1066ZM133.529 55.1066H132.56C132.503 54.8279 132.403 54.5831 132.26 54.3722C132.119 54.1613 131.947 53.9842 131.744 53.8409C131.543 53.6951 131.321 53.5857 131.076 53.5128C130.831 53.4399 130.576 53.4034 130.31 53.4034C129.826 53.4034 129.387 53.5258 128.994 53.7706C128.603 54.0154 128.292 54.3761 128.06 54.8527C127.831 55.3292 127.717 55.9139 127.717 56.6066C127.717 57.2993 127.831 57.8839 128.06 58.3605C128.292 58.837 128.603 59.1977 128.994 59.4425C129.387 59.6873 129.826 59.8097 130.31 59.8097C130.576 59.8097 130.831 59.7732 131.076 59.7003C131.321 59.6274 131.543 59.5193 131.744 59.3761C131.947 59.2303 132.119 59.0519 132.26 58.8409C132.403 58.6274 132.503 58.3826 132.56 58.1066H133.529C133.456 58.5154 133.323 58.8813 133.131 59.2042C132.938 59.5271 132.698 59.8019 132.412 60.0284C132.125 60.2524 131.804 60.423 131.447 60.5402C131.093 60.6573 130.714 60.7159 130.31 60.7159C129.628 60.7159 129.021 60.5493 128.49 60.2159C127.959 59.8826 127.541 59.4087 127.236 58.7941C126.931 58.1795 126.779 57.4503 126.779 56.6066C126.779 55.7628 126.931 55.0337 127.236 54.4191C127.541 53.8045 127.959 53.3305 128.49 52.9972C129.021 52.6639 129.628 52.4972 130.31 52.4972C130.714 52.4972 131.093 52.5558 131.447 52.673C131.804 52.7902 132.125 52.962 132.412 53.1886C132.698 53.4126 132.938 53.686 133.131 54.0089C133.323 54.3292 133.456 54.6951 133.529 55.1066ZM134.969 60.6066V54.6066H135.86V55.5128H135.923C136.032 55.2159 136.23 54.9751 136.516 54.7902C136.803 54.6053 137.126 54.5128 137.485 54.5128C137.553 54.5128 137.637 54.5141 137.739 54.5167C137.841 54.5193 137.917 54.5232 137.969 54.5284V55.4659C137.938 55.4581 137.867 55.4464 137.755 55.4308C137.645 55.4126 137.529 55.4034 137.407 55.4034C137.115 55.4034 136.855 55.4646 136.626 55.587C136.399 55.7068 136.219 55.8735 136.087 56.087C135.956 56.298 135.891 56.5389 135.891 56.8097V60.6066H134.969ZM141.395 60.7316C140.817 60.7316 140.318 60.604 139.899 60.3488C139.483 60.0909 139.161 59.7316 138.934 59.2706C138.71 58.8071 138.598 58.268 138.598 57.6534C138.598 57.0389 138.71 56.4972 138.934 56.0284C139.161 55.5571 139.476 55.1899 139.88 54.9269C140.286 54.6613 140.76 54.5284 141.302 54.5284C141.614 54.5284 141.923 54.5805 142.227 54.6847C142.532 54.7889 142.809 54.9581 143.059 55.1925C143.309 55.4243 143.509 55.7316 143.657 56.1144C143.805 56.4972 143.88 56.9685 143.88 57.5284V57.9191H139.255V57.1222H142.942C142.942 56.7837 142.874 56.4816 142.739 56.2159C142.606 55.9503 142.416 55.7407 142.169 55.587C141.924 55.4334 141.635 55.3566 141.302 55.3566C140.934 55.3566 140.617 55.4477 140.348 55.63C140.083 55.8097 139.878 56.0441 139.735 56.3331C139.592 56.6222 139.52 56.9321 139.52 57.2628V57.7941C139.52 58.2472 139.598 58.6313 139.755 58.9464C139.913 59.2589 140.134 59.4972 140.415 59.6613C140.696 59.8227 141.023 59.9034 141.395 59.9034C141.637 59.9034 141.856 59.8696 142.052 59.8019C142.249 59.7316 142.42 59.6274 142.563 59.4894C142.706 59.3488 142.817 59.1743 142.895 58.9659L143.786 59.2159C143.692 59.518 143.535 59.7837 143.313 60.0128C143.092 60.2394 142.818 60.4165 142.493 60.5441C142.167 60.6691 141.802 60.7316 141.395 60.7316ZM147.548 60.7316C147.048 60.7316 146.606 60.6053 146.223 60.3527C145.841 60.0975 145.541 59.7381 145.325 59.2745C145.109 58.8084 145.001 58.2576 145.001 57.6222C145.001 56.992 145.109 56.4451 145.325 55.9816C145.541 55.518 145.842 55.16 146.227 54.9073C146.613 54.6547 147.058 54.5284 147.563 54.5284C147.954 54.5284 148.262 54.5935 148.489 54.7238C148.718 54.8514 148.893 54.9972 149.012 55.1613C149.135 55.3227 149.23 55.4555 149.298 55.5597H149.376V52.6066H150.298V60.6066H149.407V59.6847H149.298C149.23 59.7941 149.134 59.9321 149.009 60.0988C148.884 60.2628 148.705 60.41 148.473 60.5402C148.242 60.6678 147.933 60.7316 147.548 60.7316ZM147.673 59.9034C148.042 59.9034 148.355 59.8071 148.61 59.6144C148.865 59.4191 149.059 59.1495 149.192 58.8058C149.325 58.4594 149.391 58.0597 149.391 57.6066C149.391 57.1587 149.326 56.7667 149.196 56.4308C149.066 56.0922 148.873 55.8292 148.618 55.6417C148.363 55.4516 148.048 55.3566 147.673 55.3566C147.282 55.3566 146.956 55.4568 146.696 55.6573C146.438 55.8553 146.244 56.1248 146.114 56.4659C145.986 56.8045 145.923 57.1847 145.923 57.6066C145.923 58.0337 145.988 58.4217 146.118 58.7706C146.251 59.117 146.446 59.393 146.704 59.5988C146.964 59.8019 147.287 59.9034 147.673 59.9034ZM152.114 60.6066V54.6066H153.036V60.6066H152.114ZM152.583 53.6066C152.403 53.6066 152.248 53.5454 152.118 53.423C151.99 53.3006 151.927 53.1534 151.927 52.9816C151.927 52.8097 151.99 52.6626 152.118 52.5402C152.248 52.4178 152.403 52.3566 152.583 52.3566C152.762 52.3566 152.916 52.4178 153.044 52.5402C153.174 52.6626 153.239 52.8097 153.239 52.9816C153.239 53.1534 153.174 53.3006 153.044 53.423C152.916 53.5454 152.762 53.6066 152.583 53.6066ZM157.334 54.6066V55.3878H154.224V54.6066H157.334ZM155.131 53.1691H156.052V58.8878C156.052 59.1482 156.09 59.3435 156.166 59.4738C156.244 59.6014 156.343 59.6873 156.463 59.7316C156.585 59.7732 156.714 59.7941 156.849 59.7941C156.951 59.7941 157.034 59.7889 157.099 59.7784C157.164 59.7654 157.217 59.755 157.256 59.7472L157.443 60.5753C157.381 60.5988 157.293 60.6222 157.181 60.6456C157.069 60.6717 156.927 60.6847 156.756 60.6847C156.495 60.6847 156.24 60.6287 155.99 60.5167C155.743 60.4047 155.537 60.2342 155.373 60.005C155.211 59.7758 155.131 59.4868 155.131 59.1378V53.1691ZM168.377 55.1066H167.408C167.351 54.8279 167.25 54.5831 167.107 54.3722C166.967 54.1613 166.795 53.9842 166.592 53.8409C166.391 53.6951 166.168 53.5857 165.924 53.5128C165.679 53.4399 165.424 53.4034 165.158 53.4034C164.674 53.4034 164.235 53.5258 163.842 53.7706C163.451 54.0154 163.14 54.3761 162.908 54.8527C162.679 55.3292 162.564 55.9139 162.564 56.6066C162.564 57.2993 162.679 57.8839 162.908 58.3605C163.14 58.837 163.451 59.1977 163.842 59.4425C164.235 59.6873 164.674 59.8097 165.158 59.8097C165.424 59.8097 165.679 59.7732 165.924 59.7003C166.168 59.6274 166.391 59.5193 166.592 59.3761C166.795 59.2303 166.967 59.0519 167.107 58.8409C167.25 58.6274 167.351 58.3826 167.408 58.1066H168.377C168.304 58.5154 168.171 58.8813 167.978 59.2042C167.786 59.5271 167.546 59.8019 167.26 60.0284C166.973 60.2524 166.651 60.423 166.295 60.5402C165.941 60.6573 165.562 60.7159 165.158 60.7159C164.476 60.7159 163.869 60.5493 163.338 60.2159C162.806 59.8826 162.388 59.4087 162.084 58.7941C161.779 58.1795 161.627 57.4503 161.627 56.6066C161.627 55.7628 161.779 55.0337 162.084 54.4191C162.388 53.8045 162.806 53.3305 163.338 52.9972C163.869 52.6639 164.476 52.4972 165.158 52.4972C165.562 52.4972 165.941 52.5558 166.295 52.673C166.651 52.7902 166.973 52.962 167.26 53.1886C167.546 53.4126 167.786 53.686 167.978 54.0089C168.171 54.3292 168.304 54.6951 168.377 55.1066ZM171.583 60.7472C171.203 60.7472 170.858 60.6756 170.548 60.5323C170.238 60.3865 169.992 60.1769 169.809 59.9034C169.627 59.6274 169.536 59.2941 169.536 58.9034C169.536 58.5597 169.604 58.281 169.739 58.0675C169.874 57.8514 170.055 57.6821 170.282 57.5597C170.509 57.4373 170.759 57.3462 171.032 57.2863C171.308 57.2238 171.585 57.1743 171.864 57.1378C172.229 57.0909 172.524 57.0558 172.751 57.0323C172.98 57.0063 173.147 56.9633 173.251 56.9034C173.358 56.8435 173.411 56.7394 173.411 56.5909V56.5597C173.411 56.1743 173.305 55.8748 173.094 55.6613C172.886 55.4477 172.57 55.3409 172.145 55.3409C171.705 55.3409 171.36 55.4373 171.11 55.63C170.86 55.8227 170.684 56.0284 170.583 56.2472L169.708 55.9347C169.864 55.5701 170.072 55.2863 170.333 55.0831C170.596 54.8774 170.882 54.7342 171.192 54.6534C171.505 54.5701 171.812 54.5284 172.114 54.5284C172.307 54.5284 172.528 54.5519 172.778 54.5988C173.031 54.643 173.274 54.7355 173.509 54.8761C173.746 55.0167 173.942 55.229 174.098 55.5128C174.255 55.7967 174.333 56.1769 174.333 56.6534V60.6066H173.411V59.7941H173.364C173.302 59.9243 173.197 60.0636 173.052 60.212C172.906 60.3605 172.712 60.4868 172.469 60.5909C172.227 60.6951 171.932 60.7472 171.583 60.7472ZM171.723 59.9191C172.088 59.9191 172.395 59.8475 172.645 59.7042C172.898 59.561 173.088 59.3761 173.216 59.1495C173.346 58.923 173.411 58.6847 173.411 58.4347V57.5909C173.372 57.6378 173.286 57.6808 173.153 57.7198C173.023 57.7563 172.872 57.7889 172.7 57.8175C172.531 57.8435 172.365 57.867 172.204 57.8878C172.045 57.906 171.916 57.9217 171.817 57.9347C171.578 57.9659 171.354 58.0167 171.145 58.087C170.94 58.1547 170.773 58.2576 170.645 58.3956C170.52 58.531 170.458 58.7159 170.458 58.9503C170.458 59.2706 170.576 59.5128 170.813 59.6769C171.053 59.8383 171.356 59.9191 171.723 59.9191ZM176.015 60.6066V54.6066H176.906V55.5128H176.969C177.078 55.2159 177.276 54.9751 177.562 54.7902C177.849 54.6053 178.172 54.5128 178.531 54.5128C178.599 54.5128 178.683 54.5141 178.785 54.5167C178.886 54.5193 178.963 54.5232 179.015 54.5284V55.4659C178.984 55.4581 178.913 55.4464 178.801 55.4308C178.691 55.4126 178.575 55.4034 178.453 55.4034C178.161 55.4034 177.901 55.4646 177.672 55.587C177.445 55.7068 177.265 55.8735 177.133 56.087C177.002 56.298 176.937 56.5389 176.937 56.8097V60.6066H176.015ZM182.191 60.7316C181.691 60.7316 181.25 60.6053 180.867 60.3527C180.484 60.0975 180.185 59.7381 179.969 59.2745C179.752 58.8084 179.644 58.2576 179.644 57.6222C179.644 56.992 179.752 56.4451 179.969 55.9816C180.185 55.518 180.485 55.16 180.871 54.9073C181.256 54.6547 181.702 54.5284 182.207 54.5284C182.597 54.5284 182.906 54.5935 183.133 54.7238C183.362 54.8514 183.536 54.9972 183.656 55.1613C183.778 55.3227 183.873 55.4555 183.941 55.5597H184.019V52.6066H184.941V60.6066H184.051V59.6847H183.941C183.873 59.7941 183.777 59.9321 183.652 60.0988C183.527 60.2628 183.349 60.41 183.117 60.5402C182.885 60.6678 182.577 60.7316 182.191 60.7316ZM182.316 59.9034C182.686 59.9034 182.998 59.8071 183.254 59.6144C183.509 59.4191 183.703 59.1495 183.836 58.8058C183.969 58.4594 184.035 58.0597 184.035 57.6066C184.035 57.1587 183.97 56.7667 183.84 56.4308C183.709 56.0922 183.517 55.8292 183.261 55.6417C183.006 55.4516 182.691 55.3566 182.316 55.3566C181.926 55.3566 181.6 55.4568 181.34 55.6573C181.082 55.8553 180.888 56.1248 180.758 56.4659C180.63 56.8045 180.566 57.1847 180.566 57.6066C180.566 58.0337 180.631 58.4217 180.761 58.7706C180.894 59.117 181.09 59.393 181.347 59.5988C181.608 59.8019 181.931 59.9034 182.316 59.9034ZM191.008 55.9503L190.179 56.1847C190.127 56.0467 190.051 55.9126 189.949 55.7823C189.85 55.6495 189.715 55.5402 189.543 55.4542C189.371 55.3683 189.151 55.3253 188.883 55.3253C188.515 55.3253 188.209 55.41 187.965 55.5792C187.722 55.7459 187.601 55.9581 187.601 56.2159C187.601 56.4451 187.685 56.6261 187.851 56.7589C188.018 56.8917 188.278 57.0024 188.633 57.0909L189.523 57.3097C190.06 57.4399 190.459 57.6391 190.722 57.9073C190.985 58.173 191.117 58.5154 191.117 58.9347C191.117 59.2784 191.018 59.5857 190.82 59.8566C190.625 60.1274 190.351 60.3409 190 60.4972C189.648 60.6534 189.239 60.7316 188.773 60.7316C188.161 60.7316 187.655 60.5988 187.254 60.3331C186.853 60.0675 186.599 59.6795 186.492 59.1691L187.367 58.9503C187.45 59.2732 187.608 59.5154 187.84 59.6769C188.074 59.8383 188.38 59.9191 188.758 59.9191C189.187 59.9191 189.528 59.8279 189.781 59.6456C190.036 59.4607 190.164 59.2394 190.164 58.9816C190.164 58.7732 190.091 58.5988 189.945 58.4581C189.799 58.3149 189.575 58.2081 189.273 58.1378L188.273 57.9034C187.724 57.7732 187.32 57.5714 187.062 57.298C186.807 57.0219 186.679 56.6769 186.679 56.2628C186.679 55.9243 186.774 55.6248 186.965 55.3644C187.157 55.104 187.419 54.8995 187.75 54.7511C188.083 54.6027 188.461 54.5284 188.883 54.5284C189.476 54.5284 189.942 54.6587 190.281 54.9191C190.622 55.1795 190.864 55.5232 191.008 55.9503Z" fill="black"/>
<mask id="mask0_1907_3443" style="mask-type:luminance" maskUnits="userSpaceOnUse" x="18" y="42" width="37" height="15">
<path d="M54.0546 42.7634H18.1567V56.1653H54.0546V42.7634Z" fill="white"/>
</mask>
<g mask="url(#mask0_1907_3443)">
<path d="M44.3594 47.6715C44.4366 47.6971 44.4911 47.759 44.5451 47.8166C45.3073 48.6187 46.0747 49.4155 46.8352 50.2188C46.8369 49.415 46.8333 48.6111 46.8369 47.8073C47.0431 47.8068 47.2487 47.8104 47.455 47.8037C47.4745 47.8761 47.4829 47.9502 47.4807 48.0253C47.4767 49.2477 47.4822 50.4702 47.4781 51.6927C47.4628 51.6999 47.4324 51.7138 47.4174 51.7209C46.5981 50.8878 45.8051 50.0285 44.9875 49.1942C44.9796 49.9956 44.9966 50.7979 44.9791 51.5997C44.7714 51.5904 44.5637 51.595 44.3563 51.5961C44.357 50.2876 44.3513 48.9793 44.3594 47.6715Z" fill="white"/>
<path d="M28.026 47.7698C28.5059 47.5948 29.0222 47.7203 29.4897 47.8711C29.4954 48.1689 29.4923 48.466 29.4923 48.7638C29.2053 48.5891 28.8947 48.4141 28.5506 48.4043C28.3768 48.3931 28.1634 48.4995 28.1603 48.6945C28.1484 48.8369 28.2621 48.9459 28.3701 49.019C28.7867 49.2798 29.2711 49.4633 29.5915 49.8522C29.9814 50.3859 29.7746 51.2391 29.1853 51.5395C28.6416 51.828 27.9942 51.7102 27.4336 51.5359C27.4012 51.2006 27.3801 50.8648 27.3667 50.5284C27.6912 50.731 28.0507 50.9203 28.4436 50.9136C28.6108 50.9023 28.8078 50.8514 28.8901 50.6894C28.9759 50.5439 28.9106 50.3515 28.7826 50.2537C28.4154 49.9602 27.9401 49.8171 27.6172 49.4664C27.4079 49.2478 27.3019 48.9378 27.3312 48.6369C27.3528 48.2382 27.6532 47.8921 28.026 47.7698Z" fill="white"/>
<path d="M41.6863 48.1082C41.7618 47.9586 41.8154 47.797 41.9167 47.6617C42.5261 48.967 43.1134 50.2826 43.7106 51.594C43.4826 51.5957 43.2544 51.5919 43.0266 51.5976C42.9195 51.3749 42.8208 51.1487 42.7226 50.9224C42.1528 50.9193 41.5828 50.9213 41.013 50.9213C40.9122 51.1471 40.8135 51.3739 40.704 51.5961C40.4822 51.593 40.2611 51.595 40.04 51.594C40.5943 50.4353 41.1354 49.2695 41.6863 48.1082ZM41.839 49.057C41.6447 49.4947 41.46 49.937 41.2584 50.3711C41.6662 50.3895 42.0756 50.3751 42.4839 50.3777C42.2881 49.9148 42.0843 49.455 41.8889 48.9918C41.8765 49.0081 41.8514 49.0405 41.839 49.057Z" fill="white"/>
<path d="M20.1489 47.8078C20.5033 47.8057 20.8571 47.8114 21.2109 47.8047C21.4871 48.1997 21.7366 48.6121 22.0091 49.0097C22.294 48.606 22.5815 48.2033 22.8762 47.8068C23.1879 47.8099 23.4996 47.8052 23.8112 47.8093C23.3391 48.4717 22.8305 49.1099 22.3702 49.7791C22.3619 50.3835 22.3681 50.9887 22.3676 51.5935C22.0719 51.5955 21.7762 51.5945 21.4804 51.594C21.4758 50.9939 21.4902 50.3921 21.4738 49.7924C21.0407 49.1259 20.5804 48.4763 20.1489 47.8078Z" fill="white"/>
<path d="M24.199 51.595C24.201 50.3325 24.1964 49.0694 24.2016 47.8068C24.9694 47.8087 25.7372 47.8073 26.5051 47.8077C26.5071 48.0654 26.5025 48.3235 26.5087 48.5812C26.0288 48.6003 25.5459 48.5642 25.0651 48.5977C25.0661 48.825 25.0645 49.0524 25.0671 49.2792C25.4786 49.2776 25.8905 49.274 26.3019 49.2817C26.2968 49.5374 26.3004 49.7934 26.2999 50.05C25.8879 50.0496 25.4765 50.0501 25.0651 50.0491C25.0666 50.2979 25.0656 50.5474 25.0656 50.7964C25.5511 50.7969 26.0366 50.7922 26.5221 50.7979C26.5231 51.0637 26.5251 51.3296 26.521 51.5961C25.747 51.5935 24.973 51.5945 24.199 51.595Z" fill="white"/>
<path d="M37.1615 47.8072C37.6403 47.818 38.1207 47.7831 38.5975 47.834C38.906 47.8699 39.2418 47.9929 39.4034 48.2773C39.5757 48.5916 39.5781 49.023 39.341 49.3058C39.2377 49.4339 39.0845 49.5023 38.9409 49.5749C39.2167 49.6504 39.4619 49.8505 39.5504 50.1277C39.6548 50.4687 39.6261 50.8729 39.406 51.1635C39.1611 51.4762 38.744 51.5646 38.3685 51.5889C37.9653 51.6002 37.5626 51.5918 37.1599 51.5949C37.163 50.3325 37.1589 49.0699 37.1615 47.8072ZM37.7911 48.3139C37.793 48.6698 37.792 49.0261 37.792 49.3825C38.0738 49.3748 38.3855 49.4257 38.6386 49.2699C38.9395 49.1012 38.9749 48.5756 38.6565 48.4074C38.3896 48.2733 38.0791 48.322 37.7911 48.3139ZM37.7916 49.888C37.793 50.2809 37.792 50.6745 37.7925 51.0674C38.08 51.0571 38.3876 51.1095 38.6582 50.9855C39.0191 50.8205 39.0676 50.2445 38.7492 50.0156C38.4689 49.8218 38.1099 49.9056 37.7916 49.888Z" fill="white"/>
<path d="M48.6724 51.5957C48.6739 50.3325 48.6631 49.0688 48.6775 47.8057C48.8894 47.8088 49.1012 47.8078 49.3132 47.8068C49.322 48.3725 49.3132 48.9382 49.3163 49.504C49.8496 48.9382 50.3813 48.3715 50.9173 47.8083C51.1688 47.8068 51.4207 47.8078 51.6728 47.8073C51.1071 48.4172 50.5336 49.0205 49.9633 49.6268C50.5948 50.28 51.2192 50.9404 51.8518 51.5919C51.5704 51.5976 51.2897 51.5926 51.0084 51.5961C50.4463 51.0042 49.882 50.4143 49.3173 49.8254C49.3142 50.4148 49.3183 51.0042 49.3158 51.594C49.1012 51.5957 48.8868 51.5935 48.6724 51.5957Z" fill="white"/>
<path d="M37.2991 43.8168C37.4833 43.5751 37.6525 43.3211 37.85 43.0891C35.9224 46.4959 34.0087 49.9112 32.0852 53.3205C31.6059 54.1804 31.1148 55.0342 30.6406 55.8967C30.5989 55.8745 30.5614 55.8468 30.5285 55.8133C29.8517 55.1236 29.1713 54.4381 28.4934 53.7493C28.9748 53.7443 29.4556 53.7489 29.937 53.7469C32.3913 50.4373 34.8455 47.1273 37.2991 43.8168Z" fill="#C4261B"/>
<path d="M18.276 45.9088C24.0283 45.9006 29.7802 45.9093 35.5327 45.9047C33.6195 48.4315 31.7196 50.9685 29.7977 53.4885C25.9585 53.4854 22.1193 53.4864 18.2801 53.49C18.2713 50.9627 18.2796 48.436 18.276 45.9088ZM28.026 47.7695C27.6531 47.8919 27.3528 48.2379 27.3312 48.6366C27.3018 48.9375 27.4078 49.2476 27.6171 49.4661C27.9401 49.817 28.4153 49.9599 28.7825 50.2536C28.9106 50.3512 28.9759 50.5436 28.89 50.6891C28.8077 50.8511 28.6107 50.902 28.4436 50.9133C28.0506 50.92 27.6912 50.7309 27.3666 50.5282C27.38 50.8645 27.4011 51.2003 27.4335 51.5356C27.9941 51.7101 28.6416 51.8277 29.1852 51.5392C29.7746 51.239 29.9813 50.3858 29.5915 49.8519C29.2711 49.463 28.7866 49.2795 28.37 49.0187C28.262 48.9456 28.1484 48.8366 28.1602 48.6942C28.1633 48.4993 28.3767 48.3928 28.5506 48.4042C28.8946 48.4138 29.2053 48.5888 29.4922 48.7637C29.4922 48.4659 29.4953 48.1686 29.4896 47.8708C29.0222 47.7202 28.5058 47.5946 28.026 47.7695ZM20.149 47.8075C20.5805 48.4762 21.0408 49.1258 21.4738 49.7922C21.4903 50.3918 21.4759 50.9936 21.4805 51.5937C21.7762 51.5944 22.072 51.5954 22.3677 51.5932C22.3682 50.9885 22.362 50.3832 22.3703 49.7788C22.8306 49.1098 23.3392 48.4714 23.8113 47.8091C23.4997 47.805 23.188 47.8096 22.8763 47.8065C22.5816 48.203 22.2941 48.6057 22.0092 49.0094C21.7366 48.6119 21.4872 48.1994 21.211 47.8044C20.8572 47.8111 20.5034 47.8055 20.149 47.8075ZM24.1991 51.5949C24.9731 51.5944 25.7471 51.5932 26.5211 51.5959C26.5253 51.3294 26.5232 51.0636 26.5222 50.7976C26.0367 50.7921 25.5512 50.7966 25.0657 50.7961C25.0657 50.5471 25.0667 50.2978 25.0652 50.0488C25.4766 50.0498 25.8881 50.0493 26.3 50.0498C26.3005 49.7933 26.2969 49.5371 26.302 49.2816C25.8906 49.2738 25.4787 49.2773 25.0672 49.279C25.0647 49.0522 25.0662 48.8249 25.0652 48.5976C25.546 48.5641 26.029 48.6 26.5088 48.5811C26.5026 48.3234 26.5073 48.0651 26.5052 47.8075C25.7374 47.807 24.9695 47.8086 24.2017 47.8065C24.1965 49.0691 24.2011 50.3323 24.1991 51.5949Z" fill="#005192"/>
<path d="M35.2189 48.1101C35.634 47.3773 36.0212 46.628 36.4486 45.9033C42.257 45.9069 48.0661 45.9095 53.8745 45.9017C53.893 48.4305 53.8796 50.9604 53.8812 53.4897C46.6728 53.485 39.465 53.4887 32.2566 53.4881C33.2374 51.6917 34.2335 49.904 35.2189 48.1101ZM44.3595 47.6715C44.3513 48.9793 44.3569 50.2876 44.3564 51.5961C44.5636 51.5949 44.7715 51.5904 44.9792 51.5997C44.9967 50.7978 44.9797 49.9955 44.9875 49.1942C45.8052 50.0285 46.5982 50.8879 47.4175 51.7211C47.4325 51.7137 47.4628 51.6999 47.4782 51.6927C47.4823 50.4702 47.4767 49.2477 47.4808 48.0252C47.4828 47.9502 47.4746 47.8761 47.455 47.8036C47.2488 47.8103 47.0432 47.8067 46.8369 47.8072C46.8333 48.611 46.8369 49.415 46.8353 50.2187C46.0747 49.4154 45.3073 48.6188 44.5452 47.8165C44.4912 47.7589 44.4367 47.6971 44.3595 47.6715ZM41.6862 48.1081C41.1354 49.2694 40.5943 50.4353 40.04 51.594C40.2611 51.5949 40.4822 51.593 40.7039 51.5961C40.8134 51.3738 40.9121 51.147 41.013 50.9212C41.5828 50.9212 42.1527 50.9192 42.7225 50.9223C42.8208 51.1487 42.9195 51.3748 43.0265 51.5975C43.2543 51.5918 43.4826 51.5956 43.7105 51.594C43.1133 50.2825 42.5261 48.9669 41.9166 47.6617C41.8153 47.7969 41.7618 47.9585 41.6862 48.1081ZM37.1615 47.8072C37.1589 49.0698 37.1629 50.3325 37.1598 51.5949C37.5626 51.5918 37.9653 51.6002 38.3685 51.5889C38.7439 51.5646 39.161 51.4761 39.4057 51.1635C39.6259 50.8729 39.6547 50.4687 39.5503 50.1277C39.4619 49.8505 39.2166 49.6504 38.9409 49.5749C39.0845 49.5023 39.2377 49.4339 39.341 49.3058C39.578 49.023 39.5756 48.5914 39.4033 48.2773C39.2418 47.9929 38.9059 47.8699 38.5974 47.834C38.1206 47.7831 37.6402 47.818 37.1615 47.8072ZM48.6724 51.5956C48.8868 51.5935 49.1013 51.5956 49.3158 51.594C49.3183 51.0041 49.3142 50.4147 49.3173 49.8253C49.882 50.4142 50.4463 51.0041 51.0082 51.5961C51.2897 51.5925 51.5704 51.5975 51.8518 51.5918C51.2192 50.9403 50.5948 50.2799 49.9633 49.6268C50.5336 49.0204 51.1071 48.4172 51.6728 47.8072C51.4207 47.8077 51.1688 47.8067 50.9174 47.8082C50.3813 48.3713 49.8496 48.9382 49.3163 49.5039C49.3132 48.9382 49.322 48.3725 49.3132 47.8067C49.1013 47.8077 48.8895 47.8087 48.6775 47.8056C48.6631 49.0687 48.6739 50.3325 48.6724 51.5956Z" fill="#005192"/>
<path d="M37.791 48.3138C38.079 48.3221 38.3895 48.2731 38.6565 48.4074C38.9748 48.5757 38.9394 49.1012 38.6385 49.27C38.3855 49.4258 38.0738 49.3749 37.792 49.3826C37.792 49.0262 37.793 48.6697 37.791 48.3138Z" fill="#005192"/>
<path d="M41.8389 49.057C41.8513 49.0405 41.8764 49.0082 41.8888 48.9917C42.0841 49.4551 42.2879 49.9148 42.4837 50.3777C42.0755 50.3751 41.6661 50.3894 41.2583 50.371C41.4598 49.937 41.6445 49.4946 41.8389 49.057Z" fill="#005192"/>
<path d="M37.7915 49.888C38.1099 49.9055 38.4688 49.8218 38.749 50.0156C39.0673 50.2445 39.019 50.8205 38.6581 50.9855C38.3876 51.1095 38.08 51.057 37.7925 51.0674C37.792 50.6745 37.793 50.2809 37.7915 49.888Z" fill="#005192"/>
</g>
<path d="M18.7431 22.4016V12.2198H25.4846V13.9947H20.8958V16.4208H25.0371V18.1956H20.8958V22.4016H18.7431ZM29.0107 12.2198V22.4016H26.8928V12.2198H29.0107ZM32.8848 22.5458C32.3976 22.5458 31.9634 22.4613 31.5822 22.2922C31.2011 22.1199 30.8995 21.8663 30.6774 21.5316C30.4587 21.1935 30.3493 20.7726 30.3493 20.2688C30.3493 19.8446 30.4272 19.4883 30.5829 19.1999C30.7387 18.9116 30.9508 18.6795 31.2193 18.5039C31.4878 18.3282 31.7927 18.1956 32.1341 18.1062C32.4788 18.0167 32.84 17.9537 33.2179 17.9172C33.662 17.8708 34.02 17.8277 34.2917 17.788C34.5635 17.7449 34.7607 17.6819 34.8834 17.5991C35.006 17.5162 35.0673 17.3936 35.0673 17.2312V17.2013C35.0673 16.8865 34.9679 16.6429 34.769 16.4705C34.5735 16.2982 34.2951 16.212 33.9338 16.212C33.5526 16.212 33.2494 16.2965 33.024 16.4655C32.7986 16.6313 32.6495 16.8401 32.5765 17.092L30.6177 16.9329C30.7172 16.4688 30.9127 16.0678 31.2044 15.7297C31.4961 15.3884 31.8722 15.1265 32.3329 14.9442C32.797 14.7586 33.3339 14.6658 33.9437 14.6658C34.368 14.6658 34.774 14.7155 35.1618 14.815C35.5529 14.9144 35.8992 15.0685 36.2008 15.2773C36.5058 15.4861 36.7461 15.7546 36.9217 16.0827C37.0974 16.4075 37.1852 16.797 37.1852 17.251V22.4016H35.1767V21.3427H35.117C34.9944 21.5813 34.8303 21.7918 34.6248 21.9741C34.4194 22.153 34.1724 22.2939 33.8841 22.3966C33.5957 22.4961 33.2626 22.5458 32.8848 22.5458ZM33.4913 21.0841C33.8029 21.0841 34.078 21.0228 34.3166 20.9002C34.5552 20.7742 34.7425 20.6052 34.8784 20.3931C35.0143 20.181 35.0822 19.9407 35.0822 19.6722V18.8618C35.0159 18.9049 34.9248 18.9447 34.8088 18.9812C34.6961 19.0143 34.5685 19.0458 34.426 19.0756C34.2835 19.1021 34.1409 19.127 33.9984 19.1502C33.8559 19.1701 33.7266 19.1883 33.6106 19.2049C33.3621 19.2413 33.145 19.2993 32.9594 19.3789C32.7738 19.4584 32.6296 19.5661 32.5268 19.702C32.4241 19.8346 32.3727 20.0003 32.3727 20.1992C32.3727 20.4875 32.4771 20.708 32.6859 20.8604C32.898 21.0096 33.1665 21.0841 33.4913 21.0841ZM42.8901 14.7652V16.3562H38.2914V14.7652H42.8901ZM39.3354 12.9357H41.4533V20.055C41.4533 20.2506 41.4832 20.403 41.5428 20.5124C41.6025 20.6185 41.6853 20.693 41.7914 20.7361C41.9008 20.7792 42.0267 20.8008 42.1692 20.8008C42.2687 20.8008 42.3681 20.7925 42.4675 20.7759C42.567 20.756 42.6432 20.7411 42.6962 20.7312L43.0293 22.3072C42.9233 22.3403 42.7741 22.3784 42.5819 22.4215C42.3896 22.4679 42.156 22.4961 41.8809 22.506C41.3705 22.5259 40.923 22.458 40.5386 22.3022C40.1574 22.1464 39.8608 21.9045 39.6486 21.5763C39.4365 21.2482 39.3321 20.8339 39.3354 20.3334V12.9357ZM51.2088 22.5408C50.5062 22.5408 49.8798 22.4116 49.3296 22.153C48.7827 21.8945 48.3485 21.5382 48.027 21.0841C47.7055 20.6301 47.5381 20.1097 47.5249 19.5231H49.6129C49.6361 19.9175 49.8019 20.2373 50.1101 20.4826C50.4183 20.7278 50.7846 20.8505 51.2088 20.8505C51.5469 20.8505 51.8452 20.7759 52.1037 20.6268C52.3656 20.4743 52.5694 20.2638 52.7152 19.9954C52.8644 19.7236 52.9389 19.412 52.9389 19.0607C52.9389 18.7027 52.8627 18.3879 52.7102 18.1161C52.5611 17.8443 52.354 17.6322 52.0888 17.4797C51.8236 17.3273 51.5204 17.2494 51.179 17.2461C50.8807 17.2461 50.5907 17.3074 50.309 17.43C50.0306 17.5527 49.8135 17.72 49.6577 17.9322L47.7436 17.5891L48.2259 12.2198H54.4503V13.9797H50.0007L49.7372 16.5302H49.7969C49.9759 16.2783 50.246 16.0695 50.6073 15.9037C50.9685 15.738 51.3729 15.6552 51.8203 15.6552C52.4335 15.6552 52.9804 15.7993 53.461 16.0877C53.9415 16.376 54.321 16.7721 54.5995 17.2759C54.8779 17.7764 55.0154 18.3531 55.0121 19.006C55.0154 19.6921 54.8563 20.3019 54.5348 20.8356C54.2166 21.3659 53.7709 21.7835 53.1975 22.0884C52.6274 22.39 51.9645 22.5408 51.2088 22.5408ZM62.0867 20.4925V19.9556C62.0867 19.5479 62.1728 19.1734 62.3452 18.832C62.5209 18.4873 62.7744 18.2122 63.1058 18.0067C63.4406 17.7979 63.8483 17.6935 64.3289 17.6935C64.8161 17.6935 65.2254 17.7963 65.5568 18.0018C65.8916 18.2072 66.1435 18.4823 66.3125 18.827C66.4849 19.1684 66.571 19.5446 66.571 19.9556V20.4925C66.571 20.9002 66.4849 21.2764 66.3125 21.6211C66.1402 21.9625 65.8866 22.2359 65.5519 22.4414C65.2171 22.6502 64.8094 22.7546 64.3289 22.7546C63.8416 22.7546 63.4323 22.6502 63.1009 22.4414C62.7694 22.2359 62.5175 21.9625 62.3452 21.6211C62.1728 21.2764 62.0867 20.9002 62.0867 20.4925ZM63.5334 19.9556V20.4925C63.5334 20.7278 63.5897 20.9499 63.7024 21.1587C63.8184 21.3675 64.0272 21.4719 64.3289 21.4719C64.6305 21.4719 64.836 21.3692 64.9453 21.1637C65.058 20.9582 65.1144 20.7345 65.1144 20.4925V19.9556C65.1144 19.7136 65.0613 19.4883 64.9553 19.2795C64.8492 19.0706 64.6404 18.9662 64.3289 18.9662C64.0306 18.9662 63.8234 19.0706 63.7074 19.2795C63.5914 19.4883 63.5334 19.7136 63.5334 19.9556ZM56.8615 14.6658V14.1289C56.8615 13.7179 56.9494 13.3417 57.125 13.0003C57.3007 12.6556 57.5542 12.3805 57.8857 12.175C58.2204 11.9696 58.6248 11.8668 59.0987 11.8668C59.5893 11.8668 60.0003 11.9696 60.3317 12.175C60.6631 12.3805 60.915 12.6556 61.0874 13.0003C61.2597 13.3417 61.3459 13.7179 61.3459 14.1289V14.6658C61.3459 15.0768 61.2581 15.453 61.0824 15.7944C60.9101 16.1357 60.6565 16.4092 60.3218 16.6147C59.9903 16.8169 59.5826 16.9179 59.0987 16.9179C58.6148 16.9179 58.2055 16.8152 57.8708 16.6097C57.5393 16.4009 57.2874 16.1275 57.1151 15.7894C56.946 15.448 56.8615 15.0735 56.8615 14.6658ZM58.3182 14.1289V14.6658C58.3182 14.9078 58.3745 15.1315 58.4872 15.337C58.6032 15.5425 58.8071 15.6452 59.0987 15.6452C59.4037 15.6452 59.6108 15.5425 59.7202 15.337C59.8329 15.1315 59.8892 14.9078 59.8892 14.6658V14.1289C59.8892 13.8869 59.8362 13.6616 59.7301 13.4527C59.6241 13.2439 59.4136 13.1395 59.0987 13.1395C58.8038 13.1395 58.5999 13.2456 58.4872 13.4577C58.3745 13.6698 58.3182 13.8936 58.3182 14.1289ZM57.5178 22.4016L64.5178 12.2198H65.8203L58.8203 22.4016H57.5178ZM75.2552 22.5508C74.4829 22.5508 73.8151 22.3867 73.2516 22.0586C72.6915 21.7271 72.259 21.2664 71.954 20.6765C71.6491 20.0832 71.4966 19.3955 71.4966 18.6133C71.4966 17.8244 71.6491 17.135 71.954 16.5451C72.259 15.9518 72.6915 15.4911 73.2516 15.163C73.8151 14.8315 74.4829 14.6658 75.2552 14.6658C76.0274 14.6658 76.6936 14.8315 77.2538 15.163C77.8172 15.4911 78.2514 15.9518 78.5563 16.5451C78.8612 17.135 79.0137 17.8244 79.0137 18.6133C79.0137 19.3955 78.8612 20.0832 78.5563 20.6765C78.2514 21.2664 77.8172 21.7271 77.2538 22.0586C76.6936 22.3867 76.0274 22.5508 75.2552 22.5508ZM75.2651 20.9101C75.6164 20.9101 75.9098 20.8107 76.1451 20.6118C76.3804 20.4097 76.5577 20.1346 76.677 19.7866C76.7997 19.4385 76.861 19.0425 76.861 18.5983C76.861 18.1542 76.7997 17.7581 76.677 17.4101C76.5577 17.0621 76.3804 16.787 76.1451 16.5848C75.9098 16.3827 75.6164 16.2816 75.2651 16.2816C74.9105 16.2816 74.6122 16.3827 74.3702 16.5848C74.1316 16.787 73.951 17.0621 73.8283 17.4101C73.709 17.7581 73.6493 18.1542 73.6493 18.5983C73.6493 19.0425 73.709 19.4385 73.8283 19.7866C73.951 20.1346 74.1316 20.4097 74.3702 20.6118C74.6122 20.8107 74.9105 20.9101 75.2651 20.9101ZM84.4974 14.7652V16.3562H79.7843V14.7652H84.4974ZM80.8631 22.4016V14.2134C80.8631 13.6599 80.9708 13.2009 81.1863 12.8363C81.405 12.4717 81.7033 12.1982 82.0812 12.016C82.459 11.8337 82.8882 11.7425 83.3688 11.7425C83.6936 11.7425 83.9903 11.7674 84.2587 11.8171C84.5305 11.8668 84.7327 11.9116 84.8653 11.9513L84.4874 13.5422C84.4046 13.5157 84.3018 13.4909 84.1792 13.4677C84.0599 13.4445 83.9372 13.4329 83.8113 13.4329C83.4997 13.4329 83.2826 13.5058 83.16 13.6516C83.0374 13.7941 82.9761 13.9947 82.9761 14.2532V22.4016H80.8631ZM89.8977 14.7652V16.3562H85.1847V14.7652H89.8977ZM86.2635 22.4016V14.2134C86.2635 13.6599 86.3712 13.2009 86.5867 12.8363C86.8054 12.4717 87.1037 12.1982 87.4816 12.016C87.8594 11.8337 88.2886 11.7425 88.7692 11.7425C89.094 11.7425 89.3906 11.7674 89.6591 11.8171C89.9309 11.8668 90.1331 11.9116 90.2656 11.9513L89.8878 13.5422C89.8049 13.5157 89.7022 13.4909 89.5796 13.4677C89.4602 13.4445 89.3376 13.4329 89.2117 13.4329C88.9001 13.4329 88.683 13.5058 88.5604 13.6516C88.4378 13.7941 88.3764 13.9947 88.3764 14.2532V22.4016H86.2635Z" fill="black"/>
</svg>
